<svg width="299" height="145" viewBox="0 0 299 145" fill="none" xmlns="http://www.w3.org/2000/svg">
<path d="M270.142 144.832H0.976562V29.2682L29.3931 0H298.965V115.705L270.142 144.832ZM6.6599 139.2H267.768L293.261 113.392V5.63239H31.7883L6.6599 31.5413V139.2Z" fill="#EEEEEE"/>
<path d="M92.4179 47.0505V81.0459H85.415V47.0505H92.4179Z" fill="#EEEEEE"/>
<path d="M120.914 58.1141V81.0859C120.914 88.2068 115.312 92.532 108.553 92.532C101.794 92.532 96.9224 88.5086 96.3746 82.7558H103.316C103.62 85.1697 105.772 86.2757 108.634 86.2757C110.058 86.4003 111.464 85.8939 112.475 84.8921C113.485 83.8908 113.997 82.4971 113.871 81.0859V78.2298C111.886 79.4493 109.589 80.0779 107.254 80.0402C101.036 80.075 95.931 75.1768 95.7654 69.0166C95.6695 65.9654 96.8475 63.0094 99.0217 60.847C101.196 58.6842 104.175 57.5062 107.254 57.5912C109.586 57.556 111.88 58.1768 113.871 59.3813V58.1541L120.914 58.1141ZM113.932 71.6317V66.0398C112.737 64.2641 110.705 63.2233 108.553 63.2836C106.991 63.1885 105.464 63.762 104.357 64.8584C103.251 65.9548 102.672 67.4693 102.768 69.0166C102.9 72.0754 105.464 74.4743 108.553 74.428C110.72 74.512 112.769 73.4465 113.932 71.6317Z" fill="#EEEEEE"/>
<path d="M148.804 69.3183C148.845 74.2923 145.853 78.7985 141.227 80.7282C136.601 82.6583 131.258 81.6295 127.697 78.1241C124.137 74.6187 123.064 69.3299 124.98 64.7329C126.897 60.1359 131.424 57.1403 136.443 57.1485C139.746 57.0182 142.955 58.2555 145.299 60.5641C147.645 62.8728 148.914 66.0446 148.804 69.3183ZM142.046 69.3183C142.171 67.2443 141.126 65.2717 139.331 64.197C137.537 63.1224 135.289 63.1224 133.494 64.197C131.7 65.2717 130.655 67.2443 130.78 69.3183C130.655 71.3928 131.7 73.3649 133.494 74.4396C135.289 75.5147 137.537 75.5147 139.331 74.4396C141.126 73.3649 142.171 71.3928 142.046 69.3183Z" fill="#EEEEEE"/>
<path d="M192.2 58.1542V80.9856H185.339V79.698C183.367 80.9349 181.076 81.5775 178.743 81.549C172.601 80.8427 167.968 75.6876 167.968 69.5598C167.968 63.4324 172.601 58.2773 178.743 57.571C181.076 57.542 183.367 58.1851 185.339 59.4215V58.1344L192.2 58.1542ZM185.298 73.1004V66.1403C184.077 64.3685 181.998 63.373 179.839 63.5251C176.442 63.5251 173.689 66.2542 173.689 69.6201C173.689 72.9865 176.442 75.7151 179.839 75.7151C181.998 75.8677 184.077 74.8722 185.298 73.1004Z" fill="#EEEEEE"/>
<path d="M220.373 68.6545V81.0459H213.614V69.4593C213.614 65.6976 211.747 63.7665 208.398 63.7665C206.29 63.9229 204.352 64.971 203.08 66.6433V81.0459H196.178V58.1948H203.08V59.9043C206.359 57.3533 210.835 56.9227 214.549 58.8016C218.262 60.6806 220.535 64.5259 220.373 68.6545Z" fill="#EEEEEE"/>
<path d="M255.283 47.8954H253.558V51.9187H252.665V47.8954H250.94V46.9902H255.344V47.8954H255.283Z" fill="#EEEEEE"/>
<path d="M261.129 51.9791H260.134V49.1829L258.835 51.1946H258.206L256.866 49.1829V51.9791H255.852V46.9902H256.582L258.49 49.9876L260.419 46.9902H261.129V51.9791Z" fill="#EEEEEE"/>
<path d="M82.1666 80.9854H75.1233L70.4748 63.9473L60.5088 80.9854H52.552L67.9583 54.5935L65.4617 45.3807L44.6971 80.9854H36.7607L63.1477 35.8459H69.9879L73.0124 47.0906H80.1974L75.3059 55.5393L82.1666 80.9854Z" fill="#EEEEEE"/>
<path d="M248.2 47.0505V81.0459H241.198V79.7583C239.225 80.9952 236.934 81.6378 234.601 81.6093C228.459 80.903 223.826 75.7479 223.826 69.6201C223.826 63.4927 228.459 58.3376 234.601 57.6313C236.934 57.6023 239.225 58.2454 241.198 59.4818V47.0505H248.2ZM241.198 73.2008V66.0799C239.939 64.3298 237.862 63.3425 235.697 63.4647C232.266 63.4647 229.486 66.2208 229.486 69.6201C229.486 73.0197 232.266 75.7754 235.697 75.7754C237.875 75.8927 239.958 74.8794 241.198 73.1004V73.2008Z" fill="#EEEEEE"/>
<path d="M165.954 63.9473C163.204 63.9512 160.589 65.1229 158.769 67.166V81.0457H151.868V58.335H158.769V60.045C160.807 58.4804 163.409 57.8248 165.954 58.2346V63.9473Z" fill="#EEEEEE"/>
<path d="M135.184 104.38V93.2358H142.167V94.7846H136.971V97.8623H140.381V99.4115H136.971V104.38H135.184Z" fill="#EEEEEE"/>
<path d="M151.807 104.239C151.205 104.47 150.565 104.586 149.92 104.581C149.268 104.586 148.62 104.47 148.012 104.239C147.492 104.048 147.02 103.746 146.631 103.354C146.254 102.96 145.94 102.513 145.698 102.026C145.435 101.57 145.231 101.084 145.088 100.578C144.982 100.028 144.928 99.469 144.926 98.9085C144.921 98.3214 144.976 97.7349 145.088 97.1584C145.194 96.6143 145.371 96.0872 145.616 95.5894C145.863 95.1057 146.178 94.6586 146.55 94.2618C146.939 93.8698 147.41 93.5676 147.93 93.3769C148.54 93.1461 149.186 93.0302 149.838 93.0346C150.483 93.0297 151.124 93.1456 151.726 93.3769C152.249 93.5729 152.726 93.8741 153.127 94.2618C153.499 94.6586 153.813 95.1057 154.06 95.5894C154.296 96.0905 154.474 96.6172 154.588 97.1584C154.694 97.702 154.749 98.2543 154.75 98.8081C154.749 99.3681 154.694 99.9271 154.588 100.478C154.47 101.011 154.293 101.531 154.06 102.026C153.818 102.513 153.504 102.96 153.127 103.354C152.75 103.732 152.302 104.033 151.807 104.239ZM148.438 102.59C148.885 102.854 149.399 102.986 149.92 102.972C150.442 102.977 150.955 102.838 151.401 102.569C151.815 102.317 152.158 101.964 152.396 101.543C152.63 101.126 152.808 100.68 152.924 100.216C153.029 99.7471 153.083 99.2682 153.086 98.7878C153.084 98.2939 153.03 97.802 152.924 97.3192C152.815 96.8533 152.637 96.4058 152.396 95.9916C152.157 95.5773 151.814 95.2307 151.401 94.9859C150.948 94.7393 150.437 94.6142 149.92 94.6239C149.399 94.6094 148.885 94.7417 148.438 95.0062C148.024 95.2587 147.682 95.6116 147.443 96.0321C147.209 96.4492 147.031 96.8958 146.916 97.3598C146.81 97.8285 146.756 98.3074 146.753 98.7878C146.753 99.2817 146.808 99.7741 146.916 100.256C147.028 100.728 147.205 101.181 147.443 101.604C147.682 102.013 148.025 102.353 148.438 102.59Z" fill="#EEEEEE"/>
<path d="M163.195 104.601C161.999 104.727 160.81 104.296 159.98 103.433C159.149 102.571 158.77 101.374 158.953 100.196V93.2358H160.638V100.176C160.559 100.963 160.808 101.748 161.328 102.348C161.848 102.8 162.525 103.031 163.215 102.992C163.905 103.024 164.58 102.794 165.103 102.348C165.615 101.745 165.857 100.96 165.773 100.176V93.2358H167.417V100.176C167.615 101.355 167.244 102.559 166.415 103.427C165.586 104.296 164.394 104.731 163.195 104.601Z" fill="#EEEEEE"/>
<path d="M180.489 104.38H178.906L174.034 96.8166C173.893 96.595 173.75 96.3135 173.588 95.9915C173.588 96.4946 173.588 96.776 173.588 96.8166V104.38H171.903V93.2358H173.588L178.337 100.679C178.512 100.956 178.668 101.246 178.804 101.543C178.804 101.222 178.804 100.94 178.804 100.699V93.2358H180.469L180.489 104.38Z" fill="#EEEEEE"/>
<path d="M185.116 93.2358H188.262C189.113 93.2189 189.957 93.3835 190.738 93.7186C191.405 93.9918 191.987 94.436 192.423 95.0061C192.826 95.5406 193.135 96.1392 193.336 96.776C193.535 97.4282 193.631 98.1065 193.62 98.7877C193.632 99.4675 193.543 100.145 193.356 100.799C193.154 101.432 192.852 102.029 192.463 102.569C192.035 103.162 191.453 103.628 190.778 103.917C189.963 104.254 189.085 104.418 188.201 104.4H185.116V93.2358ZM188.465 102.831C189.022 102.844 189.572 102.72 190.068 102.469C190.511 102.253 190.884 101.919 191.144 101.503C191.406 101.117 191.598 100.688 191.712 100.236C191.837 99.7702 191.898 99.2898 191.895 98.808C191.917 97.8029 191.635 96.8146 191.083 95.9717C190.534 95.1833 189.612 94.7343 188.648 94.7845H186.78V102.831H188.465Z" fill="#EEEEEE"/>
<path d="M204.46 104.38L203.546 101.825H198.999L198.086 104.38H196.341L200.4 93.2358H202.125L206.185 104.38H204.46ZM203.039 100.357L201.679 96.5549C201.511 96.1523 201.382 95.7347 201.293 95.3079C201.293 95.6898 201.049 96.1122 200.907 96.5549L199.507 100.357H203.039Z" fill="#EEEEEE"/>
<path d="M212.721 94.8251V104.38H211.056V94.8251H207.87V93.2358H215.989V94.8251H212.721Z" fill="#EEEEEE"/>
<path d="M219.885 104.38V93.2358H221.55V104.38H219.885Z" fill="#EEEEEE"/>
<path d="M232.652 104.239C232.044 104.47 231.396 104.586 230.744 104.581C230.099 104.586 229.458 104.47 228.856 104.239C228.333 104.043 227.856 103.742 227.456 103.354C227.079 102.965 226.77 102.516 226.543 102.026C226.294 101.535 226.11 101.015 225.995 100.478C225.895 99.9267 225.848 99.3676 225.852 98.8081C225.848 98.2548 225.895 97.7025 225.995 97.1584C226.107 96.6139 226.291 96.0862 226.543 95.5894C226.776 95.1023 227.084 94.6543 227.456 94.2618C227.856 93.8741 228.333 93.5729 228.856 93.3769C229.458 93.1456 230.099 93.0297 230.744 93.0346C231.396 93.0302 232.044 93.1461 232.652 93.3769C233.176 93.5729 233.652 93.8741 234.053 94.2618C234.425 94.6543 234.733 95.1023 234.966 95.5894C235.212 96.0872 235.389 96.6143 235.494 97.1584C235.6 97.702 235.655 98.2543 235.656 98.8081C235.655 99.3681 235.6 99.9271 235.494 100.478C235.385 101.014 235.208 101.535 234.966 102.026C234.738 102.516 234.43 102.965 234.053 103.354C233.652 103.742 233.176 104.043 232.652 104.239ZM229.263 102.59C229.711 102.852 230.224 102.985 230.744 102.972C231.267 102.981 231.781 102.841 232.226 102.569C232.645 102.323 232.989 101.968 233.22 101.543C233.455 101.126 233.633 100.68 233.748 100.216C233.854 99.7471 233.908 99.2682 233.91 98.7878C233.909 98.2939 233.854 97.802 233.748 97.3192C233.64 96.8533 233.462 96.4058 233.22 95.9916C232.987 95.5735 232.643 95.2254 232.226 94.9859C231.773 94.7373 231.262 94.6123 230.744 94.6239C230.224 94.6113 229.711 94.7436 229.263 95.0062C228.849 95.2587 228.506 95.6116 228.268 96.0321C228.042 96.4531 227.864 96.8987 227.74 97.3598C227.635 97.8285 227.581 98.3074 227.578 98.7878C227.578 99.2817 227.633 99.7741 227.74 100.256C227.861 100.725 228.038 101.178 228.268 101.604C228.507 102.013 228.85 102.353 229.263 102.59Z" fill="#EEEEEE"/>
<path d="M248.383 104.38H246.82L241.949 96.8166C241.771 96.554 241.615 96.2783 241.482 95.9915C241.482 96.4946 241.482 96.776 241.482 96.8166V104.38H239.797V93.2358H241.502L246.231 100.679C246.406 100.956 246.562 101.246 246.698 101.543C246.698 101.222 246.698 100.94 246.698 100.699V93.2358H248.363L248.383 104.38Z" fill="#EEEEEE"/>
</svg>
