<svg width="299" height="60" viewBox="0 0 299 60" fill="none" xmlns="http://www.w3.org/2000/svg">
<path d="M296.955 20.3385C296.236 21.0105 295.617 21.7702 295.097 22.5981C295.017 23.163 294.508 23.4162 294.188 23.8058L294.198 23.7863C293.819 24.4681 293.339 25.0719 292.73 25.5686H292.74C292.461 26.4062 292.001 27.1075 291.192 27.5555C290.513 28.51 290.073 29.6593 288.925 30.2534C288.845 30.2923 288.805 30.3508 288.815 30.4482C288.605 31.1007 287.986 31.4416 287.626 31.987C286.718 32.8733 285.949 33.857 285.269 34.9186C284.96 35.9705 284.091 36.6425 283.452 37.4801C283.292 37.6944 282.952 37.821 283.132 38.1814C283.222 38.269 283.302 38.3664 283.392 38.4541C284.44 38.8924 284.56 40.0514 285.259 40.7624C285.259 40.85 285.269 40.9279 285.289 41.0156C285.499 41.3078 285.549 41.7071 285.929 41.8727C286.408 42.3791 286.887 42.8758 287.357 43.3823C288.356 44.0251 288.985 44.9504 289.454 46.0022H289.444C289.814 46.5477 290.493 46.7911 290.793 47.395C291.622 48.5735 292.71 49.5474 293.529 50.7357C293.739 50.9986 293.979 51.2324 294.198 51.4856C295.607 53.4627 297.335 55.1866 298.693 57.2027C299.013 58.089 298.393 58.2546 297.724 58.4397C296.595 58.7513 295.457 58.4591 294.338 58.4591C293.12 58.4689 291.861 58.4299 290.643 58.1962C289.964 57.9819 289.075 58.5078 288.565 57.6508C287.966 57.4754 287.946 56.8813 287.676 56.4625V56.4723C286.188 55.2353 285.03 53.7549 284.131 52.07L284.121 52.0797C283.482 51.4953 282.852 50.9012 282.573 50.0539C282.203 49.6546 281.834 49.2552 281.474 48.8657C281.194 48.817 280.995 48.6514 280.845 48.4274C280.645 48.0281 280.355 47.658 280.315 47.2002C280.166 46.8009 280.046 46.3918 279.566 46.2262C279.456 46.1581 279.367 46.0704 279.307 45.9633V45.973C278.568 45.1257 277.689 44.3757 277.209 43.3336V43.3239C276.061 42.7492 275.901 44.0251 275.222 44.3368C275.012 45.0965 274.303 45.4373 273.803 45.9535C273.544 46.0899 273.244 46.2068 273.364 46.5964C273.324 46.8593 273.164 47.0152 272.924 47.1125L272.934 47.1223C272.255 48.593 271.037 49.6838 270.168 51.0279C269.838 51.4467 269.369 51.7291 268.989 52.0992C268.52 52.5083 268.07 52.9368 267.861 53.5407C266.742 54.9821 265.973 56.6865 264.575 57.9332C263.995 58.3423 263.366 58.4884 262.637 58.5078C260.46 58.5663 258.282 58.4981 256.105 58.5858C255.506 58.615 254.697 58.7318 254.347 58.089C253.998 57.4365 254.587 56.9203 254.966 56.4236C255.765 55.3814 256.544 54.3198 257.653 53.5504C258.792 52.3914 259.781 51.1155 260.699 49.7812C261.039 48.7391 261.858 47.9988 262.487 47.1418C262.647 46.947 262.797 46.7424 262.947 46.5379C263.136 46.2652 263.466 46.197 263.716 46.012H263.706C264.065 45.0672 264.714 44.2978 265.334 43.5187C266.342 42.7297 266.982 41.6097 267.931 40.7721V40.7818C268.31 39.6131 269.279 38.8534 270.008 37.9379C270.497 37.2756 269.828 37.149 269.479 36.8763C267.181 34.4122 264.944 31.8896 263.186 29.0164C262.867 28.0133 261.818 27.5945 261.309 26.7471C260.42 26.2017 260.15 25.1985 259.511 24.4583C259.451 24.3707 259.371 24.3415 259.271 24.3512V24.3609C258.173 22.1208 256.425 20.358 254.777 18.5269C254.297 17.7672 254.737 17.6212 255.416 17.5627C257.204 17.3874 258.982 17.6212 260.769 17.5919C261.938 17.5725 263.136 17.2413 264.285 17.7672L264.245 17.7575C265.144 18.5659 265.923 19.4911 266.742 20.3872C266.872 20.5528 266.952 20.7476 266.922 20.9618C267.201 21.3806 267.401 21.8579 267.871 22.1306C268.849 22.9584 269.599 23.9713 270.258 25.0524L270.248 25.0427C271.996 26.8153 273.654 28.6561 274.942 30.7793C275.152 31.1202 275.511 31.315 275.751 31.6266C276.31 32.3571 276.81 32.3766 277.369 31.6072C277.739 31.1007 278.318 30.7696 278.717 30.2826L278.707 30.2923C279.137 28.8216 280.625 28.1301 281.384 26.8932C281.544 26.64 281.644 26.377 281.764 26.114C282.343 25.0914 283.162 24.2928 284.091 23.5818V23.5915C284.75 22.8513 284.98 21.7994 285.879 21.2345C285.968 21.1371 286.068 21.03 286.158 20.9326C286.308 20.4359 286.817 20.2021 287.057 19.7639C287.157 19.6665 287.257 19.5593 287.347 19.4619C288.116 17.9718 289.155 17.2705 291.042 17.5238C292.73 17.7478 294.498 17.6991 296.246 17.3971C297.055 17.2608 298.194 16.9978 298.603 18.2445C298.393 19.1697 297.824 19.871 296.955 20.3385Z" fill="#EEEEEE"/>
<path d="M82.907 51.0861C83.0768 51.2907 83.3065 51.2809 83.5462 51.2614C83.8858 51.203 84.1954 51.242 84.4451 51.5049C87.9308 52.3328 91.1469 51.8263 94.0234 49.6447C94.333 49.4109 94.6526 49.1577 94.6626 48.7097C94.8923 48.3006 95.152 47.8916 95.3118 47.4435C95.4616 46.9371 96.001 46.8007 96.2906 46.4404C97.0896 44.7652 97.1396 42.9536 97.1595 41.181C97.2195 34.149 97.1795 27.1171 97.1895 20.0851C97.1895 19.5494 97.1595 19.0138 97.2394 18.4878C97.3193 17.9716 97.5191 17.5431 98.1683 17.5626C100.785 17.66 103.402 17.3678 106.009 17.6989C106.498 18.2248 106.398 18.8774 106.398 19.5007C106.408 26.708 106.478 33.925 106.358 41.1323C106.318 43.3627 106.238 45.6709 105.1 47.7455C103.572 51.7582 100.735 54.6508 96.9997 56.7838C96.8599 57.0175 96.5603 56.9104 96.3905 57.0662C95.5915 57.3682 94.8024 57.6603 94.0034 57.9623C93.5839 58.5272 92.8848 58.2739 92.3454 58.4785C89.9484 59.3745 87.5014 59.2868 85.0344 58.8583C84.9345 58.8583 84.8346 58.8486 84.7347 58.8486C83.0668 58.9167 81.4687 58.644 79.9406 57.972C78.1628 56.9883 76.2651 56.1994 74.5872 55.0307C74.0279 54.7872 73.5385 54.456 73.1889 53.9496C72.8793 53.4528 72.5097 53.034 72.0103 52.7029C71.7806 52.5471 71.6607 52.3231 71.5908 52.0698C71.6008 51.9724 71.5908 51.8848 71.5809 51.7874C71.2812 51.4757 71.4011 50.9108 70.9017 50.716H70.9117C70.5821 49.8979 70.3424 49.0311 69.7131 48.3493C69.0839 47.463 69.0839 46.343 68.6045 45.3982C68.0452 44.473 68.155 43.4211 68.1451 42.4374C68.0851 34.5289 68.165 26.6204 68.0851 18.7118C68.0751 17.8255 68.5046 17.4262 69.2837 17.3678C71.421 17.1925 73.5584 17.173 75.6958 17.3288C76.9942 17.4165 77.2639 18.2443 77.2539 19.3546C77.2339 24.7893 77.2439 30.224 77.2439 35.6587C77.2439 37.4507 77.2739 39.2526 77.2339 41.0446C77.204 42.7685 77.4736 44.4243 78.1928 46.0021C78.4524 46.8397 79.0917 47.5117 79.2714 48.3785C80.47 49.3135 81.7384 50.1414 82.907 51.0861Z" fill="#EEEEEE"/>
<path d="M59.5157 58.2058L59.4458 58.1766L59.3759 58.2156C57.3284 58.011 55.2809 58.0208 53.2434 58.2156C52.704 58.2156 52.1647 58.2156 51.6253 58.2156C50.7464 57.8941 51.106 57.1442 51.096 56.5793C51.076 42.7881 51.086 28.9969 51.076 15.2056C51.076 10.93 51.1359 6.66404 51.0361 2.38837C51.0161 1.46311 51.3157 1.20988 52.2146 1.21962C54.0524 1.22936 55.8801 1.26832 57.7179 1.01509C59.6056 0.752125 59.9851 1.22936 60.055 3.03118C60.6843 20.017 60.1449 37.0028 60.3347 53.9886C60.3447 55.206 59.9052 56.3748 60.0251 57.602C60.065 57.9039 59.8453 58.1182 59.5157 58.2058Z" fill="#EEEEEE"/>
<path d="M205.247 39.6228C205.117 38.0937 205.167 36.5451 205.217 35.016C205.257 33.8278 205.077 32.7272 204.438 31.7045C204.378 31.6461 204.358 31.5877 204.398 31.5097C204.229 30.6137 204.079 29.7079 203.699 28.8801C201.152 23.1922 196.897 19.345 190.735 17.6016C187.279 16.4816 183.724 16.988 180.188 17.027C179.938 17.0465 179.699 17.0854 179.459 17.1536C179.139 17.251 178.9 17.4361 178.7 17.6893C176.862 18.3321 175.104 19.16 173.396 20.0658C173.107 20.1631 172.867 20.3092 172.687 20.5527C171.778 21.3806 170.859 22.2182 169.811 23.1727C169.791 22.6565 169.761 22.413 169.761 22.1695C169.761 15.7024 169.731 9.24509 169.781 2.77802C169.791 1.70667 169.521 1.31709 168.372 1.37553C166.485 1.46318 164.577 1.45344 162.689 1.38527C161.621 1.34631 161.221 1.59954 161.231 2.73907C161.341 15.7609 161.091 28.7924 161.391 41.8142C161.691 44.7848 162.839 47.4534 164.427 49.976C164.747 50.4727 165.096 50.9207 165.636 51.2129C167.004 52.4985 168.372 53.7744 169.731 55.06C170.2 55.3911 170.66 55.732 171.209 55.9366L171.219 55.9463C172.198 57.2027 173.666 57.4365 175.114 57.6799C177.222 58.9169 179.599 58.9753 181.936 59.1117C183.044 59.1701 184.213 59.4039 185.302 58.8779C185.581 58.8584 185.861 58.839 186.141 58.8195C187.219 58.9656 188.198 58.5662 189.187 58.2546L189.277 58.1961L189.387 58.2254C190.006 58.0208 190.795 58.3228 191.264 57.6605C192.383 57.5728 193.412 57.2611 194.221 56.443C194.94 56.2385 195.689 56.0827 196.059 55.3327C196.937 54.6412 197.816 53.9594 198.685 53.2679C200.843 52.2453 201.522 50.122 202.611 48.3007H202.601C203.36 47.5898 203.39 46.5476 203.809 45.6905L203.799 45.7003C204.358 45.2036 204.159 44.4731 204.398 43.879C204.358 43.8011 204.368 43.7329 204.438 43.6745C204.838 42.3304 205.377 41.0545 205.247 39.6228ZM194.88 44.2393C194.64 45.1743 194.121 45.9438 193.442 46.6158C193.412 46.5866 193.392 46.5671 193.362 46.5379C193.362 46.5379 193.362 46.5379 193.362 46.5476L193.442 46.6158C193.092 47.3268 192.563 47.8722 191.884 48.291C190.056 50.0441 187.889 51.0863 185.312 51.2616C182.116 51.9141 179.119 51.4271 176.333 49.7422C174.844 49.0117 173.576 48.0378 172.697 46.6255C169.98 43.4991 169.531 39.7981 169.891 35.912C169.94 35.3666 169.881 34.7433 170.32 34.266C170.939 31.2468 172.427 28.7729 175.044 26.9808C178.31 24.0979 184.632 23.4259 188.598 25.5491C190.795 26.3186 192.473 27.7113 193.681 29.6397C194.071 29.9222 194.291 30.302 194.371 30.7598C194.99 31.5292 195.369 32.396 195.499 33.37C196.838 37.0905 196.598 40.7039 194.88 44.2393Z" fill="#EEEEEE"/>
<path d="M15.3298 27.8962C15.3298 27.906 15.3198 27.906 15.3198 27.9157C15.3298 27.9157 15.3398 27.9157 15.3498 27.9157C15.3398 27.906 15.3298 27.8962 15.3298 27.8962Z" fill="#EEEEEE"/>
<path d="M44.6037 34.1005C44.8035 32.5714 44.2242 31.1884 43.7448 29.7859C43.1854 28.3639 42.3465 27.0783 41.6773 25.7148C41.6074 25.5979 41.5275 25.481 41.4476 25.3739C41.1379 25.0233 40.8483 24.6531 40.4088 24.4389C39.2203 23.2799 38.0317 22.1306 36.8432 20.9716C36.3938 20.3483 35.8544 19.8613 35.0354 19.7931C33.9467 19.2964 32.8581 18.7997 31.7694 18.2932C30.7606 17.7868 29.6021 17.7186 28.5733 17.2706C26.9953 16.8323 25.4072 16.4914 23.7692 16.9199C23.4696 16.9979 23.1699 17.0173 22.8803 16.9686C20.4633 16.5109 18.2859 17.3387 16.1186 18.1958C15.6691 18.4685 15.2396 18.7802 14.7003 18.8873C13.3819 19.5886 11.9637 20.1827 11.1447 21.517C10.7052 22.0916 10.2258 22.6176 9.58656 23.0364C9.27694 22.5591 9.41677 22.1209 9.41677 21.7118C9.38681 15.3908 9.36683 9.07959 9.41677 2.76835C9.42676 1.68726 9.11714 1.32689 7.98852 1.36585C5.65138 1.45351 3.30425 1.39507 0.967114 1.38533C0.867237 1.56064 0.857249 1.73595 0.917176 1.92101C0.98709 7.26803 0.947139 12.6053 0.937151 17.9426C0.937151 25.0817 1.00707 32.211 0.8972 39.3501C0.727408 39.9248 0.817298 40.5092 0.797322 41.0935C0.967114 43.8109 1.96589 46.275 3.23434 48.6514C3.30425 48.778 3.37417 48.8949 3.46406 49.0118C3.7537 49.3624 3.98342 49.7715 4.43287 49.976C4.92227 50.0247 4.93226 50.3753 4.93226 50.726C5.03214 51.174 5.33177 51.5149 5.57148 51.8947C5.87111 52.3135 6.27062 52.6544 6.62019 53.0342C6.71008 53.1219 6.79997 53.2193 6.89985 53.2972C7.27939 53.6283 7.60898 53.9985 8.01848 54.2906C8.31812 54.5244 8.69765 54.5828 9.02725 54.7387C9.40678 54.8263 9.68644 55.0503 9.91616 55.3328C11.1646 56.7742 12.9524 57.2612 14.6604 57.8943C15.2596 58.2157 15.9488 58.0209 16.568 58.2157C18.4557 58.3423 20.2835 58.8098 22.1911 58.8682C25.1675 58.9656 28.004 58.3033 30.8605 57.6897C31.0603 57.8358 31.2401 57.8358 31.3999 57.641C31.4898 57.5437 31.5796 57.4365 31.6695 57.3391C32.3287 57.1249 33.0778 57.1151 33.5572 56.521C34.2863 56.1801 34.7957 55.4594 35.6547 55.3425C37.3126 54.6802 38.6909 53.6868 39.5 52.0798C40.8583 50.3364 42.0269 48.4859 43.0756 46.5672C43.8546 46.1873 43.3353 45.3595 43.7148 44.8335C44.7535 41.2981 44.8634 37.7139 44.6037 34.1005ZM34.4861 44.2686C33.747 46.2458 32.4885 47.8236 30.6608 48.9534C30.441 49.265 30.1714 49.4988 29.7619 49.528C28.3636 50.6286 26.7456 51.174 24.9677 51.2714C24.728 51.3298 24.4883 51.3785 24.2486 51.398C21.2922 51.8558 18.5156 51.3396 15.9288 49.752C14.6803 49.1481 13.5417 48.3982 12.8126 47.2002C11.1846 45.5737 10.2058 43.6356 9.90617 41.376C9.8063 41.1909 9.77633 40.9961 9.77633 40.8013C8.85746 36.6523 9.5566 32.8052 12.3132 29.3476C12.8226 28.51 13.4019 27.7406 14.3308 27.2926C17.1773 24.6044 22.9003 23.5136 26.4759 24.9746C27.3548 24.994 28.1039 25.3641 28.823 25.8122C30.2912 26.3576 31.4698 27.2731 32.4186 28.4808C33.4074 29.3671 34.0966 30.4384 34.5061 31.6851C35.2851 32.9415 35.6746 34.3148 35.7146 35.7855C36.2439 38.7366 35.9243 41.5805 34.4861 44.2686Z" fill="#EEEEEE"/>
<path d="M34.416 31.7337L34.4959 31.6753C34.4659 31.6948 34.436 31.7045 34.406 31.724C34.406 31.7337 34.416 31.7337 34.416 31.7337Z" fill="#EEEEEE"/>
<path d="M131.108 24.3901C131.148 24.4291 131.178 24.4681 131.218 24.4973C131.188 24.4681 131.148 24.4291 131.108 24.3901Z" fill="#EEEEEE"/>
<path d="M151.733 51.2031C152.352 50.3363 152.961 49.4792 153.58 48.6124C153.58 48.3689 153.68 48.1644 153.91 48.0378C153.98 47.9306 154.05 47.8235 154.12 47.7164C154.15 47.1515 154.539 46.7424 154.799 46.2749C155.568 43.5771 155.568 43.5771 152.542 43.5673C151.153 43.5673 149.765 43.6257 148.377 43.5478C147.348 43.4894 146.739 43.7621 146.389 44.775C146.159 45.4178 145.92 46.158 145.201 46.5379C145.131 46.6158 145.051 46.6645 144.951 46.6742C144.991 46.7424 144.981 46.8008 144.921 46.8495C144.512 47.8235 143.752 48.4663 142.834 48.9533C142.554 49.4013 142.164 49.7032 141.635 49.8104C137.47 52.8686 129.819 52.5667 126.014 49.187C125.535 48.9922 125.115 48.7293 124.866 48.2618C124.017 47.6871 123.357 46.9664 122.998 46.0119C122.998 46.0119 122.998 46.0119 122.988 46.0217C121.749 44.7263 121.37 43.0609 120.9 41.4343C120.681 40.6747 121.03 40.4701 121.719 40.4993C122.119 40.5188 122.518 40.4993 122.918 40.4993C133.485 40.4993 144.052 40.4701 154.609 40.5188C155.868 40.5286 156.237 40.1195 156.287 38.9508C156.367 37.1879 156.027 35.464 155.987 33.7206C155.398 31.9675 154.809 30.2241 154.22 28.471C152.652 25.5004 150.404 23.085 147.817 20.9326C147.458 20.8547 147.158 20.6988 146.978 20.3774C144.571 19.1405 142.065 18.1373 139.448 17.4068C139.358 17.4555 139.288 17.4458 139.218 17.3776C135.423 16.8906 131.637 16.9491 127.872 17.7088C127.313 18.0302 126.713 18.2055 126.074 18.2639C125.854 18.5561 125.525 18.5366 125.205 18.5659C123.787 19.3353 122.369 20.1047 120.96 20.8741C119.782 21.8578 118.603 22.8415 117.435 23.8252C117.195 24.2538 116.955 24.692 116.456 24.9063C116.266 25.1206 116.076 25.3348 115.897 25.5491C115.867 26.2017 115.447 26.6302 115.008 27.049C114.888 27.4678 114.728 27.8671 114.378 28.1691C114.079 28.8508 113.769 29.5326 113.47 30.2144C113.09 31.6071 112.71 32.9999 112.341 34.3926C112.321 34.5582 112.311 34.714 112.291 34.8796C112.141 37.9963 112.251 41.0935 112.95 44.1517L112.94 44.1614C113.4 44.6679 113.509 45.2912 113.559 45.934L113.549 45.9243C115.167 48.9825 116.895 51.9628 119.832 54.0471C120.99 54.8749 122.199 55.6346 123.387 56.4333C124.146 56.5794 124.826 56.9202 125.475 57.3196C126.334 57.5338 127.223 57.6605 127.992 58.1474C129.1 58.1961 130.189 58.3617 131.228 58.7318C134.614 58.9169 137.96 58.7221 141.245 57.865C141.725 57.5338 142.274 57.417 142.844 57.3293C144.512 56.4333 146.189 55.547 147.857 54.6509C149.126 53.5406 150.434 52.3719 151.733 51.2031ZM121.46 32.5616C121.55 32.3473 121.719 32.1525 121.849 31.9578C121.889 31.5 122.069 31.1104 122.419 30.8085C123.148 29.0456 124.366 27.6821 126.014 26.6789C127.482 25.4322 129.17 24.6336 131.108 24.3901C131.467 24.0882 131.897 24.0882 132.336 24.1466C135.173 23.572 137.85 24.02 140.427 25.2472C144.192 26.7179 146.469 29.5131 147.758 33.1557C148.207 34.4413 147.098 34.0615 146.549 34.0615C139.538 34.0907 132.526 34.081 125.505 34.081C124.506 34.081 123.517 34.0907 122.518 34.0907C120.96 34.1005 120.88 33.9933 121.46 32.5616Z" fill="#EEEEEE"/>
<path d="M126.623 27.419C126.633 27.419 126.653 27.419 126.663 27.4093C126.813 27.4872 126.613 27.234 126.594 27.3801C126.613 27.3995 126.613 27.4093 126.623 27.419Z" fill="#EEEEEE"/>
<path d="M252.32 30.8864C252.15 29.7274 251.7 28.6755 251.121 27.6529C249.653 25.0524 247.815 22.7636 245.338 21.0008C244.679 20.5722 244.02 20.1437 243.341 19.7346C241.223 18.4587 238.876 17.8062 236.449 17.4263V17.4361C234.491 16.5887 232.394 17.0173 230.356 16.8322C228.159 16.6374 226.092 17.5043 223.944 17.7477C222.566 18.4685 220.978 18.7704 219.729 19.7541C218.631 19.9781 217.922 20.8741 216.923 21.2832C216.533 21.6338 215.984 21.8384 215.864 22.4325C215.634 22.7928 215.355 23.085 214.945 23.2506C214.756 23.348 214.536 23.3967 214.386 23.5623C212.758 25.0816 211.989 27.1464 210.79 28.9288C210.191 30.828 209.392 32.6882 209.272 34.7043C209.272 36.8762 209.272 39.0482 209.272 41.2201C209.452 43.7134 210.041 46.1191 211.37 48.2715C213.437 51.6317 215.884 54.651 219.789 56.1703C219.969 56.2677 220.149 56.3651 220.329 56.4625C220.738 56.7255 221.008 57.2027 221.507 57.3196C223.575 57.7774 225.532 58.5955 227.62 58.9558C229.827 59.3357 232.054 58.8682 234.262 59.1117C236.01 58.6831 237.897 58.7123 239.455 57.6215L239.445 57.6313C240.983 57.5339 242.152 56.6768 243.351 55.8587C243.56 55.5567 243.88 55.4106 244.229 55.2938C245.358 54.8068 246.137 53.7841 247.296 53.3361C247.316 53.3361 247.336 53.2971 247.346 53.2095C247.356 53.1316 247.326 53.0537 247.256 52.9757C247.615 52.5764 247.975 52.1674 248.334 51.768C249.413 51.0376 249.763 49.7325 250.721 48.9046C251.501 47.7066 252.15 46.4502 252.32 45.0185C252.529 44.0738 252.769 43.1388 252.949 42.1941C253.668 38.3956 253.298 34.6264 252.32 30.8864ZM242.591 45.1841C242.571 45.2523 242.532 45.3205 242.462 45.3984C240.484 48.817 237.528 50.8136 233.513 51.2713V51.2616C231.145 51.8265 228.838 51.6414 226.601 50.6772C226.401 50.648 226.211 50.6285 226.012 50.5993C225.812 50.5116 225.612 50.4337 225.412 50.3461C222.087 48.6416 219.64 46.236 218.801 42.5252C217.692 39.4962 217.702 36.4672 218.771 33.4284C218.91 32.435 219.27 31.539 219.959 30.7695C220.279 29.7372 220.948 28.958 221.757 28.2665C221.777 28.2275 221.797 28.208 221.827 28.208C222.696 27.1269 223.725 26.2504 225.123 25.8705C228.279 24.0687 231.605 23.9129 235.041 24.9453C237.188 25.3056 238.936 26.3478 240.374 27.9061C242.362 29.6105 243.55 31.7435 244 34.2758C245.068 38.1229 244.659 41.7655 242.591 45.1841Z" fill="#EEEEEE"/>
</svg>
