<svg width="298" height="53" viewBox="0 0 298 53" fill="none" xmlns="http://www.w3.org/2000/svg">
<path d="M119.002 0.96257C122.279 0.140314 124.334 1.18068 126.233 3.75653C131.886 11.4002 137.842 18.8341 143.877 26.6035C145.203 24.9423 146.461 23.3984 147.683 21.8294C152.443 15.6961 157.186 9.5627 161.928 3.42094C164.226 0.442361 164.946 0.190619 168.995 1.02966C168.995 17.2818 168.995 33.5592 168.995 49.9959C166.151 49.9959 163.376 49.9959 160.307 49.9959C160.307 40.1037 160.307 30.2617 160.307 20.4114C160.142 20.3611 159.977 20.3108 159.804 20.2604C154.567 27.0063 149.322 33.7438 143.911 40.7078C138.51 33.7521 133.256 26.9811 127.62 19.7234C127.62 30.1275 127.62 40.0029 127.62 50.0127C124.594 50.0127 121.88 50.0127 119.01 50.0127C119.002 33.6934 119.002 17.349 119.002 0.96257Z" fill="#EEEEEE"/>
<path d="M215.06 0.912262C215.06 17.3238 215.06 33.5424 215.06 49.7526C211.643 50.793 210.187 50.34 208.184 47.7473C201.378 38.9291 194.563 30.1192 187.739 21.3177C187.445 20.9401 187.115 20.5961 186.5 19.8997C186.5 30.1443 186.5 39.9778 186.5 49.9875C183.517 49.9875 180.751 49.9875 177.864 49.9875C177.864 33.6347 177.864 17.307 177.864 0.937406C180.777 0.375251 182.884 0.777994 184.8 3.35384C191.693 12.6168 198.898 21.67 206.311 31.2267C206.311 20.8814 206.311 10.9891 206.311 0.920661C209.337 0.91227 212.094 0.912262 215.06 0.912262Z" fill="#EEEEEE"/>
<path d="M259.972 38.9037C262.096 37.7039 264.029 36.6299 265.937 35.5224C267.203 34.7924 267.983 35.1448 268.772 36.3111C271.971 41.0601 278.153 42.9982 283.789 41.1439C286.017 40.4056 287.569 39.0799 287.786 36.7222C288.011 34.3561 286.824 32.6361 284.621 31.7467C281.769 30.5973 278.83 29.6827 275.934 28.6423C274.052 27.9627 272.145 27.3166 270.307 26.5363C264.576 24.1115 261.766 21.049 261.949 14.2192C262.122 7.95162 265.772 3.54669 272.188 1.70081C280.685 -0.740792 289.581 1.77629 294.436 9.42831C294.766 9.94851 295.026 10.5107 295.39 11.1819C293.266 12.365 291.289 13.4893 289.286 14.5716C288.081 15.2177 287.352 14.622 286.607 13.6571C283.806 9.98211 279.662 8.56411 275.405 9.7052C272.934 10.368 271.425 11.8783 271.182 13.9256C270.914 16.191 271.859 18.1459 274.312 19.1276C278.76 20.9063 283.355 22.3411 287.838 24.036C291.956 25.5966 295.251 28.0466 296.465 32.4347C298.372 39.34 295.312 45.8426 288.454 48.5778C281.275 51.4389 274.087 51.1537 267.237 47.4115C263.804 45.5321 261.489 42.6626 259.972 38.9037Z" fill="#EEEEEE"/>
<path d="M245.007 50.0296C242.015 50.0296 239.31 50.0296 236.328 50.0296C236.328 46.665 236.041 43.3844 236.388 40.1709C237.16 33.081 235.209 26.9141 231.221 20.9318C227.024 14.6474 223.556 7.9015 219.533 0.945886C222.906 0.945886 225.941 0.878777 228.975 1.01302C229.426 1.0298 229.938 1.92755 230.25 2.50648C233.536 8.53077 236.778 14.5803 240.038 20.6213C240.229 20.9737 240.472 21.3009 240.827 21.8547C244.009 15.9562 247.243 10.3096 250.096 4.48665C251.431 1.75978 252.983 0.358572 256.235 0.853604C257.986 1.1221 259.815 0.903944 261.931 0.903944C261.463 1.77654 261.133 2.44775 260.76 3.08542C255.966 11.3248 251.206 19.5893 246.35 27.7951C245.388 29.4228 244.946 31.0337 244.981 32.9132C245.067 38.5431 245.007 44.1731 245.007 50.0296Z" fill="#EEEEEE"/>
<path d="M13.2759 35.4639C12.9117 36.1603 12.7557 36.4791 12.5909 36.7812C11.5418 38.7613 12.1401 39.7597 14.5157 39.7933C18.4087 39.8436 22.3016 39.8101 26.1946 39.8101C29.2205 39.8101 32.2551 39.8185 35.2811 39.8101C38.437 39.7933 39.0006 38.8368 37.4053 36.1603C34.1366 30.673 30.9719 25.1269 27.5125 19.7571C26.2986 17.8776 26.1339 16.4429 27.5385 14.7816C27.8073 14.4628 27.9807 14.0684 28.4142 13.3552C29.2899 14.2949 30.2263 15.0249 30.8072 15.973C34.6395 22.2574 38.4631 28.5586 42.1653 34.9185C44.775 39.4073 41.7924 44.257 36.4776 44.2822C28.9084 44.3241 21.3392 44.3325 13.7701 44.2738C9.84243 44.2486 6.99858 41.2952 7.25869 37.7293C7.3714 36.1939 7.91763 35.2373 9.77307 35.4555C10.8048 35.5646 11.88 35.4639 13.2759 35.4639Z" fill="#EEEEEE"/>
<path d="M12.7471 27.3251C16.1458 21.3847 19.3712 15.7463 22.6139 10.1164C23.5589 8.48027 24.504 6.83576 25.5184 5.24158C28.2235 0.970884 34.05 0.937339 36.7031 5.25838C40.596 11.5931 44.411 17.9698 48.1565 24.3884C50.1767 27.8453 48.6681 31.7971 45.0786 33.2655C43.9861 33.7101 43.3705 33.601 42.833 32.5606C42.2694 31.4615 41.5931 30.4127 40.8561 29.1625C41.5411 29.1122 41.9486 29.0954 42.3561 29.0535C44.2116 28.8521 44.7491 27.9711 43.8214 26.3853C41.3417 22.1482 38.8013 17.953 36.2869 13.741C35.1684 11.8784 34.0933 9.99056 32.9402 8.15307C31.709 6.18972 30.5038 6.17293 29.3247 8.19501C26.082 13.7662 22.8219 19.329 19.744 24.9842C18.7382 26.83 17.5504 27.7194 15.4002 27.3586C14.6892 27.2243 13.9522 27.3251 12.7471 27.3251Z" fill="#EEEEEE"/>
<path d="M21.3739 8.60626C19.3797 6.04719 18.53 6.07235 17.0474 8.53912C13.5879 14.3201 10.1285 20.1011 6.68638 25.8821C5.35116 28.1307 5.89738 29.0284 8.62852 29.0284C15.0445 29.0452 21.4692 29.1627 27.8852 28.9697C30.3303 28.8942 31.8476 29.5402 32.6886 31.7301C32.9053 32.2923 33.2521 32.8125 33.703 33.6599C31.5181 33.6599 29.6106 33.6599 27.6945 33.6599C21.2004 33.6599 14.7151 33.6767 8.22102 33.6515C2.31655 33.6263 -0.570653 28.8438 2.35991 23.8935C6.00143 17.735 9.66029 11.5848 13.3712 5.45986C15.4434 2.03659 19.4664 1.06331 22.6484 3.05183C23.7755 3.75662 24.1223 4.42785 23.2553 5.56894C22.579 6.46671 22.0761 7.46516 21.3739 8.60626Z" fill="#EEEEEE"/>
<path d="M49.3965 11.8616C49.3619 13.4809 48.0353 14.7479 46.3706 14.7647C44.6452 14.7814 43.2666 13.3719 43.336 11.6686C43.4054 10.0157 44.7059 8.8746 46.4573 8.92494C48.148 8.96689 49.4312 10.2506 49.3965 11.8616Z" fill="#EEEEEE"/>
<path d="M6.70396 11.8954C6.6606 13.4476 5.23001 14.7817 3.64334 14.7649C1.91796 14.7398 0.608742 13.3469 0.704115 11.6269C0.799488 9.94881 2.04801 8.85808 3.81675 8.91681C5.4641 8.97554 6.74731 10.3012 6.70396 11.8954Z" fill="#EEEEEE"/>
<path d="M25.1544 52.2193C23.4897 52.1941 22.1545 50.8768 22.1718 49.2575C22.1891 47.6549 23.559 46.3376 25.2151 46.346C26.8538 46.3544 28.241 47.7304 28.215 49.3162C28.189 50.9104 26.7844 52.236 25.1544 52.2193Z" fill="#EEEEEE"/>
<path d="M86.1324 0.928789C72.0431 0.962351 60.7891 11.7776 60.6504 25.4455C60.5117 39.0211 72.2946 50.432 86.3318 50.2894C100.447 50.1467 111.987 38.9036 111.805 25.4706C111.623 11.6517 100.369 0.895228 86.1324 0.928789ZM86.2711 41.5466C77.2366 41.555 69.7629 34.4064 69.6328 25.6552C69.5027 16.9628 77.202 9.52893 86.2884 9.58766C95.3402 9.638 102.849 16.8873 102.823 25.5713C102.797 34.2721 95.2708 41.5466 86.2711 41.5466Z" fill="#EEEEEE"/>
</svg>
