<svg width="298" height="73" viewBox="0 0 298 73" fill="none" xmlns="http://www.w3.org/2000/svg">
<path d="M13.414 55.2919C11.1286 54.1039 9.43944 52.5197 8.24709 50.3413C7.05474 48.1632 6.45857 45.6877 6.45857 42.8164L6.35921 28.7569H0V18.9546H6.45857V9.25147L19.5744 6.38013L19.4751 18.9546H33.1871V28.7569H19.3757L19.4751 40.6383C19.4751 41.9254 19.6738 43.1134 20.1706 43.9056C20.6674 44.7968 21.2636 45.4898 22.0585 45.8857C22.8534 46.3807 23.7477 46.579 24.7413 46.579C26.1324 46.579 27.424 46.2819 28.517 45.6877C29.6101 45.0936 30.7031 44.1035 31.7959 42.9155L34.9756 51.3314C33.4852 53.1135 31.4981 54.4998 29.1133 55.4899C26.7285 56.4799 24.1451 56.9752 21.5617 56.9752C18.3821 57.0741 15.6993 56.4799 13.414 55.2919Z" fill="#EEEEEE"/>
<path d="M41.3349 12.8154C39.9437 11.5283 39.2483 9.74606 39.2483 7.56782C39.2483 6.18164 39.5464 4.99351 40.1427 3.90437C40.7387 2.81525 41.633 1.92414 42.8253 1.33007C44.0178 0.736 45.3095 0.438965 46.7004 0.438965C48.986 0.438965 50.7745 1.13205 52.1654 2.4192C53.5565 3.70636 54.252 5.48857 54.252 7.56782C54.252 8.95398 53.9539 10.2411 53.3579 11.3303C52.7616 12.4194 51.8672 13.3105 50.675 13.9046C49.4828 14.4986 48.191 14.7957 46.7004 14.7957C44.5146 14.7957 42.7261 14.1026 41.3349 12.8154ZM40.2419 18.9542H53.2584V55.6877H40.2419V18.9542Z" fill="#EEEEEE"/>
<path d="M91.8092 19.4493C93.4985 20.3404 94.7902 21.7265 95.7838 23.5088C96.6781 25.291 97.1749 27.3702 97.1749 29.8454V55.6874H84.0589V34.0039C84.0589 32.3208 83.6616 31.0337 82.7672 30.0436C81.9723 29.1524 80.78 28.6574 79.2897 28.6574C78.0972 28.6574 77.1036 28.9544 76.2092 29.4495C75.3151 29.9445 74.6196 30.7366 74.0234 31.7267C73.5266 32.7168 73.2285 33.9051 73.2285 35.2911V55.5886H60.2119V18.9542H71.0424L73.129 25.786H73.2285C74.5202 23.3107 76.2092 21.4295 78.2958 20.0433C80.3825 18.6572 82.8667 17.9641 85.5493 17.9641C88.0335 18.0631 90.1201 18.5582 91.8092 19.4493Z" fill="#EEEEEE"/>
<path d="M111.386 71.3299C109.101 70.8348 107.014 70.2407 105.126 69.3497C103.238 68.4585 101.648 67.4684 100.357 66.2801L104.43 56.6762C105.424 57.6663 106.617 58.4584 108.008 59.1514C109.399 59.8444 110.889 60.3394 112.38 60.7356C113.87 61.1315 115.46 61.3298 117.05 61.3298C119.136 61.3298 121.024 60.9336 122.614 60.2406C124.204 59.5476 125.396 58.4584 126.29 57.0721C127.185 55.6859 127.582 54.0028 127.582 52.2206V49.1513H127.483C126.29 51.5274 124.8 53.4087 122.813 54.6958C120.825 55.983 118.64 56.6762 116.255 56.6762C113.572 56.6762 111.287 56.0821 109.498 54.9929C107.71 53.9037 106.219 52.3195 105.126 50.2402C104.033 48.161 103.536 45.7849 103.536 43.0124V18.9526H116.652V40.2401C116.652 41.4284 116.851 42.5174 117.248 43.4086C117.646 44.2995 118.242 44.9928 118.937 45.4878C119.633 45.9829 120.527 46.1808 121.521 46.1808C122.614 46.1808 123.508 45.8838 124.502 45.3887C125.396 44.8937 126.092 44.2007 126.688 43.2106C127.185 42.2203 127.483 41.1314 127.483 39.9431V18.9526H140.499V52.7157C140.499 56.5771 139.605 60.0426 137.717 62.9137C135.929 65.7851 133.246 68.0626 129.867 69.6465C126.489 71.2307 122.515 72.0229 118.142 72.0229C115.957 72.0229 113.572 71.8249 111.386 71.3299Z" fill="#EEEEEE"/>
<path d="M147.354 18.9478H157.688L159.675 25.9776H159.774C160.768 23.5023 162.358 21.5221 164.643 20.1359C166.928 18.7497 169.412 18.0566 172.095 18.0566C174.877 18.0566 177.262 18.7497 179.05 20.1359C180.839 21.5221 182.23 23.5023 182.926 26.1756H183.025C184.217 23.5023 186.006 21.5221 188.291 20.1359C190.576 18.7497 193.06 18.0566 195.843 18.0566C198.128 18.0566 200.115 18.5517 201.805 19.5418C203.494 20.532 204.785 22.0171 205.58 23.9974C206.475 25.9776 206.872 28.255 206.872 30.8293V55.681H193.955L193.855 33.9975C193.855 32.3144 193.458 31.0272 192.564 30.2351C191.769 29.3439 190.576 28.948 189.185 28.948C187.993 28.948 187.099 29.2451 186.205 29.7401C185.41 30.2351 184.714 31.0272 184.317 32.0173C183.919 33.0074 183.72 34.1957 183.72 35.4828L183.621 55.681H170.605V33.9975C170.605 32.3144 170.207 31.0272 169.412 30.2351C168.617 29.3439 167.425 28.948 165.935 28.948C164.146 28.948 162.755 29.5421 161.861 30.7302C160.867 31.9182 160.37 33.5024 160.37 35.4828V55.681H147.254V18.9478H147.354Z" fill="#EEEEEE"/>
<path d="M218.002 55.2962C216.114 54.4052 214.524 53.2169 213.53 51.6327C212.437 50.0485 211.94 48.2663 211.94 46.187C211.94 42.9198 213.332 40.2463 216.114 38.0682C218.896 35.989 222.87 34.6027 228.037 34.1077L234.297 33.5135C235.092 33.4147 235.688 33.1176 236.284 32.6226C236.88 32.1275 237.079 31.5334 237.079 30.7413C237.079 29.9492 236.88 29.2562 236.483 28.662C236.086 28.0679 235.49 27.5728 234.695 27.2758C233.9 26.8798 233.105 26.7808 232.111 26.7808C230.919 26.7808 229.925 27.0778 229.031 27.5728C228.137 28.0679 227.441 28.7611 226.944 29.7512C226.448 30.6422 226.05 31.7314 225.951 32.8205L213.332 31.1375C213.53 28.5629 214.425 26.1868 215.915 24.1075C217.505 22.0283 219.591 20.4441 222.274 19.256C224.957 18.1668 228.137 17.5728 231.714 17.5728C235.39 17.5728 238.57 18.1668 241.352 19.454C244.134 20.7411 246.221 22.5233 247.612 24.8006C249.102 27.0778 249.798 29.7512 249.798 32.8205V45.5932C249.798 46.3853 249.996 46.9791 250.295 47.4742C250.593 47.8704 251.09 48.0683 251.686 48.0683C252.083 48.0683 252.48 47.9692 252.977 47.7713C253.474 47.5733 253.971 47.2762 254.368 46.7812L256.753 53.514C255.561 54.5041 254.07 55.2962 252.282 55.8903C250.493 56.4842 248.605 56.7813 246.817 56.7813C245.227 56.7813 243.737 56.4842 242.345 55.9892C241.054 55.3953 239.861 54.702 238.967 53.8111C238.073 52.9198 237.477 51.8307 237.278 50.6426L237.179 49.7517H237.079C236.284 51.1377 235.291 52.4248 233.999 53.4149C232.807 54.5041 231.316 55.2962 229.726 55.8903C228.037 56.4842 226.348 56.7813 224.46 56.7813C222.075 56.5833 219.989 56.1874 218.002 55.2962ZM233.403 47.0783C234.496 46.4841 235.291 45.692 235.788 44.7019C236.384 43.6127 236.682 42.5236 236.682 41.2364V40.0484L231.416 40.5434C229.13 40.7414 227.54 41.2364 226.547 41.9297C225.553 42.6227 225.056 43.5139 225.056 44.6028C225.056 45.5932 225.454 46.3853 226.348 46.9791C227.242 47.5733 228.435 47.8704 229.925 47.8704C231.217 47.9692 232.409 47.6724 233.403 47.0783Z" fill="#EEEEEE"/>
<path d="M292.621 19.4493C294.311 20.3404 295.602 21.7265 296.597 23.5088C297.491 25.291 297.988 27.3702 297.988 29.8454V55.6874H284.873V34.0039C284.873 32.3208 284.473 31.0337 283.579 30.0436C282.786 29.1524 281.593 28.6574 280.103 28.6574C278.91 28.6574 277.916 28.9544 277.022 29.4495C276.127 29.9445 275.432 30.7366 274.836 31.7267C274.339 32.7168 274.04 33.9051 274.04 35.2911V55.5886H260.925V18.9542H271.755L273.842 25.786H273.942C275.233 23.3107 276.924 21.4295 279.008 20.0433C281.095 18.6572 283.579 17.9641 286.262 17.9641C288.846 18.0631 290.833 18.5582 292.621 19.4493Z" fill="#EEEEEE"/>
</svg>
