<svg width="299" height="129" viewBox="0 0 299 129" fill="none" xmlns="http://www.w3.org/2000/svg">
<path d="M135.615 51.6688C136.012 51.5504 136.626 51.4321 137.458 51.3138C138.329 51.1955 139.221 51.1363 140.132 51.1363C141.004 51.1363 141.776 51.1955 142.45 51.3138C143.163 51.4321 143.757 51.6688 144.233 52.0237C144.708 52.3787 145.065 52.8717 145.303 53.5028C145.58 54.0944 145.719 54.8832 145.719 55.8693V68.5892C145.719 70.2063 146.115 71.3698 146.907 72.0798C147.7 72.7503 148.848 73.0855 150.354 73.0855C151.265 73.0855 151.998 73.0066 152.553 72.8489C153.147 72.6911 153.603 72.5333 153.92 72.3756V51.6688C154.316 51.5504 154.93 51.4321 155.762 51.3138C156.634 51.1955 157.525 51.1363 158.436 51.1363C159.308 51.1363 160.081 51.1955 160.754 51.3138C161.467 51.4321 162.062 51.6688 162.537 52.0237C163.013 52.3787 163.369 52.8717 163.607 53.5028C163.884 54.0944 164.023 54.8832 164.023 55.8693V73.8546C164.023 75.8267 163.191 77.3058 161.527 78.2918C160.14 79.1595 158.476 79.8103 156.535 80.2442C154.633 80.7174 152.553 80.9541 150.295 80.9541C148.155 80.9541 146.174 80.7174 144.352 80.2442C142.569 79.7709 141.024 79.0412 139.716 78.0551C138.409 77.0691 137.398 75.807 136.685 74.2688C135.972 72.6911 135.615 70.7979 135.615 68.5892V51.6688ZM188.51 61.7855C188.51 60.5628 188.153 59.6754 187.44 59.1232C186.767 58.5316 185.836 58.2358 184.647 58.2358C183.855 58.2358 183.062 58.3344 182.27 58.5316C181.517 58.7288 180.863 59.0246 180.309 59.419V79.9483C179.912 80.0667 179.278 80.185 178.407 80.3033C177.575 80.4216 176.703 80.4808 175.792 80.4808C174.92 80.4808 174.128 80.4216 173.415 80.3033C172.741 80.185 172.167 79.9483 171.691 79.5934C171.216 79.2384 170.839 78.7651 170.562 78.1735C170.324 77.5424 170.206 76.7339 170.206 75.7478V57.9991C170.206 56.9342 170.423 56.0665 170.859 55.396C171.335 54.7255 171.969 54.1141 172.761 53.562C174.108 52.6154 175.792 51.8463 177.813 51.2546C179.873 50.663 182.151 50.3672 184.647 50.3672C189.124 50.3672 192.571 51.3532 194.988 53.3253C197.405 55.2579 198.613 57.9597 198.613 61.4305V79.9483C198.217 80.0667 197.583 80.185 196.711 80.3033C195.879 80.4216 195.008 80.4808 194.096 80.4808C193.225 80.4808 192.432 80.4216 191.719 80.3033C191.046 80.185 190.471 79.9483 189.996 79.5934C189.52 79.2384 189.144 78.7651 188.866 78.1735C188.629 77.5424 188.51 76.7339 188.51 75.7478V61.7855ZM204.615 43.2677C204.615 41.7689 205.111 40.5068 206.101 39.4813C207.131 38.4559 208.478 37.9431 210.142 37.9431C211.806 37.9431 213.134 38.4559 214.124 39.4813C215.154 40.5068 215.669 41.7689 215.669 43.2677C215.669 44.7665 215.154 46.0286 214.124 47.0541C213.134 48.0796 211.806 48.5923 210.142 48.5923C208.478 48.5923 207.131 48.0796 206.101 47.0541C205.111 46.0286 204.615 44.7665 204.615 43.2677ZM215.194 79.9483C214.758 80.0272 214.104 80.1258 213.233 80.2442C212.401 80.4019 211.549 80.4808 210.677 80.4808C209.806 80.4808 209.013 80.4216 208.3 80.3033C207.626 80.185 207.052 79.9483 206.577 79.5934C206.101 79.2384 205.725 78.7651 205.447 78.1735C205.21 77.5424 205.091 76.7339 205.091 75.7478V51.6688C205.527 51.5899 206.161 51.4913 206.993 51.373C207.864 51.2152 208.736 51.1363 209.607 51.1363C210.479 51.1363 211.252 51.1955 211.925 51.3138C212.638 51.4321 213.233 51.6688 213.708 52.0237C214.184 52.3787 214.54 52.8717 214.778 53.5028C215.055 54.0944 215.194 54.8832 215.194 55.8693V79.9483ZM221.745 51.2546C221.745 49.2431 222.082 47.5274 222.755 46.1075C223.468 44.6482 224.419 43.4649 225.608 42.5578C226.797 41.6112 228.183 40.921 229.768 40.4871C231.392 40.0532 233.116 39.8363 234.938 39.8363C237.87 39.8363 240.03 40.2307 241.416 41.0196C242.803 41.7689 243.496 43.0705 243.496 44.9243C243.496 45.7131 243.318 46.423 242.961 47.0541C242.644 47.6852 242.288 48.1585 241.892 48.474C241.139 48.2768 240.346 48.119 239.514 48.0007C238.722 47.8429 237.791 47.7641 236.721 47.7641C235.018 47.7641 233.69 48.0599 232.739 48.6515C231.789 49.2037 231.313 50.1897 231.313 51.6096V53.5028H241.06C241.297 53.9367 241.515 54.4888 241.713 55.1593C241.951 55.7904 242.07 56.5004 242.07 57.2892C242.07 58.6696 241.753 59.6754 241.119 60.3065C240.525 60.8981 239.713 61.1939 238.682 61.1939H231.848V79.9483C231.452 80.0667 230.818 80.185 229.946 80.3033C229.114 80.4216 228.243 80.4808 227.331 80.4808C226.46 80.4808 225.667 80.4216 224.954 80.3033C224.281 80.185 223.706 79.9483 223.231 79.5934C222.755 79.2384 222.379 78.7651 222.102 78.1735C221.864 77.5424 221.745 76.7339 221.745 75.7478V51.2546ZM256.975 70.1274C256.975 71.1529 257.292 71.8825 257.926 72.3164C258.599 72.7503 259.53 72.9672 260.719 72.9672C261.313 72.9672 261.927 72.9277 262.561 72.8489C263.195 72.7305 263.75 72.5925 264.225 72.4347C264.582 72.8686 264.879 73.3616 265.117 73.9138C265.394 74.4265 265.533 75.0576 265.533 75.807C265.533 77.3058 264.958 78.5284 263.809 79.475C262.7 80.4216 260.719 80.8949 257.866 80.8949C254.38 80.8949 251.686 80.1061 249.784 78.5284C247.922 76.9508 246.991 74.3871 246.991 70.8373V45.5159C247.427 45.3976 248.041 45.2792 248.833 45.1609C249.665 45.0032 250.537 44.9243 251.448 44.9243C253.191 44.9243 254.538 45.2398 255.489 45.8709C256.48 46.4625 256.975 47.7443 256.975 49.7164V53.5028H264.76C264.998 53.9367 265.216 54.4888 265.414 55.1593C265.652 55.7904 265.77 56.5004 265.77 57.2892C265.77 58.6696 265.454 59.6754 264.82 60.3065C264.225 60.8981 263.413 61.1939 262.383 61.1939H256.975V70.1274ZM275.184 72.6714C274.748 71.6853 274.273 70.581 273.758 69.3583C273.282 68.1356 272.767 66.7354 272.213 65.1578C271.698 63.5801 271.143 61.7855 270.549 59.774C269.994 57.723 269.4 55.3763 268.766 52.7337C269.32 52.1815 270.053 51.7082 270.965 51.3138C271.916 50.8799 272.946 50.663 274.055 50.663C275.442 50.663 276.591 50.9588 277.502 51.5504C278.413 52.1026 279.087 53.1675 279.523 54.7452L284.217 71.0148H284.455C284.931 69.6738 285.386 68.2145 285.822 66.6368C286.298 65.0592 286.753 63.4421 287.189 61.7855C287.625 60.0895 288.021 58.4133 288.378 56.7567C288.774 55.0607 289.111 53.4042 289.388 51.7871C290.814 51.0377 292.379 50.663 294.083 50.663C295.469 50.663 296.618 50.9588 297.53 51.5504C298.441 52.1421 298.897 53.1675 298.897 54.6269C298.897 55.6918 298.758 56.9342 298.481 58.3541C298.203 59.7346 297.827 61.2136 297.351 62.7913C296.916 64.3689 296.381 66.0058 295.747 67.7017C295.153 69.3583 294.519 70.9951 293.845 72.6122C293.172 74.2293 292.478 75.7675 291.765 77.2269C291.052 78.6468 290.359 79.9286 289.685 81.0724C288.576 83.0051 287.546 84.5827 286.595 85.8054C285.644 87.0281 284.733 87.9747 283.861 88.6452C282.989 89.3551 282.118 89.8284 281.246 90.0651C280.374 90.3412 279.463 90.4792 278.512 90.4792C276.848 90.4792 275.501 89.9862 274.471 89.0002C273.441 88.0141 272.827 86.7323 272.629 85.1546C273.897 84.1686 275.164 83.0642 276.432 81.8415C277.7 80.6583 278.849 79.4356 279.879 78.1735C279.206 77.9763 278.473 77.5227 277.68 76.8127C276.927 76.0634 276.095 74.6829 275.184 72.6714Z" fill="#EEEEEE"/>
<path fill-rule="evenodd" clip-rule="evenodd" d="M102.441 66.6399V27.7172H87.5068C85.552 27.6879 83.6109 28.0467 81.797 28.7727C79.983 29.4987 78.3327 30.5773 76.9423 31.9455C75.5519 33.3138 74.4494 34.9441 73.6992 36.7414C72.949 38.5386 72.5661 40.4667 72.573 42.4129V66.6399C72.573 72.4353 73.1224 76.5614 68.1378 81.3285C65.3459 84.1206 61.5565 85.6979 57.5991 85.7152C58.3059 92.5062 59.7051 95.6368 64.6869 98.4967C68.6064 100.412 73.043 101.014 77.3344 100.213C88.6929 98.4084 103.432 89.9368 102.441 66.6399Z" fill="#EEEEEE"/>
<path d="M57.6005 43.2575C57.6005 41.1928 57.192 39.1483 56.3983 37.2407C55.6046 35.3332 54.4412 33.5999 52.9746 32.14C51.5081 30.68 49.767 29.5219 47.8508 28.7317C45.9346 27.9416 43.8809 27.5349 41.8068 27.5349H28.0906V56.5318C28.0898 60.3901 28.8526 64.2108 30.3352 67.7757C31.8179 71.3405 33.9915 74.5797 36.7318 77.3082C39.4721 80.0368 42.7255 82.2012 46.3062 83.6779C49.8869 85.1546 53.7247 85.9146 57.6005 85.9146V43.2575Z" fill="#EEEEEE"/>
</svg>
