<svg width="339" height="94" viewBox="0 0 339 94" fill="none" xmlns="http://www.w3.org/2000/svg">
<mask id="mask0_0_434" style="mask-type:alpha" maskUnits="userSpaceOnUse" x="0" y="0" width="339" height="94">
<path d="M0.814453 0.126953H338.757V93.3524H0.814453V0.126953Z" fill="white"/>
</mask>
<g mask="url(#mask0_0_434)">
<path d="M84.3664 82.2736H76.3269V39.112H78.2564L81.443 42.8766C82.1641 42.1957 82.9534 41.5536 83.811 40.9505C84.6685 40.3474 85.5553 39.8318 86.4713 39.4038C87.4068 38.9563 88.3716 38.6062 89.3656 38.3532C90.3595 38.1003 91.3633 37.9739 92.3767 37.9739C94.5791 37.9739 96.645 38.3727 98.5745 39.1704C100.523 39.9486 102.219 41.0575 103.661 42.4972C105.123 43.9369 106.273 45.6782 107.111 47.721C107.949 49.7443 108.368 51.9914 108.368 54.4622C108.368 57.0303 107.949 59.3455 107.111 61.4078C106.273 63.4506 105.123 65.1919 103.661 66.6316C102.219 68.0518 100.523 69.1413 98.5745 69.9001C96.645 70.6588 94.5791 71.0382 92.3767 71.0382C91.6751 71.0382 90.9735 70.9604 90.2718 70.8047C89.5897 70.6491 88.9076 70.4448 88.2254 70.1919C87.5628 69.9195 86.9001 69.618 86.2375 69.2872C85.5943 68.9565 84.9706 68.616 84.3664 68.2658V82.2736ZM100.358 54.4622C100.358 53.1393 100.143 51.9525 99.7146 50.9019C99.3054 49.8513 98.7402 48.9661 98.019 48.2463C97.2979 47.507 96.4501 46.9428 95.4756 46.5537C94.5011 46.1645 93.4682 45.97 92.3767 45.97C91.2853 45.97 90.2524 46.1645 89.2779 46.5537C88.3229 46.9428 87.4848 47.507 86.7637 48.2463C86.0426 48.9661 85.4676 49.8513 85.0388 50.9019C84.6296 51.9525 84.4249 53.1393 84.4249 54.4622C84.4249 55.7268 84.6296 56.8844 85.0388 57.935C85.4676 58.9856 86.0426 59.8806 86.7637 60.6199C87.4848 61.3592 88.3229 61.9331 89.2779 62.3417C90.2524 62.7502 91.2853 62.9545 92.3767 62.9545C93.4682 62.9545 94.5011 62.7502 95.4756 62.3417C96.4501 61.9331 97.2979 61.3592 98.019 60.6199C98.7402 59.8806 99.3054 58.9856 99.7146 57.935C100.143 56.8844 100.358 55.7268 100.358 54.4622Z" fill="#EEEEEE"/>
<path d="M125.266 62.721C125.578 62.8183 125.889 62.8864 126.201 62.9253C126.513 62.9448 126.825 62.9545 127.137 62.9545C127.916 62.9545 128.667 62.8475 129.388 62.6335C130.109 62.4195 130.781 62.1179 131.405 61.7288C132.048 61.3203 132.613 60.8339 133.101 60.2697C133.607 59.686 134.017 59.044 134.328 58.3436L140.175 64.2094C139.435 65.26 138.577 66.2035 137.603 67.0401C136.648 67.8767 135.605 68.5868 134.475 69.1705C133.364 69.7541 132.185 70.1919 130.937 70.4837C129.709 70.795 128.443 70.9506 127.137 70.9506C124.934 70.9506 122.859 70.5421 120.91 69.725C118.98 68.9078 117.285 67.7697 115.823 66.3105C114.381 64.8514 113.241 63.1199 112.402 61.116C111.564 59.0926 111.145 56.8747 111.145 54.4622C111.145 51.9914 111.564 49.7346 112.402 47.6918C113.241 45.649 114.381 43.9077 115.823 42.468C117.285 41.0283 118.98 39.9097 120.91 39.112C122.859 38.3143 124.934 37.9155 127.137 37.9155C128.443 37.9155 129.719 38.0711 130.967 38.3824C132.214 38.6937 133.393 39.1412 134.504 39.7248C135.634 40.3085 136.687 41.0283 137.661 41.8844C138.636 42.721 139.493 43.6645 140.234 44.7151L125.266 62.721ZM129.359 46.291C128.988 46.1548 128.618 46.0673 128.248 46.0284C127.897 45.9895 127.527 45.97 127.137 45.97C126.045 45.97 125.012 46.1743 124.038 46.5828C123.083 46.9719 122.245 47.5361 121.524 48.2755C120.822 49.0148 120.267 49.9097 119.857 50.9603C119.448 51.9914 119.243 53.1587 119.243 54.4622C119.243 54.7541 119.253 55.0848 119.273 55.4545C119.312 55.8241 119.36 56.2035 119.419 56.5926C119.497 56.9623 119.584 57.3222 119.682 57.6724C119.779 58.0226 119.906 58.3339 120.062 58.6062L129.359 46.291Z" fill="#EEEEEE"/>
<path d="M152.249 70.367H144.268V39.112H146.198L148.829 42.147C150.115 40.9797 151.567 40.0848 153.185 39.4622C154.822 38.8202 156.527 38.4991 158.301 38.4991C160.211 38.4991 162.014 38.8688 163.709 39.6081C165.405 40.3279 166.886 41.3299 168.153 42.614C169.42 43.8785 170.414 45.3669 171.135 47.0789C171.876 48.7716 172.246 50.5809 172.246 52.507V70.367H164.265V52.507C164.265 51.6899 164.109 50.9214 163.797 50.2015C163.485 49.4622 163.056 48.8202 162.511 48.2755C161.965 47.7307 161.332 47.3027 160.61 46.9914C159.889 46.6801 159.12 46.5245 158.301 46.5245C157.463 46.5245 156.674 46.6801 155.933 46.9914C155.192 47.3027 154.549 47.7307 154.003 48.2755C153.458 48.8202 153.029 49.4622 152.717 50.2015C152.405 50.9214 152.249 51.6899 152.249 52.507V70.367Z" fill="#EEEEEE"/>
<path d="M187.623 70.367H179.642V47.0498H175.754V39.112H179.642V37.6237C179.642 35.6976 180.003 33.8882 180.724 32.1956C181.465 30.503 182.468 29.0341 183.735 27.789C185.021 26.5244 186.512 25.5322 188.208 24.8123C189.904 24.073 191.716 23.7034 193.646 23.7034H199.639V31.6411H193.646C192.788 31.6411 191.989 31.7968 191.248 32.1081C190.527 32.3999 189.894 32.8182 189.348 33.3629C188.822 33.8882 188.403 34.5205 188.091 35.2598C187.779 35.9797 187.623 36.7676 187.623 37.6237V39.112H197.417V47.0498H187.623V70.367Z" fill="#EEEEEE"/>
<path d="M230.949 70.367H229.02L225.921 66.0771C225.161 66.758 224.352 67.4 223.494 68.0032C222.656 68.5868 221.769 69.1024 220.834 69.5499C219.898 69.9779 218.934 70.3183 217.94 70.5713C216.965 70.8242 215.971 70.9506 214.958 70.9506C212.755 70.9506 210.68 70.581 208.731 69.8417C206.801 69.1024 205.106 68.0323 203.644 66.6316C202.202 65.2113 201.062 63.4798 200.223 61.437C199.385 59.3942 198.966 57.0693 198.966 54.4622C198.966 52.0303 199.385 49.8027 200.223 47.7793C201.062 45.7365 202.202 43.9856 203.644 42.5264C205.106 41.0673 206.801 39.9388 208.731 39.1412C210.68 38.324 212.755 37.9155 214.958 37.9155C215.971 37.9155 216.975 38.0419 217.969 38.2949C218.963 38.5478 219.928 38.898 220.863 39.3455C221.799 39.7929 222.685 40.3182 223.523 40.9213C224.381 41.5245 225.18 42.1762 225.921 42.8766L229.02 39.1704H230.949V70.367ZM222.91 54.4622C222.91 53.3727 222.695 52.3222 222.266 51.3105C221.857 50.2794 221.292 49.3747 220.571 48.5965C219.85 47.7988 219.002 47.1665 218.027 46.6996C217.072 46.2132 216.049 45.97 214.958 45.97C213.866 45.97 212.833 46.1548 211.859 46.5245C210.904 46.8941 210.066 47.4389 209.345 48.1587C208.643 48.8786 208.088 49.7735 207.678 50.8436C207.269 51.8941 207.064 53.1004 207.064 54.4622C207.064 55.8241 207.269 57.0401 207.678 58.1101C208.088 59.1607 208.643 60.0459 209.345 60.7658C210.066 61.4856 210.904 62.0304 211.859 62.4C212.833 62.7697 213.866 62.9545 214.958 62.9545C216.049 62.9545 217.072 62.721 218.027 62.2541C219.002 61.7677 219.85 61.1354 220.571 60.3572C221.292 59.5595 221.857 58.6549 222.266 57.6432C222.695 56.6121 222.91 55.5517 222.91 54.4622Z" fill="#EEEEEE"/>
<path d="M268.399 54.4622C268.399 56.9136 267.98 59.151 267.142 61.1743C266.304 63.1977 265.163 64.9389 263.721 66.3981C262.279 67.8378 260.583 68.9565 258.634 69.7541C256.705 70.5518 254.629 70.9506 252.407 70.9506C250.205 70.9506 248.129 70.5421 246.18 69.725C244.251 68.9078 242.555 67.7697 241.094 66.3105C239.651 64.8514 238.511 63.1199 237.673 61.116C236.835 59.0926 236.416 56.8747 236.416 54.4622V26.68H244.426V41.2715C244.855 40.7268 245.372 40.2404 245.976 39.8124C246.599 39.3844 247.262 39.0342 247.964 38.7618C248.685 38.4894 249.425 38.2851 250.186 38.149C250.946 37.9933 251.686 37.9155 252.407 37.9155C254.629 37.9155 256.705 38.3338 258.634 39.1704C260.583 39.9875 262.279 41.1353 263.721 42.614C265.163 44.0926 266.304 45.8435 267.142 47.8669C267.98 49.8708 268.399 52.0692 268.399 54.4622ZM260.359 54.4622C260.359 53.256 260.145 52.1373 259.716 51.1062C259.307 50.0556 258.742 49.1509 258.02 48.3922C257.299 47.6334 256.451 47.04 255.477 46.612C254.522 46.184 253.499 45.97 252.407 45.97C251.316 45.97 250.283 46.2132 249.308 46.6996C248.353 47.1665 247.515 47.7988 246.794 48.5965C246.073 49.3747 245.508 50.2794 245.099 51.3105C244.689 52.3222 244.485 53.3727 244.485 54.4622C244.485 55.6685 244.689 56.7872 245.099 57.8183C245.508 58.8494 246.073 59.7444 246.794 60.5031C247.515 61.2619 248.353 61.865 249.308 62.3125C250.283 62.7405 251.316 62.9545 252.407 62.9545C253.499 62.9545 254.522 62.7405 255.477 62.3125C256.451 61.865 257.299 61.2619 258.02 60.5031C258.742 59.7444 259.307 58.8494 259.716 57.8183C260.145 56.7872 260.359 55.6685 260.359 54.4622Z" fill="#EEEEEE"/>
<path d="M280.823 70.367H272.842V39.112H274.772L277.403 42.8182C278.689 41.6509 280.151 40.756 281.788 40.1334C283.425 39.4914 285.121 39.1704 286.875 39.1704H293.921V47.1081H286.875C286.037 47.1081 285.248 47.2638 284.507 47.5751C283.766 47.8863 283.123 48.3144 282.578 48.8591C282.032 49.4039 281.603 50.0459 281.291 50.7852C280.979 51.5245 280.823 52.3124 280.823 53.149V70.367Z" fill="#EEEEEE"/>
<path d="M307.047 30.6197C307.047 31.359 306.901 32.0497 306.608 32.6917C306.336 33.3338 305.956 33.898 305.468 34.3843C304.981 34.8513 304.406 35.2307 303.743 35.5225C303.1 35.7949 302.408 35.931 301.668 35.931C300.927 35.931 300.226 35.7949 299.563 35.5225C298.92 35.2307 298.355 34.8513 297.867 34.3843C297.4 33.898 297.019 33.3338 296.727 32.6917C296.454 32.0497 296.318 31.359 296.318 30.6197C296.318 29.8999 296.454 29.219 296.727 28.5769C297.019 27.9154 297.4 27.3512 297.867 26.8843C298.355 26.3979 298.92 26.0186 299.563 25.7462C300.226 25.4543 300.927 25.3084 301.668 25.3084C302.408 25.3084 303.1 25.4543 303.743 25.7462C304.406 26.0186 304.981 26.3979 305.468 26.8843C305.956 27.3512 306.336 27.9154 306.608 28.5769C306.901 29.219 307.047 29.8999 307.047 30.6197ZM305.673 70.367H297.633V39.112H305.673V70.367Z" fill="#EEEEEE"/>
<path d="M339.147 45.328L333.3 51.1938C333.007 50.3766 332.608 49.6471 332.101 49.005C331.594 48.3435 331.019 47.7891 330.376 47.3416C329.753 46.8941 329.07 46.5537 328.33 46.3202C327.589 46.0867 326.829 45.97 326.049 45.97C324.958 45.97 323.925 46.1937 322.951 46.6412C321.996 47.0887 321.158 47.721 320.436 48.5381C319.735 49.3358 319.179 50.2891 318.77 51.398C318.361 52.507 318.156 53.7327 318.156 55.0751C318.156 56.1646 318.361 57.186 318.77 58.1393C319.179 59.0926 319.735 59.9292 320.436 60.649C321.158 61.3689 321.996 61.9331 322.951 62.3417C323.925 62.7502 324.958 62.9545 326.049 62.9545C326.829 62.9545 327.579 62.8475 328.301 62.6335C329.022 62.4195 329.694 62.1179 330.318 61.7288C330.961 61.3203 331.526 60.8339 332.013 60.2697C332.52 59.686 332.929 59.044 333.241 58.3436L339.088 64.2094C338.348 65.26 337.49 66.2035 336.516 67.0401C335.561 67.8767 334.518 68.5868 333.387 69.1705C332.277 69.7541 331.097 70.1919 329.85 70.4837C328.622 70.795 327.355 70.9506 326.049 70.9506C323.847 70.9506 321.771 70.5421 319.823 69.725C317.893 68.8884 316.197 67.7502 314.736 66.3105C313.293 64.8708 312.153 63.188 311.315 61.2619C310.477 59.3358 310.058 57.2735 310.058 55.0751C310.058 52.6821 310.477 50.4447 311.315 48.363C312.153 46.2813 313.293 44.4719 314.736 42.935C316.197 41.3785 317.893 40.1529 319.823 39.2579C321.771 38.363 323.847 37.9155 326.049 37.9155C327.355 37.9155 328.632 38.0809 329.879 38.4116C331.146 38.7423 332.345 39.2287 333.475 39.8708C334.625 40.4933 335.677 41.2618 336.632 42.1762C337.607 43.0906 338.445 44.1412 339.147 45.328Z" fill="#EEEEEE"/>
<path fill-rule="evenodd" clip-rule="evenodd" d="M18.6957 17.7723C20.9627 15.5324 23.4884 13.5531 26.2281 11.8905C32.3775 8.15921 39.5905 6.00873 47.2975 6.00873C55.0042 6.00851 62.2172 8.15921 68.3664 11.8905C71.1064 13.5531 73.632 15.5322 75.899 17.7723C77.7196 19.5713 79.3692 21.5412 80.8262 23.6541C81.7842 25.0434 82.656 26.4954 83.437 28.0021C83.9324 28.9577 84.9438 29.5361 86.0219 29.5361C88.2121 29.5361 89.6626 27.218 88.6539 25.2775C88.3691 24.73 88.0741 24.1888 87.7682 23.6541C86.5878 21.5894 85.2549 19.6242 83.7823 17.7723C82.0986 15.655 80.2383 13.6857 78.2169 11.8905C75.6869 9.64349 72.9119 7.66863 69.9356 6.00851C63.2289 2.26825 55.5107 0.126953 47.2975 0.126953C39.0843 0.126953 31.3659 2.26825 24.6591 6.00873C21.6828 7.66863 18.9076 9.64349 16.3776 11.8905C14.3564 13.6857 12.4959 15.655 10.8124 17.7723C9.33986 19.6244 8.00667 21.5894 6.8263 23.6541C6.52066 24.1888 6.22535 24.73 5.9408 25.2775C4.9321 27.2183 6.38243 29.5361 8.57262 29.5361H8.57284C9.65066 29.5361 10.6621 28.9579 11.1575 28.0021C11.9385 26.4954 12.8105 25.0434 13.7683 23.6541C15.2253 21.5412 16.8749 19.5713 18.6957 17.7723Z" fill="#EEEEEE"/>
<path fill-rule="evenodd" clip-rule="evenodd" d="M17.0173 35.418C18.1555 35.418 19.192 34.7632 19.6743 33.7339C20.3612 32.2675 21.1603 30.8636 22.0651 29.5362C23.5518 27.355 25.3183 25.3811 27.3065 23.6544C30.2783 21.0732 33.7519 19.0575 37.562 17.7726C40.6218 16.7406 43.8939 16.1723 47.2981 16.1723C50.7025 16.1723 53.9748 16.7404 57.0348 17.7726C60.8452 19.0575 64.3187 21.0729 67.2903 23.6542C69.2783 25.3811 71.0448 27.355 72.5315 29.5362C73.4363 30.8634 74.2354 32.2673 74.9223 33.7339C75.4043 34.7632 76.4408 35.418 77.579 35.418C79.7203 35.418 81.1773 33.1965 80.2701 31.2601C79.9965 30.6768 79.7079 30.102 79.4045 29.5362C78.2839 27.4457 76.9659 25.4763 75.4728 23.6542C73.6795 21.4658 71.6339 19.493 69.384 17.7726C65.9988 15.1838 62.1507 13.171 57.9822 11.8906C54.602 10.8523 51.0149 10.2905 47.2981 10.2905C43.5815 10.2905 39.9948 10.8523 36.6148 11.8906C32.4461 13.1713 28.5977 15.1838 25.2126 17.7726C22.9627 19.4932 20.917 21.4661 19.1238 23.6544C17.6306 25.4765 16.3127 27.4457 15.1918 29.5362C14.8884 30.102 14.5998 30.6768 14.3265 31.2601C13.419 33.1965 14.8761 35.418 17.0173 35.418Z" fill="#EEEEEE"/>
<path fill-rule="evenodd" clip-rule="evenodd" d="M42.3678 80.4217C42.364 80.4018 42.3602 80.382 42.3564 80.3623C42.0923 78.9966 40.8827 78.0156 39.4894 78.0156H39.4241C37.5963 78.0156 36.2167 79.674 36.5647 81.4651C36.5685 81.4848 36.5723 81.5048 36.5762 81.5245C36.8412 82.8986 38.0337 83.8974 39.4353 83.8974H39.5011C41.338 83.8974 42.7136 82.2225 42.3678 80.4217Z" fill="#EEEEEE"/>
<path fill-rule="evenodd" clip-rule="evenodd" d="M45.9504 89.877C45.9466 89.8573 45.9428 89.8376 45.939 89.8177C45.6749 88.4521 44.4655 87.4709 43.072 87.4709H43.0069C41.1791 87.4709 39.7993 89.1295 40.1475 90.9207C40.1514 90.9404 40.1552 90.9601 40.1588 90.9798C40.4238 92.3541 41.6163 93.353 43.0181 93.353H43.0839C44.9206 93.353 46.2962 91.678 45.9504 89.877Z" fill="#EEEEEE"/>
<path fill-rule="evenodd" clip-rule="evenodd" d="M92.8373 33.9012C92.8335 33.8815 92.8297 33.8615 92.8259 33.8418C92.5617 32.476 91.3524 31.4949 89.9589 31.4949H89.8938C88.0658 31.4949 86.6861 33.1537 87.0342 34.9448L87.0456 35.0037C87.3107 36.378 88.5032 37.3769 89.905 37.3769H89.9705C91.8075 37.3769 93.1831 35.702 92.8373 33.9012Z" fill="#EEEEEE"/>
<path fill-rule="evenodd" clip-rule="evenodd" d="M17.4542 41.5433L17.449 41.5254C17.0806 40.2799 15.935 39.4253 14.6343 39.4253H14.6191C12.6585 39.4253 11.2463 41.3036 11.794 43.183C12.1612 44.4415 13.3164 45.3071 14.6296 45.3071H14.6359C16.599 45.3071 18.0101 43.4227 17.4542 41.5433Z" fill="#EEEEEE"/>
<path fill-rule="evenodd" clip-rule="evenodd" d="M0.829257 40.7663C0.827687 40.7864 0.825891 40.8064 0.824321 40.8265C0.709425 42.2129 1.60884 43.483 2.95078 43.8585L3.01339 43.8759C4.77362 44.3681 6.55046 43.1425 6.69924 41.324C6.70081 41.3041 6.70238 41.2842 6.70417 41.264C6.82042 39.8696 5.94209 38.5867 4.5923 38.2092L4.52902 38.1915C2.76004 37.6969 0.983199 38.939 0.829257 40.7663Z" fill="#EEEEEE"/>
<path fill-rule="evenodd" clip-rule="evenodd" d="M17.5667 74.3397C15.3776 72.001 13.4805 69.4149 11.9029 66.6475C10.6359 64.4248 9.57987 62.0837 8.74778 59.6568C8.20651 58.0774 7.76286 56.4616 7.41953 54.818C7.29027 54.2 6.79366 53.3631 6.26339 53.019C3.87416 51.4687 1.13664 53.5302 1.64918 55.9856C1.7753 56.5895 1.91331 57.1903 2.06321 57.7873C2.64195 60.0934 3.39438 62.3447 4.31197 64.5245C5.36084 67.0166 6.6202 69.414 8.0813 71.687C9.91019 74.5319 12.0488 77.181 14.4661 79.5806C18.7766 83.86 23.9739 87.3341 29.8737 89.6943C31.804 90.4665 33.9087 89.0366 33.9087 86.961C33.9087 85.776 33.1994 84.6947 32.0971 84.2547C26.4475 81.9987 21.5317 78.5759 17.5667 74.3397Z" fill="#EEEEEE"/>
<path fill-rule="evenodd" clip-rule="evenodd" d="M30.0683 71.7276C26.7467 69.464 23.9466 66.5879 21.7826 63.3022C20.335 61.104 19.1674 58.7275 18.3252 56.2269C17.8165 54.7162 17.4285 53.1609 17.1632 51.5758C17.0203 50.7199 16.5414 49.9368 15.785 49.5096C13.4994 48.2188 10.9477 50.1247 11.3397 52.4828C11.4452 53.1181 11.5677 53.7494 11.7068 54.3761C12.2212 56.6908 12.9581 58.9421 13.9035 61.0986C15.0388 63.6888 16.4754 66.1395 18.1769 68.402C20.7369 71.8064 23.8985 74.7806 27.5667 77.136C28.2008 77.5435 28.8514 77.9304 29.5167 78.2975C31.4881 79.3842 33.9088 77.9684 33.9088 75.7205C33.9088 74.6477 33.3208 73.6652 32.3806 73.146C31.5842 72.706 30.8118 72.2343 30.0683 71.7276Z" fill="#EEEEEE"/>
<path fill-rule="evenodd" clip-rule="evenodd" d="M44.4668 56.1851C45.5815 56.6535 46.8047 56.9133 48.0878 56.9133C49.371 56.9133 50.5942 56.6535 51.7088 56.1851C53.658 55.3659 55.2713 53.906 56.2869 52.0716C56.9673 50.8425 57.3694 49.4438 57.4314 47.9582C57.437 47.8269 57.4514 47.6983 57.4514 47.5657C57.4514 46.2434 57.1711 44.986 56.6727 43.8447C55.9348 42.155 54.7107 40.7269 53.1778 39.7312C51.7109 38.7781 49.9648 38.2185 48.0876 38.2185C46.2107 38.2185 44.4644 38.7781 42.9974 39.7312C41.4648 40.7269 40.2406 42.155 39.5028 43.8447C39.0042 44.9862 38.7239 46.2436 38.7239 47.5664C38.7239 47.6985 38.7385 47.8271 38.7438 47.9582C38.8062 49.444 39.2084 50.8427 39.8888 52.0716C40.9044 53.906 42.5177 55.3659 44.4668 56.1851Z" fill="#EEEEEE"/>
<path fill-rule="evenodd" clip-rule="evenodd" d="M47.9609 32.6158C54.0447 32.6158 59.2013 36.5268 61.2901 42.0591C64.4504 45.2123 68.425 47.4427 72.2906 48.7912C72.3113 48.3791 72.3221 47.964 72.3221 47.5464C72.3221 34.1279 61.4667 23.2915 47.9609 23.2915C34.6355 23.2915 23.8549 33.9402 23.668 47.1967L28.0207 47.1519C28.0659 45.5097 28.303 43.851 28.742 42.205C30.5148 35.5566 35.6016 30.4004 42.1755 28.4782C42.2752 27.982 42.7134 27.6081 43.2397 27.6081C43.8393 27.6081 44.3253 28.0933 44.3253 28.6919C44.3253 29.2904 43.8393 29.7756 43.2397 29.7756C42.9836 29.7756 42.7513 29.6836 42.5658 29.5355C36.3323 31.3312 31.5037 36.2015 29.8263 42.4928C28.2337 48.4662 29.4163 54.6141 33.071 59.3606C35.5206 62.5417 38.8218 64.8065 42.5413 65.9498C42.7305 65.7896 42.9724 65.6895 43.2397 65.6895C43.8393 65.6895 44.3253 66.1747 44.3253 66.7733C44.3253 67.3718 43.8393 67.857 43.2397 67.857C42.7215 67.857 42.29 67.4941 42.1816 67.0096C38.2547 65.7964 34.769 63.4035 32.1817 60.0432C29.5516 56.6277 28.1316 52.5293 28.0196 48.272L23.6769 48.3168C24.0831 61.3798 34.7778 71.8641 48.0242 71.8641C59.1535 71.8641 68.5096 64.3932 71.3998 54.2066C67.441 54.3157 63.1089 55.1484 59.1767 56.9357C56.5758 60.3344 52.5693 62.4772 48.0242 62.4772C39.9461 62.4772 33.698 55.9254 33.698 47.5464C33.698 39.2935 39.9461 32.6158 47.9609 32.6158Z" fill="#EEEEEE"/>
</g>
</svg>
