<svg width="299" height="88" viewBox="0 0 299 88" fill="none" xmlns="http://www.w3.org/2000/svg">
<path d="M289.044 57.1801C286.65 57.1874 284.337 56.8303 282.217 55.6644C280.606 54.7753 279.475 53.5 278.921 51.7365C278.692 51.015 278.729 50.5486 279.608 50.4393C279.86 50.4102 280.103 50.3009 280.355 50.2353C280.953 50.0677 281.603 49.696 282.15 49.8053C282.704 49.9146 282.594 50.7746 282.882 51.2555C283.576 52.4288 284.64 53.1138 285.919 53.4709C287.98 54.0466 290.071 54.0466 292.155 53.5365C292.842 53.3689 293.47 53.0628 294.01 52.5964C295.377 51.4304 295.31 49.543 293.869 48.4718C292.746 47.6337 291.409 47.3422 290.093 46.9997C287.493 46.322 284.84 45.841 282.453 44.522C280.451 43.4143 279.165 41.8621 279.017 39.5302C278.847 36.8484 279.978 34.7788 282.409 33.6638C286.731 31.689 291.069 31.8129 295.229 34.1958C297.076 35.2598 297.948 36.9869 298.14 39.0783C298.207 39.7852 298.081 40.2152 297.231 40.0767C297.017 40.0403 296.788 40.0767 296.566 40.0694C295.938 40.0621 295.236 40.2225 294.704 39.9966C294.15 39.7634 294.431 38.9617 294.202 38.4371C293.736 37.4095 292.953 36.7318 291.919 36.3383C289.746 35.5221 287.522 35.442 285.305 36.127C283.761 36.6006 282.904 37.6209 282.845 38.8889C282.786 40.1496 283.562 41.2135 285.047 41.8475C287.02 42.6929 289.14 43.05 291.194 43.6111C292.731 44.0265 294.231 44.5293 295.628 45.2799C299.847 47.5463 299.98 53.1794 295.864 55.6425C293.766 56.9032 291.438 57.1729 289.044 57.1801Z" fill="#333333"/>
<path d="M247.931 40.5868C247.931 38.2621 247.954 35.9374 247.917 33.6055C247.902 32.9277 248.124 32.7601 248.796 32.7528C251.641 32.7237 251.641 32.7018 251.641 35.4637C251.641 39.2459 251.604 43.028 251.656 46.8029C251.7 50.2279 253.488 52.6328 256.503 53.4271C258.136 53.857 259.791 53.8497 261.424 53.4052C264.468 52.5817 266.175 50.2571 266.234 46.6426C266.308 42.394 266.286 38.1382 266.242 33.8824C266.234 32.986 266.456 32.7164 267.387 32.7383C269.966 32.7966 269.966 32.7528 269.966 35.2888C269.966 38.9617 269.966 42.6345 269.966 46.3C269.966 48.0199 269.751 49.7105 269.027 51.2992C267.793 54.0028 265.761 55.8392 262.85 56.6627C260.382 57.3623 257.885 57.3841 255.409 56.772C251.02 55.6862 248.087 51.9623 247.961 47.3349C247.902 45.0831 247.954 42.8313 247.954 40.5722C247.946 40.5868 247.939 40.5868 247.931 40.5868Z" fill="#333333"/>
<path d="M158.627 40.6376C158.627 38.2765 158.649 35.9154 158.612 33.547C158.605 32.9276 158.79 32.76 159.418 32.7527C162.322 32.7017 162.322 32.6798 162.322 35.5292C162.322 39.1291 162.322 42.7291 162.322 46.3218C162.322 47.9468 162.595 49.5136 163.526 50.8909C165.137 53.2739 168.41 54.2868 171.861 53.4925C174.587 52.8585 176.405 50.8545 176.804 47.9906C176.908 47.24 176.952 46.4675 176.952 45.7096C176.967 41.7089 176.982 37.7154 176.937 33.7146C176.93 32.9494 177.137 32.7454 177.92 32.7527C180.639 32.7746 180.639 32.7454 180.639 35.4709C180.639 39.0708 180.632 42.6708 180.639 46.2635C180.639 47.7646 180.491 49.2367 179.967 50.6577C178.858 53.6601 176.789 55.6933 173.693 56.6334C171.174 57.3985 168.588 57.4131 166.038 56.7645C161.723 55.6641 158.797 51.984 158.664 47.5096C158.597 45.2214 158.649 42.9331 158.649 40.6376C158.642 40.6376 158.634 40.6376 158.627 40.6376Z" fill="#333333"/>
<path d="M77.6202 22.74C77.9232 23.0752 78.071 23.4614 78.034 23.9133C77.8641 24.4817 78.034 25.0501 78.034 25.6185C78.0045 38.5025 78.0488 51.3939 78.0045 64.2779C78.0045 64.3508 78.034 64.4164 78.0488 64.4893C77.9601 66.005 76.9995 66.8868 75.7582 67.5864C69.2336 71.2811 62.7238 74.9831 56.1993 78.685C51.4407 81.3886 46.6747 84.0923 41.9162 86.7959C40.9334 87.3497 39.9285 87.7505 38.7758 87.4007C39.0344 87.3206 39.4704 87.408 39.4482 86.9926C39.3891 85.7902 39.8029 84.5368 39.0566 83.4072V83.4C39.064 83.3854 39.0788 83.3708 39.0935 83.3489C46.2536 79.4502 53.288 75.3183 60.3889 71.3248C64.4233 69.0584 68.4208 66.7265 72.4774 64.4893C73.4084 63.9791 73.7483 63.3451 73.741 62.3176C73.704 49.9364 73.741 37.5552 73.7114 25.174C73.7114 24.9699 73.6818 24.7659 73.7262 24.5764C74.1547 24.8242 74.5611 24.8606 75.0414 24.6056C75.7656 24.2047 76.4897 23.7894 77.2064 23.3813C77.4429 23.2647 77.7311 23.1116 77.6202 22.74Z" fill="#333333"/>
<path d="M77.6204 22.74C77.7313 23.1116 77.4431 23.2574 77.2066 23.3959C76.4899 23.8039 75.7658 24.2193 75.0416 24.6201C74.5687 24.8752 74.1623 24.8387 73.7264 24.591C73.7485 24.5035 73.7781 24.4234 73.8372 24.3432C74.2141 24.4817 74.517 24.6639 74.9751 24.3578C75.8323 23.7967 76.8224 23.425 77.6204 22.74Z" fill="#333333"/>
<path d="M75.8839 20.9983C76.6228 21.421 77.3248 21.8873 77.6203 22.74C76.8223 23.425 75.8322 23.7893 74.975 24.3578C74.5169 24.6565 74.214 24.4816 73.8371 24.3432C73.7854 24.4233 73.7484 24.5035 73.7263 24.591C73.7189 24.591 73.7189 24.5837 73.7189 24.5837C69.751 22.4922 65.9012 20.1967 61.9924 17.9959C54.7881 13.9441 47.628 9.81219 40.4163 5.76771C39.7217 5.37419 39.1823 5.35962 38.4804 5.76042C27.7736 11.8818 17.0299 17.9667 6.29352 24.059C5.91668 24.2776 5.53983 24.591 5.05215 24.4525C4.32802 23.0898 2.9906 22.6817 1.57928 22.3756C1.86007 21.6833 2.48075 21.3408 3.07927 20.9983C14.4437 14.5417 25.8229 8.09238 37.1799 1.62849C38.739 0.739435 40.2168 0.746723 41.7685 1.63578C53.1403 8.09238 64.5121 14.5417 75.8839 20.9983Z" fill="#333333"/>
<path d="M64.1724 54.2576C64.1946 56.9175 63.1822 58.8195 60.7956 60.1458C54.5961 63.5855 48.4632 67.1563 42.2638 70.6105C41.3475 71.1206 40.3721 71.6671 39.2564 71.055C39.2564 71.055 39.2564 71.055 39.2564 71.0477C39.3229 70.9894 39.3894 70.9238 39.4559 70.8437C39.685 70.0421 39.5741 69.2186 39.5815 68.4024C39.5889 67.8996 39.5594 67.3895 39.0421 67.0907C39.5076 67.2 39.8919 67.0251 40.2835 66.7992C46.4681 63.2794 52.6454 59.7596 58.8522 56.269C59.5616 55.8681 59.7907 55.3945 59.7833 54.6147C59.7537 47.9031 59.7685 41.1914 59.7759 34.487C59.7759 34.0862 59.8202 33.6927 59.8424 33.2992C60.8695 33.3575 62.9162 32.1114 63.3965 31.1349C63.3965 31.1276 63.3965 31.113 63.3891 31.1057C63.729 31.2587 63.8103 31.6085 63.9212 31.9365C64.1576 32.6361 64.1576 33.3648 64.1576 34.0935C64.1576 40.8125 64.1207 47.5314 64.1724 54.2576Z" fill="#333333"/>
<path d="M63.389 31.1059C63.389 31.1132 63.389 31.1278 63.3964 31.1351C62.9161 32.1116 60.8694 33.3577 59.8423 33.2994C61.0319 32.6508 62.4137 32.2719 63.2191 31.0476C63.2782 31.0622 63.3373 31.0768 63.389 31.1059Z" fill="#333333"/>
<path d="M63.3891 31.1059C63.3373 31.084 63.2782 31.0622 63.2117 31.0476C62.4137 32.2719 61.0319 32.6435 59.8349 33.2994C59.7315 32.7893 59.3694 32.5124 58.9408 32.2719C52.7118 28.7448 46.4828 25.225 40.2686 21.6761C39.6775 21.3408 39.2415 21.3481 38.6578 21.6833C32.4436 25.2323 26.2146 28.7521 19.993 32.2937C19.6826 32.4686 19.4166 32.731 19.1285 32.9496C19.2097 32.7091 19.2984 32.4686 19.158 32.2209C18.8329 31.6524 16.8674 30.7124 15.9512 30.6395C15.8034 29.714 16.5792 29.4007 17.1556 29.0436C18.7442 28.0525 20.3846 27.1416 22.025 26.2234C26.7392 23.5781 31.4534 20.9327 36.116 18.2C38.4435 16.8372 40.5346 16.8445 42.8548 18.2C48.8843 21.7271 54.9951 25.1157 61.0615 28.5772C62.096 29.1675 63.2117 29.7286 63.3891 31.1059Z" fill="#333333"/>
<path d="M39.5815 68.4026C39.5741 69.2187 39.685 70.0422 39.4559 70.8438C39.3894 70.924 39.3229 70.9896 39.2564 71.0479C39.1456 69.7289 39.4928 68.388 39.0421 67.0908C39.5593 67.3969 39.5889 67.907 39.5815 68.4026Z" fill="#333333"/>
<path d="M39.4482 87.0072C39.4704 87.4153 39.0344 87.3279 38.7758 87.4153C39.5073 86.2858 39.1231 85.0615 39.0862 83.8591C39.0788 83.7133 38.9605 83.5603 39.0566 83.4146V83.4218C39.8029 84.5514 39.3891 85.8048 39.4482 87.0072Z" fill="#333333"/>
<path d="M39.042 67.0909C39.4928 68.3881 39.1455 69.729 39.2563 71.048C38.643 71.58 37.9558 71.1864 37.3647 70.9095C36.1086 70.312 34.9189 69.5686 33.6997 68.8909C31.0692 67.4262 28.4756 65.8958 25.8451 64.4383C24.7737 63.8408 24.7072 63.8845 24.7072 65.0942C24.6998 67.8561 24.7589 70.6107 24.685 73.3654C24.6555 74.5168 25.1284 75.1581 26.0964 75.69C30.116 77.9054 34.0913 80.1936 38.0741 82.4746C38.4731 82.7005 38.9755 82.8535 39.0494 83.4073C38.9534 83.5604 39.079 83.7061 39.079 83.8519C39.1159 85.047 39.5001 86.2713 38.7686 87.4081C38.1036 87.4154 37.579 87.0656 37.0396 86.7595C32.3106 84.0851 27.6037 81.3815 22.8599 78.7289C21.1826 77.7888 20.3994 76.4552 20.4215 74.5532C20.4659 70.9241 20.4215 67.295 20.4363 63.6659C20.4511 60.1315 23.6062 58.2951 26.717 60.0441C30.8475 62.3614 34.9337 64.7371 39.042 67.0909Z" fill="#333333"/>
<path d="M19.1655 32.2134C19.3059 32.4612 19.2246 32.7017 19.1359 32.9422C19.1064 32.6215 19.0916 32.3155 18.7295 32.126C17.8059 31.6377 16.9561 31.0183 15.9586 30.6612C15.9586 30.6539 15.9586 30.6467 15.9512 30.6321C16.8675 30.705 18.8404 31.645 19.1655 32.2134Z" fill="#333333"/>
<path d="M19.1654 55.1907C19.1727 60.0586 19.1949 64.9339 19.158 69.8018C19.1358 72.8261 16.0472 74.7135 13.3575 73.2706C9.75905 71.3467 6.23446 69.2917 2.70248 67.244C1.47589 66.5298 0.884766 65.4148 0.884766 63.9646C0.899544 50.8037 0.892155 37.6427 0.892155 24.4817C0.892155 23.7093 0.966045 22.9587 1.57195 22.3684C2.74681 22.9805 4.01035 23.4469 4.96354 24.4162C4.9931 24.4234 5.01526 24.438 5.04482 24.4453C5.08176 24.5036 5.11132 24.5692 5.14088 24.6275C5.0596 25.4947 5.04482 26.3692 5.04482 27.2437C5.04482 38.7285 5.06699 50.2134 5.01526 61.6983C5.00787 63.1193 5.45861 63.9792 6.72953 64.6424C9.07926 65.8666 11.3403 67.2367 13.6457 68.5338C14.7171 69.1387 14.7615 69.1241 14.7615 67.9071C14.7689 60.2408 14.7615 52.5672 14.7615 44.9009C14.7615 41.1989 14.7541 37.4897 14.7689 33.7804C14.7762 32.6509 14.8427 31.514 15.722 30.6323C15.7812 30.625 15.855 30.625 15.9363 30.6323C15.9363 30.6396 15.9363 30.6468 15.9437 30.6614C16.9412 31.0185 17.791 31.6452 18.7146 32.1262C19.0767 32.3157 19.0915 32.6144 19.121 32.9424C19.1432 40.3609 19.158 47.7721 19.1654 55.1907Z" fill="#333333"/>
<path d="M5.04495 24.4524C5.01539 24.4451 4.99323 24.4378 4.96367 24.4232C4.01787 23.454 2.74695 22.9876 1.57208 22.3755C2.9834 22.6743 4.32082 23.0897 5.04495 24.4524Z" fill="#333333"/>
<path d="M190.947 44.7332C190.947 41.0604 190.969 37.3949 190.932 33.722C190.924 32.9787 191.087 32.7382 191.892 32.7455C194.626 32.7747 194.626 32.7382 194.626 35.4491C194.626 41.0823 194.649 46.7154 194.604 52.3412C194.597 53.172 194.841 53.3687 195.661 53.3542C199.533 53.3104 203.405 53.3542 207.284 53.3177C208.023 53.3104 208.304 53.4635 208.296 54.2651C208.274 56.8229 208.311 56.823 205.717 56.823C201.217 56.823 196.718 56.7938 192.218 56.8448C191.242 56.8594 190.902 56.6699 190.924 55.6278C190.991 51.9987 190.947 48.3696 190.947 44.7332Z" fill="#333333"/>
<path d="M27.2639 36.9867C27.4265 36.5276 27.8698 36.3745 28.2393 36.1632C31.4905 34.3122 34.7638 32.4831 38.0002 30.6102C39.0495 30.0054 39.9657 30.0418 41.0002 30.6394C44.2071 32.4977 47.4361 34.3268 50.6725 36.1268C51.7144 36.7025 52.2095 37.4604 52.1947 38.6628C52.1356 42.6198 52.1356 46.5696 52.1134 50.5266C51.3819 50.3007 51.5666 49.6667 51.5592 49.1784C51.5297 46.2343 51.5592 43.2903 51.5297 40.3462C51.5297 39.9235 51.7735 39.1656 51.2119 39.151C50.5617 39.1292 50.6873 39.9162 50.6799 40.3826C50.6504 43.2174 50.6799 46.0522 50.6504 48.8869C50.643 49.3825 50.8499 50.0092 50.1553 50.2934C49.6898 49.9072 49.8154 49.3606 49.8154 48.8724C49.8006 45.8627 49.7784 42.853 49.8228 39.8506C49.8376 38.896 49.4903 38.3057 48.6553 37.8393C45.9066 36.3017 43.1726 34.7203 40.4386 33.1608C39.7515 32.7673 39.1825 32.7673 38.4953 33.1681C35.7614 34.7349 33.0126 36.2871 30.2861 37.8612C29.8723 38.0944 29.4806 38.3859 28.9782 38.4004C28.3871 37.9632 27.6186 37.7154 27.2639 36.9867Z" fill="#333333"/>
<path d="M27.264 36.9868C27.7664 37.5042 28.7566 37.4678 28.897 38.3933C29.259 38.8378 29.1556 39.3625 29.1556 39.858C29.163 42.7293 29.2073 45.6005 29.1408 48.4717C29.1113 49.6158 29.562 50.2862 30.5447 50.8109C33.1014 52.1882 35.621 53.6311 38.1333 55.0886C38.6801 55.402 39.2195 55.7153 39.4781 56.3275C39.6111 56.7793 39.6333 57.2457 39.5225 57.6975C39.4338 58.0691 39.2639 58.3825 38.7688 58.1784C37.9708 57.9817 37.3427 57.457 36.6555 57.0708C33.8403 55.4967 31.0546 53.8716 28.2393 52.3121C27.1901 51.7291 26.7394 50.9421 26.7541 49.7543C26.7911 46.0596 26.7689 42.3649 26.7689 38.6702C26.7541 38.0726 26.7098 37.4459 27.264 36.9868Z" fill="#333333"/>
<path d="M38.761 58.1857C39.7438 57.7266 39.0418 56.8594 39.2561 56.2108C40.1724 55.227 41.4581 54.797 42.5812 54.1339C44.7536 52.8367 46.9703 51.6125 49.1649 50.3663C49.4457 50.206 49.7117 49.9874 50.0737 50.0238C50.6575 49.9291 50.3102 49.4846 50.3102 49.2514C50.3397 46.2417 50.3323 43.2393 50.3323 40.2296C50.3323 39.9746 50.325 39.7195 50.3397 39.4717C50.3767 38.7066 51.0491 38.4734 51.5663 38.4588C52.1427 38.4369 51.8693 39.0782 51.8693 39.4134C51.8914 42.7438 51.8767 46.0814 51.8914 49.4117C51.8914 49.7906 51.7437 50.2206 52.1131 50.5339C52.1575 51.3356 51.655 51.8092 51.0343 52.159C47.5762 54.1412 44.1034 56.1088 40.6305 58.0691C40.0394 58.4043 39.4113 58.5355 38.761 58.1857Z" fill="#333333"/>
<path d="M108.433 32.3811C101.021 32.3374 95.3762 37.5697 95.2949 44.5583C95.2136 51.7655 100.674 57.1144 108.196 57.18C115.452 57.2456 121.038 51.9404 121.127 44.9081C121.216 37.9268 115.637 32.4249 108.433 32.3811ZM108.167 53.7331C103.068 53.7185 99.1594 49.8198 99.1742 44.7624C99.1889 39.6758 103.061 35.8718 108.218 35.8718C113.376 35.8718 117.263 39.6904 117.27 44.7551C117.277 49.8562 113.332 53.755 108.167 53.7331Z" fill="#333333"/>
<path d="M226.274 32.3811C218.922 32.3884 213.395 37.7373 213.41 44.8206C213.424 51.8967 218.966 57.1946 226.348 57.18C233.715 57.1654 239.242 51.8311 239.22 44.755C239.183 37.6717 233.641 32.3738 226.274 32.3811ZM226.326 53.7404C221.205 53.7549 217.304 49.8999 217.282 44.8279C217.267 39.7268 221.102 35.9009 226.252 35.879C231.417 35.8572 235.326 39.6393 235.37 44.704C235.414 49.8052 231.491 53.7258 226.326 53.7404Z" fill="#333333"/>
<path d="M149.309 37.4968C147.662 34.2175 144.765 32.8548 141.181 32.7965C137.901 32.7382 134.612 32.8038 131.324 32.7527C130.482 32.7382 130.201 32.9203 130.216 33.8094C130.275 37.4458 130.238 41.0822 130.238 44.7113C130.238 47.8376 130.238 50.9638 130.238 54.0901C130.238 56.8885 130.238 56.8666 133.039 56.8447C133.704 56.8375 133.947 56.6917 133.925 55.9994C133.873 54.4035 133.97 52.8003 133.888 51.2043C133.844 50.2934 134.169 50.1258 135.011 50.1404C137.302 50.1841 139.593 50.2351 141.876 50.1039C148.371 49.7396 152.198 43.2465 149.309 37.4968ZM141.868 46.5696C139.415 46.9558 136.94 46.6716 134.472 46.759C133.814 46.7809 133.91 46.3437 133.91 45.9501C133.91 44.4271 133.91 42.904 133.91 41.3737C133.91 39.8871 133.91 38.4004 133.91 36.9065C133.91 36.4912 133.873 36.1122 134.509 36.1341C136.97 36.2361 139.452 35.93 141.905 36.3381C144.809 36.8191 146.428 38.7138 146.383 41.5194C146.346 44.3178 144.743 46.125 141.868 46.5696Z" fill="#333333"/>
</svg>
