<svg width="299" height="60" viewBox="0 0 299 60" fill="none" xmlns="http://www.w3.org/2000/svg">
<path d="M296.955 20.3387C296.236 21.0108 295.617 21.7704 295.097 22.5983C295.017 23.1632 294.508 23.4164 294.188 23.806L294.198 23.7865C293.819 24.4683 293.339 25.0722 292.73 25.5689H292.74C292.46 26.4065 292.001 27.1077 291.192 27.5557C290.513 28.5102 290.073 29.6595 288.925 30.2536C288.845 30.2926 288.805 30.351 288.815 30.4484C288.605 31.1009 287.986 31.4418 287.626 31.9872C286.717 32.8735 285.948 33.8572 285.269 34.9189C284.96 35.9707 284.091 36.6428 283.451 37.4804C283.292 37.6946 282.952 37.8213 283.132 38.1816C283.222 38.2693 283.302 38.3667 283.392 38.4543C284.44 38.8926 284.56 40.0516 285.259 40.7626C285.259 40.8503 285.269 40.9282 285.289 41.0158C285.499 41.308 285.549 41.7073 285.928 41.8729C286.408 42.3794 286.887 42.8761 287.357 43.3825C288.355 44.0254 288.985 44.9506 289.454 46.0025H289.444C289.814 46.5479 290.493 46.7914 290.792 47.3952C291.621 48.5737 292.71 49.5477 293.529 50.7359C293.739 50.9989 293.979 51.2326 294.198 51.4859C295.607 53.463 297.334 55.1869 298.693 57.203C299.012 58.0893 298.393 58.2549 297.724 58.4399C296.595 58.7516 295.457 58.4594 294.338 58.4594C293.12 58.4691 291.861 58.4302 290.643 58.1964C289.963 57.9821 289.075 58.5081 288.565 57.651C287.966 57.4757 287.946 56.8816 287.676 56.4628V56.4725C286.188 55.2356 285.03 53.7552 284.131 52.0702L284.121 52.08C283.481 51.4956 282.852 50.9015 282.573 50.0541C282.203 49.6548 281.833 49.2555 281.474 48.8659C281.194 48.8172 280.994 48.6516 280.845 48.4276C280.645 48.0283 280.355 47.6582 280.315 47.2004C280.165 46.8011 280.046 46.3921 279.566 46.2265C279.456 46.1583 279.366 46.0707 279.307 45.9635V45.9733C278.567 45.1259 277.688 44.376 277.209 43.3338V43.3241C276.06 42.7495 275.901 44.0254 275.222 44.337C275.012 45.0967 274.303 45.4376 273.803 45.9538C273.544 46.0901 273.244 46.207 273.364 46.5966C273.324 46.8596 273.164 47.0154 272.924 47.1128L272.934 47.1225C272.255 48.5932 271.037 49.684 270.168 51.0281C269.838 51.4469 269.369 51.7293 268.989 52.0994C268.52 52.5085 268.07 52.937 267.861 53.5409C266.742 54.9824 265.973 56.6868 264.575 57.9334C263.995 58.3425 263.366 58.4886 262.637 58.5081C260.46 58.5665 258.282 58.4983 256.105 58.586C255.506 58.6152 254.697 58.7321 254.347 58.0893C253.997 57.4367 254.587 56.9205 254.966 56.4238C255.765 55.3817 256.544 54.3201 257.653 53.5506C258.792 52.3916 259.78 51.1158 260.699 49.7814C261.039 48.7393 261.858 47.9991 262.487 47.142C262.647 46.9472 262.797 46.7427 262.947 46.5382C263.136 46.2654 263.466 46.1973 263.716 46.0122H263.706C264.065 45.0675 264.714 44.2981 265.334 43.5189C266.342 42.73 266.982 41.6099 267.93 40.7723V40.7821C268.31 39.6133 269.279 38.8536 270.008 37.9381C270.497 37.2758 269.828 37.1492 269.479 36.8765C267.181 34.4124 264.944 31.8899 263.186 29.0167C262.867 28.0135 261.818 27.5947 261.309 26.7474C260.42 26.2019 260.15 25.1988 259.511 24.4586C259.451 24.3709 259.371 24.3417 259.271 24.3514V24.3612C258.172 22.1211 256.425 20.3582 254.777 18.5272C254.297 17.7675 254.737 17.6214 255.416 17.563C257.204 17.3876 258.981 17.6214 260.769 17.5922C261.938 17.5727 263.136 17.2416 264.285 17.7675L264.245 17.7577C265.144 18.5661 265.923 19.4914 266.742 20.3874C266.872 20.553 266.952 20.7478 266.922 20.9621C267.201 21.3809 267.401 21.8581 267.87 22.1308C268.849 22.9587 269.598 23.9716 270.258 25.0527L270.248 25.0429C271.995 26.8155 273.653 28.6563 274.942 30.7795C275.152 31.1204 275.511 31.3152 275.751 31.6269C276.31 32.3574 276.81 32.3768 277.369 31.6074C277.738 31.1009 278.318 30.7698 278.717 30.2828L278.707 30.2926C279.137 28.8219 280.625 28.1304 281.384 26.8935C281.544 26.6402 281.644 26.3773 281.764 26.1143C282.343 25.0916 283.162 24.293 284.091 23.582V23.5917C284.75 22.8515 284.98 21.7997 285.878 21.2348C285.968 21.1374 286.068 21.0302 286.158 20.9328C286.308 20.4361 286.817 20.2024 287.057 19.7641C287.157 19.6667 287.257 19.5596 287.347 19.4622C288.116 17.972 289.154 17.2708 291.042 17.524C292.73 17.748 294.498 17.6993 296.246 17.3974C297.055 17.261 298.193 16.9981 298.603 18.2447C298.393 19.17 297.824 19.8712 296.955 20.3387Z" fill="#333333"/>
<path d="M82.907 51.0864C83.0768 51.2909 83.3065 51.2812 83.5462 51.2617C83.8858 51.2033 84.1954 51.2422 84.4451 51.5052C87.9308 52.333 91.1469 51.8266 94.0234 49.6449C94.333 49.4112 94.6526 49.1579 94.6626 48.7099C94.8923 48.3009 95.152 47.8918 95.3118 47.4438C95.4616 46.9373 96.001 46.801 96.2906 46.4406C97.0896 44.7654 97.1396 42.9538 97.1595 41.1812C97.2195 34.1493 97.1795 27.1173 97.1895 20.0853C97.1895 19.5497 97.1595 19.014 97.2394 18.4881C97.3193 17.9719 97.5191 17.5433 98.1683 17.5628C100.785 17.6602 103.402 17.368 106.009 17.6992C106.498 18.2251 106.398 18.8776 106.398 19.501C106.408 26.7083 106.478 33.9253 106.358 41.1325C106.318 43.3629 106.238 45.6712 105.1 47.7457C103.572 51.7584 100.735 54.6511 96.9997 56.784C96.8599 57.0178 96.5603 56.9106 96.3905 57.0665C95.5915 57.3684 94.8024 57.6606 94.0034 57.9625C93.5839 58.5274 92.8848 58.2742 92.3454 58.4787C89.9484 59.3747 87.5014 59.2871 85.0344 58.8585C84.9345 58.8585 84.8346 58.8488 84.7347 58.8488C83.0668 58.917 81.4687 58.6443 79.9406 57.9722C78.1628 56.9886 76.2651 56.1996 74.5872 55.0309C74.0279 54.7874 73.5385 54.4563 73.1889 53.9498C72.8793 53.4531 72.5097 53.0343 72.0103 52.7031C71.7806 52.5473 71.6607 52.3233 71.5908 52.0701C71.6008 51.9727 71.5908 51.885 71.5809 51.7876C71.2812 51.476 71.4011 50.9111 70.9017 50.7163H70.9117C70.5821 49.8982 70.3424 49.0313 69.7131 48.3496C69.0839 47.4633 69.0839 46.3432 68.6045 45.3985C68.0452 44.4732 68.155 43.4213 68.1451 42.4376C68.0851 34.5291 68.165 26.6206 68.0851 18.7121C68.0751 17.8258 68.5046 17.4265 69.2837 17.368C71.421 17.1927 73.5584 17.1732 75.6958 17.3291C76.9942 17.4167 77.2639 18.2446 77.2539 19.3549C77.2339 24.7896 77.2439 30.2242 77.2439 35.6589C77.2439 37.451 77.2739 39.2528 77.2339 41.0449C77.204 42.7688 77.4736 44.4245 78.1928 46.0023C78.4524 46.8399 79.0917 47.512 79.2714 48.3788C80.47 49.3138 81.7384 50.1416 82.907 51.0864Z" fill="#333333"/>
<path d="M59.5157 58.2061L59.4458 58.1768L59.3759 58.2158C57.3284 58.0113 55.2809 58.021 53.2434 58.2158C52.704 58.2158 52.1647 58.2158 51.6253 58.2158C50.7464 57.8944 51.106 57.1444 51.096 56.5795C51.076 42.7883 51.086 28.9971 51.076 15.2059C51.076 10.9302 51.1359 6.66428 51.0361 2.38862C51.0161 1.46336 51.3157 1.21013 52.2146 1.21987C54.0524 1.22961 55.8801 1.26857 57.7179 1.01534C59.6056 0.752369 59.9851 1.22961 60.055 3.03143C60.6843 20.0172 60.1449 37.003 60.3347 53.9888C60.3447 55.2063 59.9052 56.375 60.0251 57.6022C60.065 57.9041 59.8453 58.1184 59.5157 58.2061Z" fill="#333333"/>
<path d="M205.247 39.623C205.118 38.0939 205.167 36.5453 205.217 35.0162C205.257 33.828 205.078 32.7274 204.438 31.7048C204.378 31.6463 204.358 31.5879 204.398 31.51C204.229 30.6139 204.079 29.7082 203.699 28.8803C201.152 23.1924 196.898 19.3453 190.735 17.6019C187.279 16.4818 183.724 16.9883 180.188 17.0273C179.938 17.0467 179.699 17.0857 179.459 17.1539C179.139 17.2513 178.9 17.4363 178.7 17.6895C176.862 18.3324 175.104 19.1602 173.396 20.066C173.107 20.1634 172.867 20.3095 172.687 20.553C171.778 21.3808 170.859 22.2184 169.811 23.1729C169.791 22.6567 169.761 22.4132 169.761 22.1697C169.761 15.7027 169.731 9.24534 169.781 2.77827C169.791 1.70692 169.521 1.31733 168.373 1.37577C166.485 1.46343 164.577 1.45369 162.689 1.38551C161.621 1.34655 161.221 1.59978 161.231 2.73931C161.341 15.7611 161.091 28.7926 161.391 41.8144C161.691 44.785 162.839 47.4536 164.427 49.9762C164.747 50.4729 165.097 50.9209 165.636 51.2131C167.004 52.4987 168.373 53.7746 169.731 55.0602C170.2 55.3914 170.66 55.7323 171.209 55.9368L171.219 55.9465C172.198 57.203 173.666 57.4367 175.114 57.6802C177.222 58.9171 179.599 58.9756 181.936 59.1119C183.045 59.1703 184.213 59.4041 185.302 58.8782C185.581 58.8587 185.861 58.8392 186.141 58.8197C187.219 58.9658 188.198 58.5665 189.187 58.2548L189.277 58.1964L189.387 58.2256C190.006 58.0211 190.795 58.323 191.265 57.6607C192.383 57.5731 193.412 57.2614 194.221 56.4433C194.94 56.2387 195.689 56.0829 196.059 55.333C196.938 54.6414 197.816 53.9597 198.685 53.2682C200.843 52.2455 201.522 50.1223 202.611 48.301H202.601C203.36 47.59 203.39 46.5479 203.809 45.6908L203.799 45.7005C204.358 45.2038 204.159 44.4733 204.398 43.8792C204.358 43.8013 204.368 43.7331 204.438 43.6747C204.838 42.3306 205.377 41.0548 205.247 39.623ZM194.88 44.2396C194.64 45.1746 194.121 45.944 193.442 46.616C193.412 46.5868 193.392 46.5673 193.362 46.5381C193.362 46.5381 193.362 46.5381 193.362 46.5479L193.442 46.616C193.092 47.327 192.563 47.8725 191.884 48.2913C190.056 50.0444 187.889 51.0865 185.312 51.2618C182.116 51.9144 179.119 51.4274 176.333 49.7424C174.845 49.012 173.576 48.038 172.697 46.6258C169.981 43.4994 169.531 39.7984 169.891 35.9123C169.941 35.3669 169.881 34.7435 170.32 34.2663C170.939 31.247 172.428 28.7732 175.044 26.9811C178.31 24.0982 184.633 23.4261 188.598 25.5494C190.795 26.3188 192.473 27.7116 193.682 29.64C194.071 29.9224 194.291 30.3023 194.371 30.76C194.99 31.5295 195.369 32.3963 195.499 33.3702C196.838 37.0908 196.598 40.7041 194.88 44.2396Z" fill="#333333"/>
<path d="M15.3298 27.8965C15.3298 27.9062 15.3198 27.9062 15.3198 27.916C15.3298 27.916 15.3398 27.916 15.3498 27.916C15.3398 27.9062 15.3298 27.8965 15.3298 27.8965Z" fill="#333333"/>
<path d="M44.6037 34.1008C44.8035 32.5717 44.2242 31.1886 43.7448 29.7861C43.1854 28.3642 42.3465 27.0785 41.6773 25.715C41.6074 25.5981 41.5275 25.4813 41.4476 25.3741C41.1379 25.0235 40.8483 24.6534 40.4088 24.4391C39.2203 23.2801 38.0317 22.1308 36.8432 20.9718C36.3938 20.3485 35.8544 19.8615 35.0354 19.7933C33.9467 19.2966 32.8581 18.7999 31.7694 18.2935C30.7606 17.787 29.6021 17.7188 28.5733 17.2708C26.9953 16.8325 25.4072 16.4916 23.7692 16.9202C23.4696 16.9981 23.1699 17.0176 22.8803 16.9689C20.4633 16.5111 18.2859 17.339 16.1186 18.1961C15.6691 18.4688 15.2396 18.7804 14.7003 18.8876C13.3819 19.5888 11.9637 20.1829 11.1447 21.5173C10.7052 22.0919 10.2258 22.6178 9.58656 23.0366C9.27694 22.5594 9.41677 22.1211 9.41677 21.712C9.38681 15.3911 9.36683 9.07983 9.41677 2.76859C9.42676 1.6875 9.11714 1.32714 7.98852 1.3661C5.65138 1.45375 3.30425 1.39531 0.967114 1.38557C0.867237 1.56089 0.857249 1.7362 0.917176 1.92125C0.98709 7.26827 0.947139 12.6056 0.937151 17.9428C0.937151 25.0819 1.00707 32.2113 0.8972 39.3504C0.727408 39.925 0.817298 40.5094 0.797322 41.0938C0.967114 43.8111 1.96589 46.2752 3.23434 48.6517C3.30425 48.7783 3.37417 48.8952 3.46406 49.012C3.7537 49.3627 3.98342 49.7717 4.43287 49.9763C4.92227 50.025 4.93226 50.3756 4.93226 50.7262C5.03214 51.1742 5.33177 51.5151 5.57148 51.895C5.87111 52.3138 6.27062 52.6546 6.62019 53.0345C6.71008 53.1221 6.79998 53.2195 6.89985 53.2974C7.27939 53.6286 7.60898 53.9987 8.01848 54.2909C8.31812 54.5246 8.69765 54.5831 9.02725 54.7389C9.40678 54.8266 9.68644 55.0506 9.91616 55.333C11.1646 56.7745 12.9524 57.2614 14.6604 57.8945C15.2596 58.2159 15.9488 58.0211 16.568 58.2159C18.4557 58.3425 20.2835 58.81 22.1911 58.8685C25.1675 58.9659 28.004 58.3036 30.8605 57.69C31.0603 57.8361 31.2401 57.8361 31.3999 57.6413C31.4898 57.5439 31.5796 57.4368 31.6695 57.3394C32.3287 57.1251 33.0778 57.1154 33.5572 56.5212C34.2863 56.1804 34.7957 55.4596 35.6547 55.3428C37.3126 54.6805 38.6909 53.687 39.4999 52.08C40.8583 50.3366 42.0269 48.4861 43.0756 46.5674C43.8546 46.1876 43.3353 45.3597 43.7148 44.8338C44.7535 41.2983 44.8634 37.7141 44.6037 34.1008ZM34.4861 44.2689C33.747 46.246 32.4885 47.8238 30.6608 48.9536C30.441 49.2653 30.1714 49.499 29.7619 49.5282C28.3636 50.6288 26.7456 51.1742 24.9677 51.2716C24.728 51.3301 24.4883 51.3788 24.2486 51.3982C21.2922 51.856 18.5156 51.3398 15.9288 49.7522C14.6803 49.1484 13.5417 48.3984 12.8126 47.2005C11.1846 45.574 10.2058 43.6358 9.90617 41.3762C9.8063 41.1912 9.77633 40.9964 9.77633 40.8016C8.85746 36.6525 9.5566 32.8054 12.3132 29.3479C12.8226 28.5103 13.4019 27.7408 14.3308 27.2928C17.1773 24.6047 22.9003 23.5139 26.4759 24.9748C27.3548 24.9943 28.1039 25.3644 28.823 25.8124C30.2912 26.3578 31.4698 27.2733 32.4186 28.481C33.4074 29.3673 34.0966 30.4387 34.5061 31.6854C35.2851 32.9418 35.6746 34.315 35.7146 35.7857C36.2439 38.7368 35.9243 41.5808 34.4861 44.2689Z" fill="#333333"/>
<path d="M34.416 31.734L34.4959 31.6755C34.4659 31.695 34.436 31.7048 34.406 31.7242C34.406 31.734 34.416 31.734 34.416 31.734Z" fill="#333333"/>
<path d="M131.108 24.3904C131.148 24.4293 131.178 24.4683 131.218 24.4975C131.188 24.4683 131.148 24.4293 131.108 24.3904Z" fill="#333333"/>
<path d="M151.733 51.2034C152.352 50.3366 152.961 49.4795 153.581 48.6126C153.581 48.3692 153.68 48.1646 153.91 48.038C153.98 47.9309 154.05 47.8237 154.12 47.7166C154.15 47.1517 154.539 46.7427 154.799 46.2752C155.568 43.5773 155.568 43.5773 152.542 43.5676C151.153 43.5676 149.765 43.626 148.377 43.5481C147.348 43.4896 146.739 43.7623 146.389 44.7753C146.16 45.4181 145.92 46.1583 145.201 46.5381C145.131 46.616 145.051 46.6647 144.951 46.6745C144.991 46.7427 144.981 46.8011 144.921 46.8498C144.512 47.8237 143.753 48.4666 142.834 48.9535C142.554 49.4016 142.164 49.7035 141.635 49.8106C137.47 52.8688 129.82 52.5669 126.014 49.1873C125.535 48.9925 125.115 48.7295 124.866 48.262C124.017 47.6874 123.358 46.9667 122.998 46.0122C122.998 46.0122 122.998 46.0122 122.988 46.0219C121.749 44.7266 121.37 43.0611 120.901 41.4346C120.681 40.6749 121.03 40.4704 121.72 40.4996C122.119 40.5191 122.519 40.4996 122.918 40.4996C133.485 40.4996 144.052 40.4704 154.609 40.5191C155.868 40.5288 156.237 40.1197 156.287 38.951C156.367 37.1881 156.028 35.4642 155.988 33.7209C155.398 31.9677 154.809 30.2244 154.22 28.4712C152.652 25.5007 150.404 23.0853 147.818 20.9328C147.458 20.8549 147.158 20.6991 146.979 20.3777C144.572 19.1407 142.065 18.1376 139.448 17.4071C139.358 17.4558 139.288 17.446 139.218 17.3779C135.423 16.8909 131.637 16.9493 127.872 17.709C127.313 18.0304 126.713 18.2057 126.074 18.2642C125.854 18.5564 125.525 18.5369 125.205 18.5661C123.787 19.3355 122.369 20.1049 120.96 20.8744C119.782 21.8581 118.603 22.8418 117.435 23.8255C117.195 24.254 116.955 24.6923 116.456 24.9066C116.266 25.1208 116.076 25.3351 115.897 25.5494C115.867 26.2019 115.447 26.6305 115.008 27.0493C114.888 27.4681 114.728 27.8674 114.379 28.1693C114.079 28.8511 113.769 29.5328 113.47 30.2146C113.09 31.6074 112.711 33.0001 112.341 34.3929C112.321 34.5585 112.311 34.7143 112.291 34.8799C112.141 37.9965 112.251 41.0937 112.95 44.1519L112.94 44.1617C113.4 44.6681 113.51 45.2915 113.56 45.9343L113.55 45.9245C115.168 48.9828 116.895 51.9631 119.832 54.0473C120.99 54.8752 122.199 55.6349 123.387 56.4335C124.147 56.5796 124.826 56.9205 125.475 57.3198C126.334 57.5341 127.223 57.6607 127.992 58.1477C129.1 58.1964 130.189 58.362 131.228 58.7321C134.614 58.9171 137.96 58.7223 141.246 57.8652C141.725 57.5341 142.274 57.4172 142.844 57.3296C144.512 56.4335 146.19 55.5472 147.858 54.6512C149.126 53.5409 150.434 52.3721 151.733 51.2034ZM121.46 32.5619C121.55 32.3476 121.72 32.1528 121.849 31.958C121.889 31.5002 122.069 31.1107 122.419 30.8087C123.148 29.0459 124.366 27.6823 126.014 26.6792C127.482 25.4325 129.17 24.6338 131.108 24.3904C131.468 24.0884 131.897 24.0884 132.337 24.1469C135.173 23.5722 137.85 24.0203 140.427 25.2474C144.192 26.7181 146.469 29.5134 147.758 33.156C148.207 34.4416 147.098 34.0617 146.549 34.0617C139.538 34.091 132.526 34.0812 125.505 34.0812C124.506 34.0812 123.517 34.091 122.519 34.091C120.96 34.1007 120.881 33.9936 121.46 32.5619Z" fill="#333333"/>
<path d="M126.624 27.4193C126.634 27.4193 126.654 27.4193 126.664 27.4095C126.813 27.4874 126.614 27.2342 126.594 27.3803C126.614 27.3998 126.614 27.4095 126.624 27.4193Z" fill="#333333"/>
<path d="M252.32 30.8867C252.15 29.7277 251.7 28.6758 251.121 27.6531C249.653 25.0527 247.815 22.7639 245.338 21.001C244.679 20.5725 244.02 20.1439 243.341 19.7349C241.223 18.459 238.876 17.8064 236.449 17.4266V17.4363C234.491 16.589 232.394 17.0175 230.356 16.8325C228.159 16.6377 226.092 17.5045 223.944 17.748C222.566 18.4687 220.978 18.7706 219.729 19.7543C218.631 19.9784 217.922 20.8744 216.923 21.2835C216.533 21.6341 215.984 21.8386 215.864 22.4327C215.634 22.7931 215.355 23.0853 214.945 23.2508C214.756 23.3482 214.536 23.3969 214.386 23.5625C212.758 25.0819 211.989 27.1467 210.79 28.929C210.191 30.8282 209.392 32.6885 209.272 34.7046C209.272 36.8765 209.272 39.0484 209.272 41.2203C209.452 43.7137 210.041 46.1193 211.37 48.2718C213.437 51.6319 215.884 54.6512 219.789 56.1706C219.969 56.268 220.149 56.3654 220.329 56.4628C220.738 56.7257 221.008 57.203 221.507 57.3198C223.575 57.7776 225.532 58.5957 227.62 58.9561C229.827 59.3359 232.054 58.8684 234.262 59.1119C236.01 58.6834 237.897 58.7126 239.455 57.6218L239.445 57.6315C240.983 57.5341 242.152 56.677 243.351 55.8589C243.56 55.557 243.88 55.4109 244.229 55.294C245.358 54.807 246.137 53.7844 247.296 53.3364C247.316 53.3364 247.336 53.2974 247.346 53.2097C247.356 53.1318 247.326 53.0539 247.256 52.976C247.615 52.5767 247.975 52.1676 248.334 51.7683C249.413 51.0378 249.763 49.7327 250.721 48.9049C251.501 47.7069 252.15 46.4505 252.32 45.0188C252.529 44.074 252.769 43.139 252.949 42.1943C253.668 38.3959 253.298 34.6267 252.32 30.8867ZM242.591 45.1843C242.571 45.2525 242.532 45.3207 242.462 45.3986C240.484 48.8172 237.528 50.8138 233.513 51.2716V51.2618C231.145 51.8267 228.838 51.6417 226.601 50.6775C226.401 50.6482 226.211 50.6288 226.012 50.5995C225.812 50.5119 225.612 50.434 225.412 50.3463C222.087 48.6419 219.64 46.2362 218.801 42.5254C217.692 39.4964 217.702 36.4674 218.771 33.4287C218.91 32.4353 219.27 31.5392 219.959 30.7698C220.279 29.7374 220.948 28.9582 221.757 28.2667C221.777 28.2278 221.797 28.2083 221.827 28.2083C222.696 27.1272 223.725 26.2506 225.123 25.8708C228.279 24.069 231.605 23.9131 235.041 24.9455C237.188 25.3059 238.936 26.348 240.374 27.9064C242.362 29.6108 243.55 31.7437 244 34.276C245.068 38.1232 244.659 41.7658 242.591 45.1843Z" fill="#333333"/>
</svg>
