<svg width="298" height="53" viewBox="0 0 298 53" fill="none" xmlns="http://www.w3.org/2000/svg">
<path d="M119.002 0.962326C122.279 0.14007 124.334 1.18044 126.233 3.75628C131.886 11.3999 137.842 18.8338 143.877 26.6033C145.203 24.942 146.461 23.3982 147.683 21.8292C152.443 15.6958 157.186 9.56245 161.928 3.4207C164.226 0.442117 164.946 0.190375 168.995 1.02941C168.995 17.2816 168.995 33.5589 168.995 49.9957C166.151 49.9957 163.376 49.9957 160.307 49.9957C160.307 40.1034 160.307 30.2615 160.307 20.4112C160.142 20.3609 159.977 20.3105 159.804 20.2602C154.567 27.006 149.322 33.7435 143.911 40.7075C138.51 33.7519 133.256 26.9809 127.62 19.7232C127.62 30.1272 127.62 40.0027 127.62 50.0124C124.594 50.0124 121.88 50.0124 119.01 50.0124C119.002 33.6931 119.002 17.3487 119.002 0.962326Z" fill="#333333"/>
<path d="M215.06 0.912018C215.06 17.3236 215.06 33.5421 215.06 49.7523C211.643 50.7928 210.187 50.3397 208.184 47.7471C201.378 38.9288 194.563 30.1189 187.739 21.3174C187.445 20.9398 187.115 20.5958 186.5 19.8994C186.5 30.1441 186.5 39.9776 186.5 49.9873C183.517 49.9873 180.751 49.9873 177.864 49.9873C177.864 33.6345 177.864 17.3068 177.864 0.937162C180.777 0.375007 182.884 0.777749 184.8 3.35359C191.693 12.6166 198.898 21.6698 206.311 31.2264C206.311 20.8811 206.311 10.9889 206.311 0.920416C209.337 0.912026 212.094 0.912018 215.06 0.912018Z" fill="#333333"/>
<path d="M259.972 38.9035C262.096 37.7036 264.03 36.6297 265.937 35.5222C267.203 34.7922 267.983 35.1446 268.772 36.3109C271.971 41.0598 278.153 42.9979 283.789 41.1437C286.017 40.4053 287.569 39.0797 287.786 36.722C288.012 34.3559 286.824 32.6359 284.621 31.7465C281.769 30.597 278.83 29.6824 275.934 28.642C274.052 27.9624 272.145 27.3164 270.307 26.536C264.576 24.1112 261.767 21.0488 261.949 14.219C262.122 7.95138 265.772 3.54645 272.188 1.70056C280.685 -0.741036 289.581 1.77604 294.436 9.42806C294.766 9.94827 295.026 10.5104 295.39 11.1817C293.266 12.3647 291.289 13.489 289.286 14.5714C288.081 15.2174 287.353 14.6217 286.607 13.6568C283.806 9.98186 279.662 8.56387 275.405 9.70496C272.934 10.3678 271.425 11.8781 271.182 13.9253C270.914 16.1907 271.859 18.1457 274.312 19.1273C278.76 20.9061 283.356 22.3409 287.838 24.0357C291.956 25.5963 295.251 28.0463 296.465 32.4345C298.373 39.3398 295.312 45.8423 288.454 48.5776C281.275 51.4387 274.087 51.1534 267.238 47.4113C263.804 45.5319 261.489 42.6623 259.972 38.9035Z" fill="#333333"/>
<path d="M245.007 50.0293C242.016 50.0293 239.31 50.0293 236.328 50.0293C236.328 46.6648 236.042 43.3841 236.388 40.1706C237.16 33.0808 235.209 26.9139 231.221 20.9315C227.025 14.6471 223.556 7.90126 219.533 0.945641C222.906 0.945641 225.941 0.878533 228.975 1.01278C229.426 1.02956 229.938 1.9273 230.25 2.50624C233.536 8.53053 236.779 14.58 240.039 20.6211C240.229 20.9735 240.472 21.3007 240.828 21.8544C244.01 15.956 247.244 10.3093 250.096 4.48641C251.431 1.75953 252.983 0.358328 256.235 0.85336C257.986 1.12185 259.816 0.9037 261.931 0.9037C261.463 1.7763 261.134 2.44751 260.761 3.08518C255.966 11.3245 251.206 19.589 246.351 27.7948C245.388 29.4226 244.946 31.0335 244.981 32.9129C245.067 38.5429 245.007 44.1728 245.007 50.0293Z" fill="#333333"/>
<path d="M13.2759 35.4636C12.9117 36.16 12.7556 36.4789 12.5909 36.7809C11.5418 38.7611 12.1401 39.7595 14.5157 39.7931C18.4087 39.8434 22.3016 39.8099 26.1946 39.8099C29.2205 39.8099 32.2551 39.8182 35.2811 39.8099C38.437 39.7931 39.0006 38.8366 37.4053 36.1601C34.1366 30.6728 30.9719 25.1267 27.5125 19.7568C26.2986 17.8774 26.1339 16.4426 27.5385 14.7814C27.8073 14.4625 27.9807 14.0682 28.4142 13.355C29.2899 14.2947 30.2263 15.0247 30.8072 15.9728C34.6395 22.2572 38.4631 28.5583 42.1653 34.9182C44.775 39.4071 41.7924 44.2568 36.4776 44.2819C28.9084 44.3239 21.3392 44.3323 13.7701 44.2735C9.84243 44.2484 6.99858 41.295 7.25869 37.7291C7.3714 36.1936 7.91763 35.2371 9.77307 35.4552C10.8048 35.5643 11.88 35.4636 13.2759 35.4636Z" fill="#333333"/>
<path d="M12.7471 27.3248C16.1458 21.3844 19.3712 15.7461 22.6139 10.1161C23.5589 8.48002 24.504 6.83551 25.5184 5.24134C28.2235 0.97064 34.05 0.937095 36.7031 5.25814C40.596 11.5929 44.411 17.9695 48.1565 24.3882C50.1767 27.845 48.6681 31.7969 45.0786 33.2652C43.9861 33.7099 43.3705 33.6008 42.833 32.5604C42.2694 31.4613 41.5931 30.4125 40.8561 29.1623C41.5411 29.112 41.9486 29.0952 42.3561 29.0532C44.2116 28.8519 44.7491 27.9709 43.8214 26.3851C41.3417 22.148 38.8013 17.9528 36.2869 13.7408C35.1684 11.8781 34.0933 9.99032 32.9402 8.15283C31.709 6.18948 30.5038 6.17269 29.3247 8.19477C26.082 13.766 22.8219 19.3288 19.744 24.9839C18.7382 26.8298 17.5504 27.7191 15.4002 27.3584C14.6892 27.2241 13.9522 27.3248 12.7471 27.3248Z" fill="#333333"/>
<path d="M21.374 8.60601C19.3798 6.04695 18.5301 6.0721 17.0475 8.53887C13.5881 14.3198 10.1286 20.1008 6.6865 25.8818C5.35128 28.1304 5.89751 29.0282 8.62865 29.0282C15.0447 29.045 21.4693 29.1624 27.8854 28.9695C30.3304 28.894 31.8477 29.54 32.6887 31.7299C32.9055 32.292 33.2523 32.8122 33.7031 33.6597C31.5182 33.6597 29.6107 33.6597 27.6946 33.6597C21.2006 33.6597 14.7152 33.6764 8.22114 33.6513C2.31668 33.6261 -0.570531 28.8436 2.36003 23.8932C6.00155 17.7347 9.66041 11.5846 13.3713 5.45962C15.4435 2.03635 19.4665 1.06307 22.6485 3.05159C23.7756 3.75638 24.1225 4.42761 23.2554 5.5687C22.5791 6.46647 22.0763 7.46492 21.374 8.60601Z" fill="#333333"/>
<path d="M49.3965 11.8613C49.3619 13.4807 48.0353 14.7476 46.3706 14.7644C44.6452 14.7812 43.2666 13.3716 43.336 11.6684C43.4054 10.0155 44.7059 8.87436 46.4573 8.9247C48.148 8.96665 49.4312 10.2504 49.3965 11.8613Z" fill="#333333"/>
<path d="M6.70396 11.8951C6.6606 13.4474 5.23001 14.7815 3.64334 14.7647C1.91796 14.7395 0.608742 13.3467 0.704115 11.6266C0.799488 9.94857 2.04801 8.85783 3.81675 8.91657C5.4641 8.9753 6.74731 10.301 6.70396 11.8951Z" fill="#333333"/>
<path d="M25.1545 52.219C23.4898 52.1938 22.1546 50.8766 22.1719 49.2572C22.1893 47.6547 23.5592 46.3374 25.2152 46.3457C26.8539 46.3541 28.2411 47.7302 28.2151 49.316C28.1891 50.9101 26.7845 52.2358 25.1545 52.219Z" fill="#333333"/>
<path d="M86.1324 0.928545C72.0431 0.962107 60.7891 11.7773 60.6504 25.4452C60.5117 39.0209 72.2946 50.4318 86.3318 50.2891C100.447 50.1465 111.987 38.9034 111.805 25.4704C111.623 11.6514 100.369 0.894984 86.1324 0.928545ZM86.2711 41.5464C77.2366 41.5548 69.7629 34.4062 69.6328 25.655C69.5027 16.9626 77.202 9.52868 86.2884 9.58742C95.3402 9.63776 102.849 16.887 102.823 25.5711C102.797 34.2719 95.2708 41.5464 86.2711 41.5464Z" fill="#333333"/>
</svg>
