<svg width="298" height="173" viewBox="0 0 298 173" fill="none" xmlns="http://www.w3.org/2000/svg">
<path d="M109.333 117.19V63.8212L120.148 62.4927L121.823 70.876C125.353 65.1497 130.512 62.2637 137.209 62.2637C138.341 62.2637 139.517 62.3095 140.648 62.4469L140.467 73.3498C139.11 73.1665 137.752 73.0291 136.395 73.0291C131.643 73.0291 128.113 74.3118 125.76 76.8772C123.407 79.4426 122.23 82.97 122.23 87.551V117.19H109.333Z" fill="#333333"/>
<path d="M97.1142 63.6381C96.7069 63.409 87.294 58.4157 79.3746 63.0425C72.9937 66.7532 71.7266 74.2202 71.5004 77.3354L68.5588 79.0303C65.4363 75.9152 60.4131 75.8694 57.2453 78.9845L43.7596 71.1051C44.8005 66.799 42.3115 62.447 38.1029 61.2101V56.3542C42.04 53.7888 54.4848 44.5351 54.4848 29.7384C54.4848 12.6511 37.7408 1.97729 37.0168 1.51919L35.8401 0.832031L34.6635 1.565C33.9395 2.0231 17.1955 12.6969 17.1955 29.7842C17.1955 44.5351 29.6403 53.8346 33.5774 56.4V61.2559C29.3688 62.4928 26.8798 66.8448 27.9207 71.151L14.435 79.0303C12.9416 77.5644 10.9052 76.694 8.82347 76.694C4.34331 76.694 0.677734 80.3588 0.677734 84.9399C0.677734 88.6047 3.0762 91.8572 6.56076 92.8651V109.219C2.26163 110.502 -0.227347 115.037 0.994513 119.435C1.9901 122.962 5.20314 125.39 8.82347 125.39C11.1314 125.39 13.3036 124.428 14.8423 122.688L27.9207 130.338C27.7397 130.979 27.6944 131.666 27.6944 132.308C27.6944 136.843 31.36 140.554 35.8401 140.554C40.3203 140.554 43.9859 136.843 43.9859 132.308C43.9859 131.621 43.8954 130.979 43.7596 130.338L56.838 122.688C58.3767 124.428 60.5489 125.39 62.8568 125.39C67.337 125.39 71.0026 121.726 71.0026 117.145C71.0026 113.48 68.6041 110.227 65.1195 109.219V92.8651C68.6041 91.8572 71.0026 88.6047 71.0026 84.9399C71.0026 84.2985 70.9121 83.6572 70.7763 83.0158L73.7178 81.3209C75.4375 82.1454 78.8315 83.4739 82.6781 83.4739C85.2123 83.5198 87.7466 82.8326 89.9188 81.5499C97.8835 76.9231 98.2908 66.1576 98.2908 65.6995L98.336 64.2794L97.1142 63.6381ZM65.1195 87.8259C64.486 88.3298 63.6714 88.6047 62.8568 88.6047C62.4043 88.6047 61.997 88.5131 61.5897 88.3757C61.2277 88.2382 60.9109 88.055 60.6394 87.8259C59.9153 87.2304 59.4175 86.4058 59.2818 85.4438C59.2365 85.2605 59.2365 85.0773 59.2365 84.8941C59.2365 84.7566 59.2365 84.5734 59.2818 84.436C59.5533 82.4203 61.3634 81.0002 63.3546 81.2292C65.1648 81.4583 66.5224 83.0158 66.5224 84.8941C66.5224 85.0773 66.5224 85.3064 66.4772 85.4896C66.2509 86.4516 65.7983 87.2762 65.1195 87.8259ZM66.4772 117.145C66.4772 119.16 64.848 120.809 62.8568 120.809C62.178 120.809 61.5445 120.626 60.9562 120.26C59.8701 119.573 59.2365 118.427 59.2365 117.145C59.2365 117.099 59.2365 117.053 59.2365 117.053C59.2365 116.686 59.327 116.274 59.4628 115.908C59.689 115.266 60.0963 114.671 60.6394 114.259C61.0919 113.892 61.6802 113.617 62.2685 113.526C62.4948 113.48 62.6758 113.48 62.9021 113.48C64.848 113.48 66.4772 115.083 66.4772 117.145ZM60.5941 109.219C59.508 109.54 58.4672 110.09 57.6074 110.823L43.8049 102.76C43.8954 102.21 43.9406 101.661 43.9406 101.157C43.9406 100.378 43.8501 99.5992 43.6239 98.8662L57.2001 90.941C58.1504 91.8572 59.2818 92.5444 60.5489 92.8651L60.5941 109.219ZM35.8401 135.973C34.03 135.973 32.5366 134.644 32.2651 132.858C32.2198 132.674 32.2198 132.491 32.2198 132.308C32.2651 130.292 33.9395 128.689 35.9759 128.735C37.9218 128.78 39.4605 130.338 39.5057 132.308C39.5057 132.491 39.5057 132.674 39.4605 132.858C39.1437 134.644 37.6051 135.973 35.8401 135.973ZM27.8754 102.806L14.0729 110.869C13.2131 110.136 12.1723 109.586 11.0862 109.265V92.9109C12.3533 92.5444 13.5299 91.8572 14.4802 90.941L28.0564 98.8662C27.8302 99.5992 27.7397 100.424 27.7397 101.203C27.6944 101.706 27.7397 102.256 27.8754 102.806ZM12.489 117.145C12.489 118.427 11.8102 119.618 10.7694 120.26C10.1811 120.626 9.54753 120.809 8.86872 120.809C6.87754 120.855 5.20314 119.252 5.11263 117.236C5.06738 115.221 6.65127 113.526 8.64245 113.434C8.73296 113.434 8.77821 113.434 8.86872 113.434C9.09499 113.434 9.27601 113.434 9.50228 113.48C10.7694 113.709 11.8555 114.625 12.2628 115.862C12.3985 116.228 12.489 116.595 12.489 117.007C12.489 117.053 12.489 117.099 12.489 117.145ZM5.20314 84.9399C5.2484 82.9242 6.9228 81.3209 8.95923 81.3667C10.9052 81.4125 12.4438 82.97 12.489 84.9399C12.489 85.1231 12.489 85.3064 12.4438 85.4896C12.308 86.4058 11.8102 87.2762 11.0862 87.8717C10.8146 88.1008 10.4979 88.284 10.1811 88.3757C9.7738 88.5589 9.32126 88.6505 8.82347 88.6505C6.83229 88.6505 5.20314 87.0013 5.20314 84.9399ZM33.5774 66.2951C35.1613 65.0582 37.424 65.2872 38.6912 66.8906C39.0984 67.3945 39.3247 67.99 39.4152 68.6314C39.4605 68.8146 39.4605 68.9979 39.4605 69.1811C39.4605 70.3264 38.9627 71.38 38.0576 72.0672C37.7861 72.2962 37.4693 72.4795 37.1525 72.5711C36.2927 72.9376 35.3424 72.9376 34.4825 72.5711C34.1657 72.4336 33.849 72.2504 33.5774 72.0672C32.7176 71.38 32.1746 70.3264 32.1746 69.1811C32.1746 68.9979 32.1746 68.8146 32.2198 68.6314C32.3556 67.7152 32.8534 66.8448 33.5774 66.2951ZM39.4605 101.294C39.4152 102.348 38.9174 103.356 38.1029 104.043C37.9218 104.18 37.7408 104.272 37.5598 104.409C36.4737 105.005 35.2066 105.005 34.1205 104.409C33.9395 104.318 33.7585 104.18 33.5774 104.043C32.7176 103.356 32.2198 102.348 32.2198 101.248C32.2198 101.203 32.2198 101.157 32.2198 101.157C32.2198 100.836 32.2651 100.515 32.3556 100.195C32.5366 99.4159 32.9891 98.7288 33.6227 98.2707C34.03 97.95 34.4825 97.721 34.9803 97.5835C35.2971 97.4919 35.5686 97.4461 35.8854 97.4461C36.2022 97.4461 36.519 97.4919 36.8357 97.5835C38.1029 97.9042 39.0532 98.8662 39.4152 100.149C39.5057 100.47 39.551 100.79 39.551 101.157C39.4605 101.203 39.4605 101.248 39.4605 101.294ZM54.9374 82.97C54.6206 84.2985 54.6206 85.6728 54.9374 87.0013L41.2254 95.0182C40.3203 94.1936 39.2342 93.598 38.0576 93.2316V77.0605C39.3247 76.694 40.5013 76.0069 41.4517 75.0906L54.9374 82.97ZM21.6756 29.7842C21.6756 17.6902 32.2198 8.89466 35.7949 6.28347C39.4152 8.89466 49.9142 17.6444 49.9142 29.7842C49.9142 39.9083 42.4925 47.2837 38.0123 50.7653V31.6624C38.0123 30.4255 37.0168 29.3719 35.7496 29.3719C34.5278 29.3719 33.4869 30.3797 33.4869 31.6624V50.8111C29.0973 47.2837 21.6756 39.9541 21.6756 29.7842ZM30.1834 75.0906C31.1337 76.0069 32.3103 76.694 33.5774 77.0605V93.1857C32.4008 93.5064 31.36 94.1019 30.4549 94.9265L16.7429 86.9555C17.0597 85.627 17.0597 84.2985 16.7429 82.97L30.1834 75.0906ZM16.8334 118.565C16.9239 118.107 16.9692 117.603 16.9692 117.145C16.9692 116.274 16.8334 115.45 16.5619 114.625L29.9571 106.837C30.9527 107.891 32.2198 108.67 33.5774 109.082V124.428C32.3103 124.795 31.1337 125.482 30.1834 126.444L16.8334 118.565ZM41.4969 126.398C40.5466 125.436 39.37 124.749 38.1029 124.383V109.036C39.5057 108.624 40.7276 107.845 41.7232 106.791L55.1184 114.579C54.8469 115.404 54.7111 116.228 54.7111 117.099C54.7111 117.603 54.7564 118.061 54.8469 118.519L41.4969 126.398ZM87.6561 77.6102C84.6693 79.351 81.2752 79.0303 78.741 78.3432L83.2664 75.732C84.3525 75.0906 84.7146 73.7163 84.081 72.6169C83.4474 71.5174 82.0898 71.1509 81.0037 71.7923L76.5236 74.4035C77.2024 71.8381 78.6053 68.723 81.592 66.9822C85.8912 64.4626 91.1859 66.066 93.6296 67.028C93.2676 69.685 92.0005 75.0906 87.6561 77.6102Z" fill="#333333"/>
<path d="M149.926 50.2157C149.926 45.7721 152.369 43.5273 157.302 43.5273C162.235 43.5273 164.678 45.7721 164.678 50.2157C164.678 52.3229 164.045 53.9721 162.823 55.1632C161.601 56.3542 159.746 56.9498 157.302 56.9498C152.415 56.9498 149.926 54.7051 149.926 50.2157ZM164.045 117.19H150.514V63.18H164.045V117.19Z" fill="#333333"/>
<path d="M205.588 73.4414H193.913V117.19H180.382V73.4414H172.96V66.8447L180.382 63.1798V59.515C180.382 53.7887 181.785 49.62 184.545 47.0088C187.306 44.3976 191.786 43.0691 197.895 43.0691C202.556 43.0691 206.72 43.7563 210.34 45.1764L206.901 55.2088C204.457 54.3843 201.923 53.972 199.388 53.9262C197.488 53.9262 196.085 54.5217 195.225 55.6669C194.365 56.8122 193.958 58.2781 193.958 60.0647V63.1798H205.634V73.4414H205.588Z" fill="#333333"/>
<path d="M109.785 139.179V145.272H107.975V129.697H114.763C118.021 129.697 120.329 131.666 120.329 134.507C120.329 136.614 118.745 138.446 116.528 138.904L120.465 145.272H118.338L114.673 139.179H109.785ZM109.785 131.346V137.53H114.627C116.89 137.53 118.519 136.293 118.519 134.461C118.519 132.491 116.935 131.3 114.627 131.3L109.785 131.346Z" fill="#333333"/>
<path d="M122.909 140.233H124.719C124.719 142.524 126.665 144.173 129.425 144.173C131.96 144.173 133.498 142.844 133.498 141.195C133.498 136.935 123.135 139.775 123.135 133.911C123.135 131.163 125.488 129.101 128.928 129.101C132.412 129.101 134.992 131.3 134.992 134.369H133.227C133.227 132.262 131.417 130.704 128.928 130.704C126.529 130.704 124.945 131.941 124.945 133.59C124.945 137.759 135.308 134.965 135.308 140.874C135.308 143.669 133 145.776 129.38 145.776C125.579 145.822 122.909 143.486 122.909 140.233Z" fill="#333333"/>
<path d="M140.196 145.272H138.386V129.697H140.196V136.522L146.713 129.697H149.111L141.825 137.209L149.337 145.226H146.939L140.196 137.851V145.272Z" fill="#333333"/>
<path d="M157.709 145.272V129.697H159.52V145.272H157.709Z" fill="#333333"/>
<path d="M172.87 138.63V145.318H171.195V138.63C171.195 136.66 170.064 135.24 168.163 135.24C166.217 135.194 164.588 136.751 164.543 138.721V138.767V145.272H162.869V134.14H164.543V135.698C165.403 134.415 166.806 133.682 168.299 133.682C171.15 133.682 172.87 135.789 172.87 138.63Z" fill="#333333"/>
<path d="M181.332 130.338C180.925 130.201 180.517 130.155 180.11 130.155C179.16 130.155 178.526 130.842 178.526 131.987V134.14H181.332V135.515H178.526V145.272H176.852V135.515H175.042V134.14H176.852V131.804C176.852 129.88 178.028 128.597 179.748 128.597C180.291 128.597 180.879 128.689 181.422 128.872L181.332 130.338Z" fill="#333333"/>
<path d="M189.614 134.049V135.606C189.116 135.377 188.528 135.24 187.985 135.24C186.265 135.24 185.134 136.797 185.134 139.042V145.272H183.459V134.14H185.043V135.698C185.677 134.461 186.763 133.774 188.075 133.774C188.618 133.728 189.116 133.865 189.614 134.049Z" fill="#333333"/>
<path d="M200.429 134.14H202.103V145.272H200.429V143.302C199.479 144.814 197.804 145.73 195.994 145.73C192.691 145.73 190.337 143.211 190.337 139.729C190.337 136.247 192.736 133.682 195.994 133.682C197.804 133.636 199.479 134.552 200.429 136.11V134.14ZM200.429 139.729C200.429 137.118 198.619 135.24 196.22 135.24C193.822 135.24 192.012 137.118 192.012 139.729C192.012 142.34 193.777 144.218 196.22 144.218C198.664 144.218 200.429 142.294 200.429 139.729Z" fill="#333333"/>
<path d="M204.592 141.562H206.176C206.176 143.119 207.534 144.219 209.435 144.219C211.154 144.219 212.376 143.394 212.376 142.249C212.376 139.454 204.819 141.516 204.819 137.072C204.819 135.148 206.674 133.682 209.073 133.682C211.788 133.682 213.779 135.285 213.779 137.439H212.15C212.15 136.156 210.837 135.24 209.027 135.24C207.624 135.24 206.448 136.018 206.448 137.118C206.448 139.867 214.005 138.034 214.005 142.111C214.005 144.173 212.105 145.73 209.48 145.73C206.629 145.73 204.592 143.944 204.592 141.562Z" fill="#333333"/>
<path d="M216.766 135.515H214.956V134.14H216.811L217.038 131.529H218.395V134.14H221.246V135.515H218.395V142.432C218.395 143.531 219.029 144.264 220.115 144.264C220.567 144.264 221.02 144.173 221.427 144.035V145.41C220.839 145.593 220.251 145.684 219.662 145.684C217.852 145.684 216.721 144.402 216.721 142.478L216.766 135.515Z" fill="#333333"/>
<path d="M230.025 134.049V135.606C229.528 135.377 228.939 135.24 228.396 135.24C226.677 135.24 225.545 136.797 225.545 139.042V145.272H223.871V134.14H225.455V135.698C226.088 134.461 227.174 133.774 228.487 133.774C229.03 133.728 229.528 133.865 230.025 134.049Z" fill="#333333"/>
<path d="M231.79 140.783V134.14H233.465V140.828C233.465 142.798 234.596 144.218 236.542 144.218C238.488 144.264 240.072 142.661 240.117 140.691C240.117 140.691 240.117 140.691 240.117 140.645V134.14H241.792V145.272H240.117V143.714C239.257 144.997 237.854 145.73 236.361 145.73C233.51 145.73 231.79 143.669 231.79 140.783Z" fill="#333333"/>
<path d="M253.603 137.988C253.105 136.339 251.612 135.148 249.892 135.194C247.584 135.194 245.819 137.118 245.819 139.729C245.819 142.34 247.584 144.264 249.892 144.264C251.612 144.31 253.105 143.165 253.603 141.516L255.232 141.745C254.734 144.081 252.471 145.776 249.892 145.776C246.543 145.776 244.145 143.257 244.145 139.775C244.145 136.293 246.543 133.728 249.892 133.728C252.562 133.728 254.779 135.469 255.232 137.805L253.603 137.988Z" fill="#333333"/>
<path d="M258.581 135.515H256.771V134.14H258.626L258.852 131.529H260.21V134.14H263.061V135.515H260.21V142.432C260.21 143.531 260.844 144.264 261.93 144.264C262.382 144.264 262.835 144.173 263.242 144.035V145.41C262.654 145.593 262.065 145.684 261.477 145.684C259.667 145.684 258.536 144.402 258.536 142.478L258.581 135.515Z" fill="#333333"/>
<path d="M265.459 140.783V134.14H267.134V140.828C267.134 142.798 268.265 144.218 270.211 144.218C272.157 144.264 273.741 142.661 273.786 140.691C273.786 140.691 273.786 140.691 273.786 140.645V134.14H275.46V145.272H273.786V143.714C272.926 144.997 271.523 145.73 270.03 145.73C267.179 145.73 265.459 143.669 265.459 140.783Z" fill="#333333"/>
<path d="M284.557 134.049V135.606C284.059 135.377 283.471 135.24 282.928 135.24C281.208 135.24 280.077 136.797 280.077 139.042V145.272H278.402V134.14H279.986V135.698C280.62 134.461 281.706 133.774 283.018 133.774C283.606 133.728 284.104 133.865 284.557 134.049Z" fill="#333333"/>
<path d="M294.965 141.974L296.458 142.524C295.779 144.356 293.562 145.73 291.299 145.73C287.86 145.73 285.371 143.119 285.371 139.592C285.371 136.202 287.815 133.682 291.209 133.682C294.603 133.682 297.001 136.156 297.001 139.592C297.001 139.775 297.001 140.004 297.001 140.233H287.091C287.362 142.569 289.036 144.173 291.209 144.173C292.793 144.219 294.422 143.211 294.965 141.974ZM295.191 138.813C294.874 136.522 292.793 134.965 290.53 135.285C288.72 135.56 287.317 136.98 287.045 138.813H295.191Z" fill="#333333"/>
<path d="M109.785 163.963H116.392V165.474H109.785V171.842H107.975V156.267H117.705V157.87H109.83V163.963H109.785Z" fill="#333333"/>
<path d="M126.032 160.619V162.176C125.534 161.947 124.946 161.81 124.403 161.81C122.683 161.81 121.552 163.367 121.552 165.612V171.842H119.877V160.71H121.461V162.268C122.095 161.031 123.181 160.344 124.493 160.344C125.036 160.298 125.579 160.435 126.032 160.619Z" fill="#333333"/>
<path d="M136.893 160.71H138.567V171.842H136.893V169.872C135.942 171.384 134.268 172.3 132.458 172.3C129.154 172.3 126.801 169.781 126.801 166.299C126.801 162.818 129.199 160.252 132.458 160.252C134.268 160.206 135.942 161.123 136.893 162.68V160.71ZM136.847 166.299C136.847 163.688 135.037 161.81 132.639 161.81C130.24 161.81 128.43 163.688 128.43 166.299C128.43 168.91 130.195 170.789 132.639 170.789C135.082 170.789 136.847 168.864 136.847 166.299Z" fill="#333333"/>
<path d="M143.228 171.842H141.554V160.71H143.137V162.084C143.816 160.939 145.083 160.206 146.396 160.252C148.206 160.252 149.699 161.168 150.288 162.588C151.012 161.122 152.505 160.206 154.089 160.252C156.668 160.252 158.479 162.268 158.479 165.154V171.842H156.804V165.154C156.804 163.184 155.582 161.81 153.863 161.81C152.053 161.81 150.785 163.184 150.785 165.154V171.842H149.111V165.154C149.111 163.138 147.934 161.81 146.17 161.81C144.359 161.81 143.092 163.138 143.092 165.154L143.228 171.842Z" fill="#333333"/>
<path d="M170.38 168.544L171.874 169.094C171.195 170.926 168.978 172.3 166.715 172.3C163.276 172.3 160.787 169.689 160.787 166.162C160.787 162.772 163.23 160.252 166.624 160.252C170.018 160.252 172.417 162.726 172.417 166.162C172.417 166.345 172.417 166.574 172.417 166.803H162.506C162.778 169.139 164.452 170.743 166.624 170.743C168.208 170.789 169.837 169.827 170.38 168.544ZM170.652 165.383C170.335 163.092 168.254 161.535 165.991 161.856C164.181 162.13 162.778 163.551 162.506 165.383H170.652Z" fill="#333333"/>
<path d="M182.644 162.68L180.02 171.888H177.757L174.001 160.71H175.721L178.843 170.193L181.604 160.71H183.549L186.446 170.193L189.523 160.71H191.288L187.532 171.842H185.269L182.644 162.68Z" fill="#333333"/>
<path d="M198.755 172.3C195.316 172.3 192.872 169.827 192.872 166.299C192.872 162.772 195.27 160.252 198.755 160.252C202.194 160.252 204.638 162.726 204.638 166.299C204.638 169.872 202.194 172.3 198.755 172.3ZM198.755 161.81C196.311 161.81 194.546 163.688 194.546 166.299C194.546 168.91 196.311 170.789 198.755 170.789C201.199 170.789 202.963 168.91 202.963 166.299C202.963 163.688 201.199 161.81 198.755 161.81Z" fill="#333333"/>
<path d="M213.191 160.619V162.176C212.693 161.947 212.105 161.81 211.562 161.81C209.842 161.81 208.711 163.367 208.711 165.612V171.842H207.036V160.71H208.62V162.268C209.254 161.031 210.34 160.344 211.652 160.344C212.195 160.298 212.693 160.435 213.191 160.619Z" fill="#333333"/>
<path d="M216.811 171.842H215.182V155.625H216.856V165.2L221.653 160.71H223.916L218.35 165.887L224.097 171.842H221.834L216.811 166.574V171.842Z" fill="#333333"/>
</svg>
