<svg width="299" height="79" viewBox="0 0 299 79" fill="none" xmlns="http://www.w3.org/2000/svg">
<path fill-rule="evenodd" clip-rule="evenodd" d="M38.9824 53.5477L20.7799 67.7162L33.9009 77.9016C35.0036 78.7575 36.586 78.7575 37.6888 77.9016L69.8496 52.9835L54.7561 41.3002L38.9824 53.5477ZM33.4805 54.2259L27.6321 49.685L27.6237 49.7014L0.0976971 28.6524C0.0976737 28.6574 0.0976659 28.6623 0.0976659 28.6673L0.0976657 31.3883L0.0976579 31.393L0.0976643 47.4513L0.0976563 50.1773C0.0976562 51.1283 0.529186 51.9843 1.2484 52.555L18.4005 65.8693L33.4805 54.2259ZM1.53726 26.0653L16.6005 37.7251L33.9009 24.292C34.0533 24.1739 34.215 24.0719 34.3832 23.9863L50.9353 11.2061L37.6888 0.942772C36.586 0.0867844 35.0036 0.0867844 33.9009 0.942772L1.53726 26.0653ZM53.3445 13.0728L38.2498 24.7277L57.1748 39.4222L57.1621 39.4321L71.4776 50.5131C71.4872 50.4174 71.4921 50.321 71.4921 50.2248V47.4565V47.4513V28.6197C71.4921 27.716 71.0605 26.8125 70.3413 26.2419L53.3445 13.0728Z" fill="#333333"/>
<g opacity="0.9">
<path opacity="0.9" d="M91.5065 29.3142H86.8798L93.836 40.5454L86.7927 51.7763H91.4519L96.416 43.6053H96.5901L101.554 51.7763H106.235L99.2573 40.5454L106.126 29.3142H101.521L96.5901 37.54H96.416L91.5065 29.3142Z" fill="#333333"/>
<path opacity="0.9" d="M110.217 51.7763H114.256V44.1865H118.523C123.672 44.1865 126.437 41.0716 126.437 36.7504C126.437 32.462 123.705 29.3142 118.578 29.3142H110.217V51.7763ZM114.256 40.8414V32.7143H117.957C120.983 32.7143 122.322 34.3594 122.322 36.7504C122.322 39.1413 120.983 40.8414 117.979 40.8414H114.256Z" fill="#333333"/>
<path opacity="0.9" d="M132.071 52.0178C133.355 52.0178 134.455 50.943 134.466 49.6048C134.455 48.2887 133.355 47.2139 132.071 47.2139C130.743 47.2139 129.665 48.2887 129.676 49.6048C129.665 50.943 130.743 52.0178 132.071 52.0178Z" fill="#333333"/>
<path opacity="0.9" d="M157.948 29.3142H153.931V44.6253H153.735L143.241 29.3142H139.627V51.7763H143.665V36.4761H143.851L154.356 51.7763H157.948V29.3142Z" fill="#333333"/>
<path opacity="0.9" d="M163.269 51.7763H177.856V48.3653H167.307V42.2344H177.018V38.8234H167.307V32.7252H177.769V29.3142H163.269V51.7763Z" fill="#333333"/>
<path opacity="0.9" d="M181.829 32.7252H188.72V51.7763H192.726V32.7252H199.617V29.3142H181.829V32.7252Z" fill="#333333"/>
<path opacity="0.9" d="M208.657 51.7763H212.642L217.116 36.0155H217.29L221.753 51.7763H225.738L232.031 29.3142H227.686L223.67 45.8317H223.474L219.174 29.3142H215.221L210.934 45.8208H210.725L206.71 29.3142H202.366L208.657 51.7763Z" fill="#333333"/>
<path opacity="0.9" d="M254.475 40.5455C254.475 33.2847 250.077 29.0073 244.232 29.0073C238.375 29.0073 233.987 33.2847 233.987 40.5455C233.987 47.7951 238.375 52.0834 244.232 52.0834C250.077 52.0834 254.475 47.806 254.475 40.5455ZM250.414 40.5455C250.414 45.6564 247.867 48.4313 244.232 48.4313C240.606 48.4313 238.048 45.6564 238.048 40.5455C238.048 35.4344 240.606 32.6596 244.232 32.6596C247.867 32.6596 250.414 35.4344 250.414 40.5455Z" fill="#333333"/>
<path opacity="0.9" d="M259.211 51.7763H263.252V43.5505H267.366L271.741 51.7763H276.249L271.426 42.8704C274.05 41.8065 275.432 39.5471 275.432 36.4981C275.432 32.2098 272.689 29.3142 267.572 29.3142H259.211V51.7763ZM263.252 40.1723V32.7143H266.953C269.967 32.7143 271.318 34.1072 271.318 36.4981C271.318 38.8891 269.967 40.1723 266.973 40.1723H263.252Z" fill="#333333"/>
<path opacity="0.9" d="M280.069 51.7763H284.107V45.0859L286.58 42.1467L293.23 51.7763H298.086L289.388 39.3937L298.01 29.3142H293.079L284.381 39.6349H284.107V29.3142H280.069V51.7763Z" fill="#333333"/>
</g>
</svg>
