<svg width="299" height="71" viewBox="0 0 299 71" fill="none" xmlns="http://www.w3.org/2000/svg">
<path d="M38.897 0.341309C41.1711 0.407142 43.3607 0.963438 45.5276 1.59873C46.6549 1.9312 47.818 2.26366 48.8316 2.8397C49.7639 3.36966 50.7483 3.87 51.6872 4.3078C53.5552 5.17351 55.1341 6.39473 56.8104 7.52707C58.6199 8.74829 60.1273 10.2658 61.5405 11.8754C64.6625 15.4238 67.0276 19.42 68.5285 23.9658C69.893 28.1001 70.5362 32.3069 70.39 36.6454C70.2536 40.704 69.4122 44.6113 67.8885 48.3704C66.693 51.3197 65.2343 54.1177 63.2786 56.6358C60.8485 59.7662 58.0839 62.5312 54.5525 64.7762C53.2855 62.4094 52.0478 60.0888 50.7743 57.7122C51.0147 57.4818 51.1804 57.2777 51.3883 57.1263C53.7111 55.4047 55.6539 53.3145 57.4114 51.0136C58.7206 49.2986 59.627 47.3829 60.4132 45.4013C61.1962 43.4361 61.7322 41.4052 62.0408 39.2853C62.8303 33.8968 62.2033 28.6894 59.8544 23.8407C56.0404 15.9538 49.8581 10.8813 41.327 8.90629C40.138 8.62979 38.8807 8.65612 37.656 8.54091C36.8828 8.82729 37.2954 9.48234 37.2954 9.93988C37.2726 26.8987 37.2759 43.8608 37.2791 60.8196C37.2791 61.2014 37.2434 61.5898 37.3019 61.9618C37.3246 62.0934 37.5813 62.1889 37.7274 62.3008C42.3699 61.6721 44.2086 61.0895 47.9252 59.3284C49.1597 60.0361 49.3643 61.5009 50.0466 62.6168C50.7483 63.759 51.3038 64.9934 52.0185 66.3759C50.7808 66.9355 49.6925 67.4786 48.5619 67.9263C45.5536 69.1146 42.4771 70.056 39.2186 70.214C39.0627 70.1054 38.9067 69.9046 38.7475 69.9013C36.6814 69.8816 34.6152 69.8816 32.549 69.9013C32.3931 69.9013 32.2371 70.1054 32.0779 70.214C29.6836 70.1811 27.3868 69.5787 25.1452 68.8414C15.7661 65.7604 8.82363 59.7399 4.38914 50.8424C2.37494 46.7772 1.2119 42.4355 0.916264 37.8798C0.900021 37.6098 0.935757 37.3366 0.948751 37.0634C1.04946 36.7935 1.26388 36.5071 1.23464 36.2504C1.11444 35.1082 1.5855 33.9166 0.968244 32.8138C0.981239 30.2957 1.53677 27.8664 2.21575 25.4668C2.89473 23.0606 3.79463 20.7399 5.02264 18.5608C5.20457 18.2382 5.42873 17.9354 5.70487 17.5174C8.01146 18.7879 10.2693 20.0289 12.5629 21.2929C11.8807 22.8269 11.1237 24.3674 10.5032 25.9638C9.61632 28.2483 9.12252 30.6347 8.97632 33.0904C8.96008 33.3438 8.82688 33.5874 8.74567 33.8343C8.70993 33.5314 8.67419 33.2286 8.63846 32.9258C8.57998 32.9291 8.52475 32.9356 8.46628 32.9389C8.46628 34.4893 8.46628 36.0397 8.46628 37.5868C8.52475 37.5934 8.58323 37.6 8.64496 37.6098C8.67744 37.3037 8.71318 37.0009 8.74567 36.6948C8.94059 37.8567 9.15176 39.0187 9.33043 40.1839C9.74952 42.9555 10.7241 45.5329 11.9944 48.0083C13.5798 51.1025 15.8116 53.6338 18.3424 55.9841C19.8303 57.3666 21.8282 57.9788 23.131 59.5621C23.8457 59.2757 24.3005 59.9308 24.895 60.0855C25.3726 60.2106 25.7884 60.5858 26.188 60.8261C27.3413 61.1026 28.4719 61.3726 29.6869 61.6622C29.7486 61.4088 29.7941 61.208 29.8428 61.0105C30.4633 60.6253 30.1255 60.0164 30.1255 59.5292C30.1482 47.2315 30.1417 34.9304 30.1417 22.6326C30.1417 16.4574 30.1514 10.2789 30.1255 4.10371C30.1222 3.61654 30.4666 3.00758 29.8428 2.62245C29.8428 2.39862 29.8428 2.17149 29.8428 1.94765C30.1742 1.48353 30.5023 1.0194 30.8337 0.555269L30.9376 0.621102C33.3254 0.630977 35.7132 0.647436 38.101 0.634269C38.3642 0.630977 38.6306 0.443351 38.897 0.341309Z" fill="#333333"/>
<path d="M109.053 53.3145C107.435 53.3145 105.889 53.3145 104.196 53.3145C104.196 52.8372 104.196 52.4192 104.196 51.9978C104.196 48.1169 104.199 44.2327 104.193 40.3518C104.193 39.5881 104.186 38.8179 104.108 38.0575C103.9 35.9442 102.757 34.5354 100.996 34.147C98.9104 33.6894 96.7857 34.5189 95.7429 36.1977C95.0542 37.3037 94.8755 38.5249 94.8788 39.8054C94.8917 43.8509 94.8885 47.8964 94.8853 51.9419C94.8853 52.3632 94.8463 52.7845 94.8203 53.2882C93.1732 53.2882 91.6333 53.2882 89.8822 53.2882C89.8757 45.5757 89.8822 37.8501 89.8757 30.0422C91.4059 30.0422 92.8386 30.0422 94.3979 30.0422C94.3979 30.8684 94.3979 31.665 94.3979 32.5538C94.6773 32.4386 94.869 32.4254 94.947 32.3201C97.1139 29.4794 100.064 29.035 103.257 29.7032C106.402 30.3615 108.101 32.59 108.816 35.6381C109.024 36.5302 109.15 37.465 109.157 38.3834C109.193 43.0312 109.18 47.6791 109.173 52.3237C109.176 52.6364 109.102 52.9491 109.053 53.3145ZM94.3297 38.515C94.2745 38.5381 94.2225 38.5611 94.1673 38.5809C94.1673 43.0642 94.1673 47.5442 94.1673 52.0274C94.2225 52.0274 94.2745 52.0274 94.3297 52.0274C94.3297 47.5244 94.3297 43.0214 94.3297 38.515Z" fill="#333333"/>
<path d="M158.395 45.9575C160.074 45.9575 161.572 45.9575 163.164 45.9575C163.359 47.4025 164.09 48.5118 165.444 49.0549C167.059 49.7034 168.722 49.7034 170.337 49.0385C171.259 48.6599 171.805 47.8864 171.854 46.8923C171.906 45.862 171.334 45.1115 170.408 44.7395C169.612 44.4202 168.774 44.2063 167.943 43.989C166.692 43.6631 165.421 43.4097 164.174 43.0706C161.802 42.4288 160.129 41.0331 159.626 38.5018C159.054 35.6314 159.85 33.189 162.101 31.339C164.863 29.0645 169.759 28.8012 172.806 30.6774C175.112 32.0994 176.129 34.3049 176.519 36.9711C175.746 37.3069 174.937 37.0863 174.151 37.1258C173.4 37.162 172.65 37.1324 171.841 37.1324C171.747 36.8098 171.688 36.5531 171.594 36.3095C170.61 33.7749 167.147 32.8829 165.074 34.6274C163.774 35.7236 163.895 37.7118 165.451 38.3833C166.822 38.9758 168.329 39.2424 169.775 39.6473C170.603 39.881 171.441 40.0818 172.263 40.3385C177.796 42.07 177.523 49.1701 174.316 51.764C173.329 52.5639 172.254 53.1564 171.032 53.4592C168.849 53.9991 166.65 54.0451 164.46 53.5119C161.393 52.7647 159.486 50.816 158.693 47.7416C158.625 47.4782 158.612 47.2017 158.567 46.9318C158.521 46.6717 158.473 46.4051 158.395 45.9575Z" fill="#333333"/>
<path d="M111.142 30.0159C112.964 30.0159 114.576 30.0159 116.382 30.0159C118.279 35.4735 120.206 41.0101 122.194 46.7311C123.016 45.3881 123.305 43.9628 123.825 42.6461C124.387 41.2307 124.829 39.7659 125.332 38.3274C125.82 36.9416 126.326 35.5624 126.814 34.1766C127.298 32.7973 127.769 31.4115 128.253 30.0093C129.939 30.0093 131.547 30.0093 133.379 30.0093C130.436 37.8205 127.532 45.523 124.605 53.2848C123.058 53.2848 121.564 53.2848 119.881 53.2848C117.029 45.6876 114.127 37.9686 111.142 30.0159Z" fill="#333333"/>
<path d="M190.729 34.3049C189.433 34.3049 188.211 34.3049 186.996 34.3049C186.915 34.5617 186.83 34.7098 186.83 34.8612C186.821 38.5743 186.791 42.2873 186.83 46.0003C186.856 48.288 187.668 48.9365 189.978 48.6962C190.183 48.6732 190.394 48.6929 190.69 48.6929C190.69 50.1972 190.69 51.6489 190.69 53.2815C188.702 53.6107 186.694 53.7325 184.774 52.8009C183.133 52.0044 182.354 50.5231 182.048 48.7818C181.909 47.9819 181.857 47.159 181.853 46.3492C181.834 42.9621 181.844 39.5782 181.844 36.1911C181.844 35.6512 181.844 35.1081 181.844 34.3642C180.739 34.3148 179.699 34.272 178.611 34.2226C178.611 32.7875 178.611 31.4872 178.611 29.9961C179.612 29.9961 180.651 29.9961 181.798 29.9961C181.798 27.9158 181.798 26.0263 181.798 24.0349C183.487 23.7781 185.073 23.9657 186.814 23.8933C186.814 25.9605 186.814 27.896 186.814 29.9401C188.188 29.9401 189.41 29.9401 190.729 29.9401C190.729 31.428 190.729 32.8072 190.729 34.3049Z" fill="#333333"/>
<path d="M206.8 39.2195C206.891 40.8752 206.895 42.4651 206.797 44.1208C202.307 44.1208 197.967 44.1208 193.578 44.1208C193.578 42.4684 193.578 40.862 193.578 39.2195C197.964 39.2195 202.304 39.2195 206.8 39.2195Z" fill="#333333"/>
<path d="M83.2451 53.3045C81.7084 53.3045 80.1588 53.3045 78.6124 53.3045C78.5767 53.2683 78.5344 53.2321 78.5019 53.1926C78.4662 53.1498 78.4305 53.107 78.411 53.0576C78.372 52.9589 78.3103 52.8568 78.3103 52.7548C78.307 42.3432 78.307 31.9315 78.307 21.4343C80.0028 21.4343 81.5947 21.4343 83.1898 21.4343C83.4497 22.6358 83.5082 51.4776 83.2451 53.3045ZM79.1452 52.4914C80.0841 52.949 81.7799 52.949 82.7155 52.4914C82.7155 42.4584 82.7155 32.422 82.7155 22.3033C81.403 22.3033 80.2757 22.3033 79.1452 22.3033C79.077 22.2408 79.0152 22.175 78.9405 22.1256C78.9275 22.1157 78.8398 22.1684 78.8398 22.1914C78.8268 22.6259 78.8203 23.0637 78.8203 23.4982C78.8203 28.9591 78.8203 34.4233 78.8203 39.8843C78.8203 43.7092 78.8106 47.5309 78.8333 51.3558C78.8366 51.7376 78.5637 52.2511 79.1452 52.4914Z" fill="#333333"/>
<path d="M29.8397 2.62231C30.4634 3.00744 30.1223 3.61641 30.1223 4.10358C30.1483 10.2788 30.1385 16.4573 30.1385 22.6325C30.1385 34.9303 30.1418 47.2313 30.1223 59.5291C30.1223 60.0163 30.4602 60.6252 29.8397 61.0103C29.8234 60.6845 29.7942 60.3553 29.7942 60.0294C29.7909 41.2207 29.7909 22.4087 29.7942 3.59995C29.7974 3.27736 29.8234 2.94819 29.8397 2.62231Z" fill="#333333"/>
<path d="M37.7338 62.2941C37.5844 62.1822 37.3277 62.09 37.3082 61.955C37.2498 61.5831 37.2855 61.1947 37.2855 60.8128C37.2855 43.854 37.279 26.8919 37.3017 9.93315C37.3017 9.4756 36.8892 8.82056 37.6623 8.53418C37.6656 25.7991 37.6656 43.064 37.6688 60.3289C37.6688 60.9873 37.7111 61.639 37.7338 62.2941Z" fill="#333333"/>
<path d="M212.538 21.4312C212.547 31.8987 212.554 42.3663 212.564 52.8339C212.463 52.9359 212.359 53.0413 212.258 53.1433C212.232 52.6561 212.183 52.1657 212.183 51.6785C212.18 42.1161 212.174 32.5505 212.2 22.9881C212.2 22.4779 211.852 21.8163 212.538 21.4312Z" fill="#333333"/>
<path d="M246.6 47.1819C246.633 47.0239 246.668 46.8659 246.714 46.6487C250.973 46.6487 255.235 46.6487 259.494 46.6487C259.54 46.8659 259.572 47.0239 259.605 47.1819C255.271 47.1819 250.934 47.1819 246.6 47.1819Z" fill="#333333"/>
<path d="M212.258 53.1432C212.359 53.0412 212.463 52.9358 212.563 52.8338C216.29 52.8338 220.016 52.8239 223.742 52.8404C224.122 52.8437 224.629 52.5737 224.873 53.1564C224.577 53.2387 224.282 53.3901 223.986 53.3934C220.234 53.423 216.478 53.4329 212.726 53.4263C212.567 53.4263 212.414 53.2419 212.258 53.1432Z" fill="#333333"/>
<path d="M261.226 51.5073C261.385 51.5337 261.544 51.56 261.752 51.5929C261.817 51.9451 261.879 52.3072 261.97 52.8075C263.666 52.8075 265.371 52.8075 267.077 52.8075C267.158 52.926 267.243 53.0445 267.431 53.3145C265.534 53.5712 263.763 53.3902 261.804 53.4428C261.609 52.7911 261.418 52.1492 261.226 51.5073Z" fill="#333333"/>
<path d="M281.017 53.7917C281.124 53.6897 281.228 53.4955 281.336 53.4955C282.752 53.479 284.168 53.479 285.588 53.5053C285.692 53.5086 285.79 53.7094 285.89 53.818C284.263 54.2525 282.638 54.213 281.017 53.7917Z" fill="#333333"/>
<path d="M38.897 0.341258C38.6306 0.443301 38.3643 0.630927 38.0979 0.630927C35.7101 0.644094 33.3223 0.627635 30.9344 0.61776C31.2171 0.505843 31.4997 0.295174 31.7824 0.295174C34.1507 0.291883 36.5222 0.321508 38.897 0.341258Z" fill="#333333"/>
<path d="M8.7457 36.6948C8.71321 37.0009 8.67747 37.3037 8.64499 37.6099C8.58651 37.6033 8.52803 37.5967 8.46631 37.5868C8.46631 36.0364 8.46631 34.486 8.46631 32.9389C8.52479 32.9357 8.58001 32.9291 8.63849 32.9258C8.67423 33.2286 8.70996 33.5315 8.7457 33.8343C8.7457 34.7889 8.7457 35.7435 8.7457 36.6948Z" fill="#333333"/>
<path d="M237.835 39.6901C237.731 39.5814 237.536 39.4728 237.536 39.3609C237.517 38.0508 237.517 36.7407 237.536 35.4306C237.539 35.3187 237.734 35.2134 237.838 35.1047C237.838 36.6321 237.835 38.1594 237.835 39.6901Z" fill="#333333"/>
<path d="M0.968101 32.8137C1.58536 33.9131 1.11429 35.1047 1.2345 36.2502C1.26048 36.507 1.04932 36.7901 0.948608 37.0633C0.955106 35.6479 0.961603 34.2324 0.968101 32.8137Z" fill="#333333"/>
<path d="M30.8273 0.555176C30.4959 1.0193 30.1678 1.48343 29.8364 1.94756C29.8364 1.5756 29.8364 1.20364 29.8364 0.713177C30.1451 0.663802 30.4862 0.607843 30.8273 0.555176Z" fill="#333333"/>
<path d="M273.581 35.806C273.581 36.866 273.584 37.9259 273.584 38.9858C273.548 39.18 273.516 39.3742 273.48 39.5684C273.418 39.5618 273.353 39.5553 273.292 39.5487C273.292 38.1168 273.292 36.6816 273.292 35.2497C273.357 35.2431 273.418 35.2366 273.483 35.23C273.516 35.4176 273.548 35.6118 273.581 35.806Z" fill="#333333"/>
<path d="M298.755 34.8547C298.45 32.0864 297.511 29.4827 295.9 27.1851C294.623 25.3681 293.346 23.5313 291.036 22.9026C289.672 21.5036 287.862 21.2436 286.076 20.9111C279.65 19.7097 273.22 22.9487 270.293 28.7124C268.783 31.6848 268.201 34.8514 268.318 38.1859C268.454 42.0602 269.592 45.5758 271.989 48.5975C274.302 51.514 277.307 53.3047 281.017 53.7918C281.124 53.6898 281.228 53.4956 281.336 53.4956C282.752 53.4791 284.169 53.4791 285.588 53.5055C285.692 53.5088 285.79 53.7095 285.89 53.8182C286.319 53.7853 286.767 53.8215 287.177 53.7095C290.731 52.7451 293.687 50.8721 295.802 47.7746C298.469 43.8641 299.265 39.4796 298.755 34.8547ZM293.921 38.8969C293.869 38.9002 293.82 38.9035 293.768 38.9101C293.726 38.6073 293.681 38.3044 293.635 38.0016C293.535 38.525 293.447 39.0516 293.353 39.5783C293.258 40.105 293.154 40.6251 293.012 41.1386C291.926 45.1018 289.571 47.7779 285.445 48.6107C285.354 48.6305 285.28 48.7325 285.195 48.795C285.023 48.9366 284.857 49.1901 284.679 49.1966C283.834 49.2394 282.986 49.2164 282.128 49.2164C282.161 49.0913 282.174 48.9991 282.213 48.9201C282.232 48.8806 282.304 48.8708 282.352 48.8477C282.268 48.7819 282.193 48.6798 282.099 48.6601C281.313 48.4922 280.494 48.4231 279.744 48.1565C279.026 47.903 278.353 47.485 277.704 47.0735C277.431 46.899 277.284 46.5304 277.041 46.2901C275.209 44.4796 274.188 42.2742 273.834 39.7264C273.799 39.473 273.669 39.236 273.581 38.9891C273.545 39.1833 273.513 39.3775 273.477 39.5717C273.415 39.5651 273.35 39.5586 273.289 39.552C273.289 38.1201 273.289 36.6849 273.289 35.253C273.354 35.2464 273.415 35.2399 273.48 35.2333C273.513 35.4275 273.545 35.6184 273.578 35.8126C273.6 35.7369 273.626 35.6645 273.652 35.5888C273.73 35.3649 273.815 35.1411 273.844 34.9107C274.094 32.7513 274.949 30.7763 276.255 29.1502C277.314 27.8303 278.847 26.8461 280.527 26.3786C283.684 25.4997 286.712 25.8059 289.392 27.8698C291.79 29.7131 292.963 32.2675 293.353 35.2366C293.421 35.7599 293.541 36.28 293.639 36.8001C293.681 36.4973 293.72 36.1945 293.762 35.8916C293.814 35.8949 293.866 35.8982 293.921 35.9048C293.921 36.8956 293.921 37.8963 293.921 38.8969Z" fill="#333333"/>
<path d="M282.356 48.841C283.304 48.8245 284.253 48.8048 285.201 48.7883C285.029 48.9299 284.864 49.1833 284.685 49.1899C283.84 49.2327 282.992 49.2097 282.135 49.2097C282.167 49.0846 282.18 48.9924 282.219 48.9134C282.239 48.8772 282.31 48.8673 282.356 48.841Z" fill="#333333"/>
<path d="M237.536 39.361C237.517 38.0509 237.517 36.7408 237.536 35.4307C237.54 35.3188 237.735 35.2135 237.839 35.1049C237.8 32.8863 237.186 30.8125 236.11 28.9066C234.996 26.9316 233.774 25.0915 231.569 24.0415C230.721 23.6366 229.957 23.0737 229.025 22.7018C228.066 22.3199 227.118 21.8393 226.114 21.7011C221.605 21.0724 217.066 21.3258 212.538 21.4345C212.547 31.9021 212.554 42.3696 212.564 52.8372C216.29 52.8372 220.016 52.8273 223.742 52.8438C224.123 52.8471 224.629 52.5772 224.873 53.1598C227.225 53.0248 229.389 52.2414 231.351 50.9972C235.454 48.3967 237.472 44.5125 237.835 39.6902C237.731 39.5783 237.536 39.4696 237.536 39.361ZM232.075 41.8232C231.341 44.1735 229.938 45.9247 227.794 47.0833C227.374 47.3105 226.972 47.5639 226.468 47.8602C225.786 47.8799 224.944 47.7581 224.464 48.3408C221.939 48.2947 219.542 48.2519 217.141 48.2091C216.553 48.1103 216.761 47.6363 216.758 47.3039C216.745 44.3051 216.751 41.3064 216.751 38.311C216.751 34.7691 216.741 31.224 216.764 27.6821C216.767 27.3068 216.478 26.7802 217.102 26.5728C217.102 26.5761 217.102 26.5761 217.102 26.5794C217.154 26.5267 217.206 26.4741 217.261 26.4247C217.32 26.3687 217.375 26.3128 217.433 26.2568L217.417 26.2733C217.615 26.1515 217.814 25.9276 218.015 25.9243C219.798 25.898 221.582 25.921 223.362 25.9013C223.885 25.8947 224.327 25.9638 224.532 26.53C225.201 26.7209 225.883 26.8756 226.54 27.1061C229.584 28.1693 231.481 30.3879 232.251 33.4557C232.949 36.224 232.943 39.045 232.075 41.8232Z" fill="#333333"/>
<path d="M266.973 52.1622C264.621 45.6315 262.262 39.1041 259.907 32.5734C258.565 28.857 257.227 25.1374 255.875 21.4014C254.049 21.4014 252.289 21.4014 250.434 21.4014C246.636 32.0269 242.851 42.6229 239.024 53.3341C240.921 53.3341 242.621 53.3341 244.326 53.3341C245.103 51.2373 245.85 49.2096 246.6 47.1852C246.633 47.0272 246.668 46.8692 246.714 46.6519C250.973 46.6519 255.235 46.6519 259.494 46.6519C259.54 46.8692 259.572 47.0272 259.605 47.1852C260.144 48.6269 260.687 50.0687 261.226 51.5105C261.385 51.5368 261.544 51.5631 261.752 51.5961C261.817 51.9483 261.879 52.3103 261.97 52.8107C263.666 52.8107 265.371 52.8107 267.077 52.8107C267.044 52.5901 267.044 52.363 266.973 52.1622ZM257.545 42.6295C254.589 42.6492 251.632 42.6492 248.679 42.6262C248.543 42.6262 248.406 42.3859 248.267 42.2608C248.761 40.7203 249.232 39.1699 249.751 37.6393C250.811 34.5319 251.896 31.4312 253.075 28.0243C253.517 29.2488 253.871 30.2198 254.218 31.1974C255.446 34.6669 256.671 38.1363 257.886 41.6091C257.954 41.8066 257.928 42.0403 257.948 42.2575C257.815 42.3892 257.678 42.6295 257.545 42.6295Z" fill="#333333"/>
<path d="M248.267 42.2609C251.496 42.2609 254.722 42.2576 257.951 42.2576C257.818 42.3859 257.682 42.6295 257.548 42.6295C254.592 42.6493 251.636 42.6493 248.683 42.6262C248.54 42.6295 248.403 42.3892 248.267 42.2609Z" fill="#333333"/>
<path d="M154.506 36.0166C152.816 32.0731 149.928 29.7262 145.607 29.4957C141.043 29.2554 137.661 31.2765 135.657 35.401C133.662 39.5058 133.688 43.7553 135.585 47.8765C137.352 51.7147 140.432 53.7555 144.678 53.8477C149.032 53.9431 152.245 52.0405 154.282 48.1497C154.619 47.5079 154.85 46.81 155.185 46.0134C153.395 46.0134 151.838 46.0134 150.295 46.0134C148.034 49.1373 145.757 50.0161 142.859 48.897C140.617 48.028 139.1 45.6151 139.354 43.2287C144.682 43.2287 150.016 43.2287 155.363 43.2287C155.458 42.9653 155.587 42.7645 155.594 42.5638C155.636 40.3155 155.399 38.1035 154.506 36.0166ZM139.289 39.2293C139.542 35.8915 142.021 33.7124 145.364 33.8111C148.226 33.8934 150.422 36.1779 150.513 39.2293C146.77 39.2293 143.031 39.2293 139.289 39.2293Z" fill="#333333"/>
<path d="M94.3298 38.5149C94.3298 43.0179 94.3298 47.521 94.3298 52.0273C94.2746 52.0273 94.2226 52.0273 94.1674 52.0273C94.1674 47.544 94.1674 43.064 94.1674 38.5807C94.2226 38.561 94.2778 38.5379 94.3298 38.5149Z" fill="#333333"/>
<path d="M79.1487 22.3035C80.276 22.3035 81.4033 22.3035 82.719 22.3035C82.719 32.4221 82.719 42.4585 82.719 52.4916C81.53 52.4916 80.3377 52.4916 79.1487 52.4916C79.1487 42.4289 79.1487 32.3662 79.1487 22.3035Z" fill="#333333"/>
<path d="M79.1485 22.3034C79.1485 32.3661 79.1485 42.4288 79.1485 52.4915C78.5637 52.2512 78.8399 51.7377 78.8366 51.3525C78.8139 47.5276 78.8236 43.7059 78.8236 39.881C78.8236 34.4201 78.8236 28.9559 78.8236 23.4949C78.8236 23.0604 78.8334 22.6226 78.8431 22.1881C78.8431 22.1651 78.9308 22.1124 78.9438 22.1223C79.0186 22.175 79.0803 22.2408 79.1485 22.3034Z" fill="#333333"/>
<path d="M79.1453 52.4915C80.3343 52.4915 81.5266 52.4915 82.7156 52.4915C81.7832 52.949 80.0841 52.949 79.1453 52.4915Z" fill="#333333"/>
</svg>
